G04 Layer_Color=8421504*
%FSLAX25Y25*%
%MOIN*%
G70*
G01*
G75*
%ADD10R,0.03150X0.03740*%
%ADD11R,0.08268X0.12795*%
%ADD12R,0.08268X0.03937*%
%ADD13R,0.03740X0.03347*%
%ADD14O,0.05512X0.01772*%
%ADD15R,0.03740X0.03150*%
%ADD16R,0.12205X0.09449*%
%ADD17O,0.02362X0.05709*%
%ADD18R,0.03347X0.03740*%
%ADD19R,0.04724X0.05512*%
%ADD20R,0.03543X0.03937*%
%ADD21R,0.03937X0.03347*%
%ADD22O,0.07480X0.02362*%
D10*
X117618Y73344D02*
D03*
X112303D02*
D03*
X167815Y66258D02*
D03*
X173130D02*
D03*
X161319D02*
D03*
X156004D02*
D03*
X155610Y52872D02*
D03*
X160925D02*
D03*
X117618Y16258D02*
D03*
X112303D02*
D03*
X173130Y52872D02*
D03*
X167815D02*
D03*
X166831Y59565D02*
D03*
X161516D02*
D03*
D11*
X121843Y104588D02*
D03*
D12*
X98614Y95533D02*
D03*
Y104588D02*
D03*
Y113643D02*
D03*
D13*
X88976Y107382D02*
D03*
Y102067D02*
D03*
X237795Y76476D02*
D03*
Y81791D02*
D03*
X235039Y152362D02*
D03*
Y157677D02*
D03*
X176772Y152756D02*
D03*
Y158071D02*
D03*
X169685Y5332D02*
D03*
Y10647D02*
D03*
X86614Y33088D02*
D03*
Y27773D02*
D03*
X147638Y27773D02*
D03*
Y33088D02*
D03*
D14*
X207283Y90372D02*
D03*
Y87813D02*
D03*
Y85254D02*
D03*
Y82695D02*
D03*
Y80135D02*
D03*
Y77576D02*
D03*
Y75017D02*
D03*
Y72458D02*
D03*
Y69899D02*
D03*
Y67340D02*
D03*
X230512Y90372D02*
D03*
Y87813D02*
D03*
Y85254D02*
D03*
Y82695D02*
D03*
Y80135D02*
D03*
Y77576D02*
D03*
Y75017D02*
D03*
Y72458D02*
D03*
Y69899D02*
D03*
Y67340D02*
D03*
D15*
X245669Y35138D02*
D03*
Y40453D02*
D03*
Y69587D02*
D03*
Y64272D02*
D03*
X246063Y92224D02*
D03*
Y97539D02*
D03*
Y119587D02*
D03*
Y114272D02*
D03*
X144488Y139075D02*
D03*
Y144390D02*
D03*
X234685Y137108D02*
D03*
Y131793D02*
D03*
X169961Y129427D02*
D03*
Y124112D02*
D03*
X161799Y10765D02*
D03*
Y5450D02*
D03*
X151181Y11041D02*
D03*
Y5726D02*
D03*
X86614Y38895D02*
D03*
Y44210D02*
D03*
X188583Y107891D02*
D03*
Y102576D02*
D03*
X196063Y107891D02*
D03*
Y102576D02*
D03*
D16*
X219685Y147950D02*
D03*
X162461Y147769D02*
D03*
D17*
X227185Y158679D02*
D03*
X222185D02*
D03*
X217185D02*
D03*
X212185D02*
D03*
X227185Y137222D02*
D03*
X222185D02*
D03*
X217185D02*
D03*
X212185D02*
D03*
X169961Y158498D02*
D03*
X164961D02*
D03*
X159961D02*
D03*
X154961D02*
D03*
X169961Y137041D02*
D03*
X164961D02*
D03*
X159961D02*
D03*
X154961D02*
D03*
D18*
X177067Y113386D02*
D03*
X171752D02*
D03*
X171358Y88305D02*
D03*
X176673D02*
D03*
X149902Y114902D02*
D03*
X144587D02*
D03*
X192618Y79134D02*
D03*
X197933D02*
D03*
D19*
X177342Y105210D02*
D03*
X170650D02*
D03*
Y96549D02*
D03*
X177342D02*
D03*
D20*
X175787Y19801D02*
D03*
X159646D02*
D03*
X175787Y28462D02*
D03*
X159646D02*
D03*
D21*
X144095Y11139D02*
D03*
Y5628D02*
D03*
D22*
X97441Y63679D02*
D03*
Y58679D02*
D03*
Y53679D02*
D03*
Y48679D02*
D03*
Y43679D02*
D03*
Y38679D02*
D03*
Y33679D02*
D03*
Y28679D02*
D03*
X134843Y63679D02*
D03*
Y58679D02*
D03*
Y53679D02*
D03*
Y48679D02*
D03*
Y43679D02*
D03*
Y38679D02*
D03*
Y33679D02*
D03*
Y28679D02*
D03*
M02*
