G04 Layer_Color=16711935*
%FSLAX25Y25*%
%MOIN*%
G70*
G01*
G75*
%ADD78C,0.00394*%
D78*
X215551Y88305D02*
G03*
X215551Y88305I-1969J0D01*
G01*
X215354Y143620D02*
G03*
X215354Y143620I-1969J0D01*
G01*
X158130Y143439D02*
G03*
X158130Y143439I-1969J0D01*
G01*
X129528Y29053D02*
G03*
X129528Y29053I-1969J0D01*
G01*
X111516Y71474D02*
X118405D01*
X111516Y75214D02*
X118405D01*
Y71474D02*
Y75214D01*
X111516Y71474D02*
Y75214D01*
X102945Y91399D02*
X117512D01*
X102945Y117777D02*
X117512D01*
Y91399D02*
Y117777D01*
X102945Y91399D02*
Y117777D01*
X87205Y108071D02*
X90748D01*
X87205Y101378D02*
X90748D01*
Y108071D01*
X87205Y101378D02*
Y108071D01*
X210039Y65864D02*
Y91848D01*
X227756Y65864D02*
Y91848D01*
X210039D02*
X227756D01*
X210039Y65864D02*
X227756D01*
X243799Y34350D02*
Y41240D01*
X247539Y34350D02*
Y41240D01*
X243799Y34350D02*
X247539D01*
X243799Y41240D02*
X247539D01*
X251181Y49132D02*
X268898D01*
Y25903D02*
Y49132D01*
X251181Y25903D02*
X268898D01*
X251181D02*
Y49132D01*
X250787Y77478D02*
X268504D01*
Y54250D02*
Y77478D01*
X250787Y54250D02*
X268504D01*
X250787D02*
Y77478D01*
Y105037D02*
X268504D01*
Y81809D02*
Y105037D01*
X250787Y81809D02*
X268504D01*
X250787D02*
Y105037D01*
X247539Y63484D02*
Y70374D01*
X243799Y63484D02*
Y70374D01*
X247539D01*
X243799Y63484D02*
X247539D01*
X236024Y75787D02*
X239567D01*
X236024Y82480D02*
X239567D01*
X236024Y75787D02*
Y82480D01*
X239567Y75787D02*
Y82480D01*
X244193Y91437D02*
Y98327D01*
X247933Y91437D02*
Y98327D01*
X244193Y91437D02*
X247933D01*
X244193Y98327D02*
X247933D01*
X250787Y132990D02*
X268504D01*
Y109761D02*
Y132990D01*
X250787Y109761D02*
X268504D01*
X250787D02*
Y132990D01*
X247933Y113484D02*
Y120374D01*
X244193Y113484D02*
Y120374D01*
X247933D01*
X244193Y113484D02*
X247933D01*
X142618Y138287D02*
Y145177D01*
X146358Y138287D02*
Y145177D01*
X142618Y138287D02*
X146358D01*
X142618Y145177D02*
X146358D01*
X236555Y131006D02*
Y137895D01*
X232815Y131006D02*
Y137895D01*
X236555D01*
X232815Y131006D02*
X236555D01*
X233268Y151673D02*
X236811D01*
X233268Y158366D02*
X236811D01*
X233268Y151673D02*
Y158366D01*
X236811Y151673D02*
Y158366D01*
X229528Y140076D02*
Y155824D01*
X209842Y140076D02*
Y155824D01*
X229528D01*
X209842Y140076D02*
X229528D01*
X203654Y191258D02*
X232787D01*
X203654Y168620D02*
Y191258D01*
Y168620D02*
X232787D01*
Y191258D01*
X150504D02*
X179638D01*
X150504Y168620D02*
Y191258D01*
Y168620D02*
X179638D01*
Y191258D01*
X172303Y139895D02*
Y155643D01*
X152618Y139895D02*
Y155643D01*
X172303D01*
X152618Y139895D02*
X172303D01*
X175000Y152067D02*
X178543D01*
X175000Y158760D02*
X178543D01*
X175000Y152067D02*
Y158760D01*
X178543Y152067D02*
Y158760D01*
X171831Y123324D02*
Y130214D01*
X168091Y123324D02*
Y130214D01*
X171831D01*
X168091Y123324D02*
X171831D01*
X177756Y111614D02*
Y115157D01*
X171063Y111614D02*
Y115157D01*
Y111614D02*
X177756D01*
X171063Y115157D02*
X177756D01*
X170669Y86533D02*
Y90076D01*
X177362Y86533D02*
Y90076D01*
X170669D02*
X177362D01*
X170669Y86533D02*
X177362D01*
X167028Y68128D02*
X173917D01*
X167028Y64387D02*
X173917D01*
X167028D02*
Y68128D01*
X173917Y64387D02*
Y68128D01*
X155217Y64387D02*
X162106D01*
X155217Y68128D02*
X162106D01*
Y64387D02*
Y68128D01*
X155217Y64387D02*
Y68128D01*
X154823Y54742D02*
X161713D01*
X154823Y51002D02*
X161713D01*
X154823D02*
Y54742D01*
X161713Y51002D02*
Y54742D01*
X167913Y4643D02*
X171457D01*
X167913Y11336D02*
X171457D01*
X167913Y4643D02*
Y11336D01*
X171457Y4643D02*
Y11336D01*
X163669Y4663D02*
Y11553D01*
X159929Y4663D02*
Y11553D01*
X163669D01*
X159929Y4663D02*
X163669D01*
X153051Y4939D02*
Y11828D01*
X149311Y4939D02*
Y11828D01*
X153051D01*
X149311Y4939D02*
X153051D01*
X145965Y4939D02*
Y11828D01*
X142224Y4939D02*
Y11828D01*
X145965D01*
X142224Y4939D02*
X145965D01*
X111516Y14387D02*
X118405D01*
X111516Y18128D02*
X118405D01*
Y14387D02*
Y18128D01*
X111516Y14387D02*
Y18128D01*
X84744Y38108D02*
Y44998D01*
X88484Y38108D02*
Y44998D01*
X84744Y38108D02*
X88484D01*
X84744Y44998D02*
X88484D01*
X84842Y33777D02*
X88386D01*
X84842Y27084D02*
X88386D01*
Y33777D01*
X84842Y27084D02*
Y33777D01*
X167028Y51002D02*
X173917D01*
X167028Y54742D02*
X173917D01*
Y51002D02*
Y54742D01*
X167028Y51002D02*
Y54742D01*
X160728Y57695D02*
X167618D01*
X160728Y61435D02*
X167618D01*
Y57695D02*
Y61435D01*
X160728Y57695D02*
Y61435D01*
X150591Y113130D02*
Y116673D01*
X143898Y113130D02*
Y116673D01*
Y113130D02*
X150591D01*
X143898Y116673D02*
X150591D01*
X101181Y66848D02*
X131102D01*
X101181Y25510D02*
X131102D01*
X101181D02*
Y66848D01*
X131102Y25510D02*
Y66848D01*
X191929Y77362D02*
Y80905D01*
X198622Y77362D02*
Y80905D01*
X191929D02*
X198622D01*
X191929Y77362D02*
X198622D01*
X190453Y101789D02*
Y108679D01*
X186713Y101789D02*
Y108679D01*
X190453D01*
X186713Y101789D02*
X190453D01*
X197933D02*
Y108679D01*
X194193Y101789D02*
Y108679D01*
X197933D01*
X194193Y101789D02*
X197933D01*
X145866Y27084D02*
X149409D01*
X145866Y33777D02*
X149409D01*
X145866Y27084D02*
Y33777D01*
X149409Y27084D02*
Y33777D01*
M02*
