M48
;Layer_Color=9474304
;FILE_FORMAT=2:5
INCH,LZ
;TYPE=PLATED
T1F00S00C0.00787
T2F00S00C0.01200
T3F00S00C0.02500
T4F00S00C0.02756
T5F00S00C0.03500
T6F00S00C0.03937
T7F00S00C0.04000
T8F00S00C0.06693
T9F00S00C0.09000
T10F00S00C0.11811
T11F00S00C0.12500
%
T01
X0215354Y0145785
X0219685
X0224016
Y0150116
X0219685
X0215354
X0166791Y0149935
Y0145604
X0162461
Y0149935
X015813
Y0145604
T02
X0083465Y0038698
X0071652Y0051691
X007441Y0055628
X0122835Y0053937
X0122047Y0031496
X0126772Y0020472
X0122047Y0011811
Y0003937
X0133858
Y0011811
X0142913Y004421
Y0048541
X0151181Y0052478
X0157874Y0045391
X0163779Y0045669
X0167717Y0048541
X0177165Y0052872
X019685Y0047244
Y0031496
X0212598
Y0047244
X0179528Y0028346
X0228346Y0031496
Y0047244
X0245669Y0059055
X0237795Y0086614
X0226198Y0085254
X022126Y0082284
X0220866Y0077559
X022559Y0075197
X0246063Y0105512
X0236221Y011811
X0244094Y0133858
Y0137795
X0248031
Y0133858
X0248031Y0145669
X0244094
Y0149606
X0248031
Y0153543
X0244094
X0237402Y0164961
X0233858
X0230315
X0232283Y016811
X0236221
X0244094Y0181102
X0248031
Y0185039
X0244094
Y0188976
X0248031
X0222047Y0130315
X0217323Y0129528
X019685Y0137795
X0190945Y0145276
X0187008
Y0149213
X0190945
Y015315
X0187008
X0180315Y0164961
X0176772
X0173228
X0175197Y016811
X0179134
X0187008Y0180709
X0190945
Y0184646
X0187008
Y0188583
X0190945
X0137795Y0188976
X0133858
Y0185039
Y0181102
X0137795
Y0185039
Y0153543
Y0149606
X0133858
Y0153543
Y0145669
X0137795
X0149606Y013937
Y0135039
Y0130709
Y0126378
X0144882Y0125984
X0159449Y0125197
X0164961Y0115354
X0163779Y0108661
Y0098819
Y008937
X0168898Y0080709
X0179921Y0080315
X0184646Y0088583
X0193307Y0083071
X0212598Y0074803
X0212205Y006811
X0177953Y0067323
X0183071Y0108268
Y0117323
X019685Y011811
X0175591Y0124409
X0140157Y0093307
Y0082284
X0123228
Y0093307
X0126378Y0073344
X0116929Y0065354
X0104331Y0082677
X0095276
X0088976Y0092126
Y0095276
Y0098819
X0085433
Y0095276
Y0092126
Y0118898
X008937
X0093307
X0090551Y0145669
Y0149606
X0086614
Y0153543
X0090551
X0086614Y0145669
Y0181102
Y0185039
X0090551
Y0188976
X0086614
X0090551Y0181102
X0080315Y0063895
X0077559Y0059958
T03
X0041339Y0043958
Y0051958
X0048339Y0047958
Y0055958
Y0063958
Y0071958
X0041339Y0067958
Y0059958
Y0122824
Y0130824
Y0138824
Y0146824
X0048339Y0142824
Y0134824
Y0126824
Y0150824
T04
X0257874Y003358
Y0041454
X025748Y0061927
Y0069801
Y0089486
Y009736
Y0117439
Y0125313
T05
X0067339Y0030958
Y0039958
Y0075958
Y0084958
Y0109824
Y0118824
Y0154824
Y0163824
T06
X0223843Y0182006
X0212598
X0170693
X0159449
X0114764Y0137008
X0100984
T07
X0186693Y0006809
X0196693
X0206693
X0216693
X0226693
X0236693
T08
X0100787Y0177165
X0116535
T09
X0044839Y0025958
Y0089958
Y0104824
Y0168824
T10
X0011811Y0011811
X0263779
Y0185039
X0011811
T11
X0031339Y0032958
Y0082958
Y0111824
Y0161824
M30
