G04 Layer_Physical_Order=2*
G04 Layer_Color=16711680*
%FSLAX25Y25*%
%MOIN*%
G70*
G01*
G75*
%ADD23C,0.02000*%
%ADD24C,0.01000*%
%ADD25C,0.11811*%
%ADD26C,0.17716*%
%ADD27C,0.07400*%
%ADD28R,0.07400X0.07400*%
%ADD29C,0.04000*%
%ADD30P,0.12784X8X292.5*%
%ADD31C,0.13500*%
%ADD32C,0.06200*%
%ADD33P,0.06711X8X292.5*%
%ADD34P,0.04330X8X292.5*%
%ADD35C,0.07874*%
%ADD36C,0.05512*%
%ADD37R,0.05512X0.05512*%
%ADD38R,0.06299X0.07402*%
%ADD39O,0.06299X0.07402*%
%ADD40C,0.02400*%
%ADD41C,0.01968*%
G36*
X261925Y194361D02*
X260142Y193820D01*
X258499Y192942D01*
X257059Y191760D01*
X255877Y190320D01*
X254999Y188676D01*
X254458Y186893D01*
X254275Y185039D01*
X254458Y183185D01*
X254999Y181402D01*
X255877Y179759D01*
X257059Y178319D01*
X258499Y177137D01*
X260142Y176259D01*
X261925Y175718D01*
X263779Y175535D01*
X265634Y175718D01*
X267417Y176259D01*
X269060Y177137D01*
X270500Y178319D01*
X271682Y179759D01*
X272560Y181402D01*
X273101Y183185D01*
X273584Y183108D01*
Y141732D01*
X129102Y141732D01*
X128602Y142175D01*
Y162343D01*
X240158D01*
X240617Y162533D01*
X240807Y162992D01*
X240807Y172441D01*
X240617Y172900D01*
X240158Y173090D01*
X127815Y173090D01*
X127815Y184252D01*
X127625Y184711D01*
X127165Y184901D01*
X108661D01*
X108202Y184711D01*
X108012Y184252D01*
X108012Y171653D01*
X108012Y171653D01*
X108012Y140945D01*
Y118773D01*
X90676Y101437D01*
X82284Y101437D01*
Y194843D01*
X261848Y194843D01*
X261925Y194361D01*
D02*
G37*
G36*
X81102Y130702D02*
X80640Y130510D01*
X67533Y143617D01*
X67169Y143861D01*
X66740Y143946D01*
X66740Y143946D01*
X50688D01*
X50610Y144136D01*
X50193Y144679D01*
X49650Y145096D01*
X49017Y145358D01*
X48339Y145447D01*
X47660Y145358D01*
X47027Y145096D01*
X46484Y144679D01*
X46068Y144136D01*
X45805Y143503D01*
X45716Y142824D01*
X45805Y142146D01*
X46068Y141513D01*
X46484Y140970D01*
X47027Y140553D01*
X47286Y140446D01*
X47187Y139946D01*
X43688D01*
X43610Y140136D01*
X43193Y140679D01*
X42650Y141095D01*
X42017Y141358D01*
X41339Y141447D01*
X40660Y141358D01*
X40027Y141095D01*
X39484Y140679D01*
X39068Y140136D01*
X38805Y139503D01*
X38716Y138824D01*
X38805Y138146D01*
X39068Y137513D01*
X39484Y136970D01*
X40027Y136553D01*
X40660Y136291D01*
X41339Y136202D01*
X42017Y136291D01*
X42650Y136553D01*
X43193Y136970D01*
X43610Y137513D01*
X43688Y137703D01*
X47187D01*
X47286Y137203D01*
X47027Y137095D01*
X46484Y136679D01*
X46068Y136136D01*
X45805Y135503D01*
X45716Y134824D01*
X45805Y134146D01*
X46068Y133513D01*
X46484Y132970D01*
X47027Y132553D01*
X47286Y132446D01*
X47187Y131946D01*
X43688D01*
X43610Y132136D01*
X43193Y132679D01*
X42650Y133096D01*
X42017Y133358D01*
X41339Y133447D01*
X40660Y133358D01*
X40027Y133096D01*
X39484Y132679D01*
X39068Y132136D01*
X38805Y131503D01*
X38716Y130824D01*
X38805Y130146D01*
X39068Y129513D01*
X39484Y128970D01*
X40027Y128553D01*
X40660Y128291D01*
X41339Y128202D01*
X42017Y128291D01*
X42650Y128553D01*
X43193Y128970D01*
X43610Y129513D01*
X43688Y129703D01*
X47187D01*
X47286Y129203D01*
X47027Y129095D01*
X46484Y128679D01*
X46228Y128344D01*
X46163Y128332D01*
X45634Y127978D01*
X42939Y125284D01*
X42798D01*
X42339Y125474D01*
X40339D01*
X39879Y125284D01*
X38879Y124284D01*
X38689Y123824D01*
Y121824D01*
X38879Y121365D01*
X39879Y120365D01*
X40339Y120175D01*
X42339D01*
X42798Y120365D01*
X43798Y121365D01*
X43918Y121656D01*
X43941Y121671D01*
X46912Y124642D01*
X47027Y124553D01*
X47660Y124291D01*
X48339Y124202D01*
X49017Y124291D01*
X49650Y124553D01*
X50193Y124970D01*
X50364Y125193D01*
X54112D01*
X55849Y123456D01*
Y54335D01*
X51104Y49590D01*
X50364D01*
X50193Y49813D01*
X49650Y50229D01*
X49017Y50491D01*
X48339Y50581D01*
X47660Y50491D01*
X47027Y50229D01*
X46484Y49813D01*
X46068Y49270D01*
X45805Y48637D01*
X45716Y47958D01*
X45805Y47280D01*
X46068Y46647D01*
X46484Y46104D01*
X47027Y45687D01*
X47660Y45425D01*
X48339Y45336D01*
X49017Y45425D01*
X49650Y45687D01*
X50193Y46104D01*
X50364Y46327D01*
X51780D01*
X52404Y46451D01*
X52933Y46805D01*
X58634Y52505D01*
X58987Y53035D01*
X59112Y53659D01*
Y124132D01*
X58987Y124756D01*
X58634Y125285D01*
X55941Y127978D01*
X55412Y128332D01*
X54787Y128456D01*
X50364D01*
X50193Y128679D01*
X49650Y129095D01*
X49391Y129203D01*
X49490Y129703D01*
X64496D01*
X70530Y123669D01*
Y121854D01*
X70069Y121663D01*
X69348Y122384D01*
X68889Y122574D01*
X65789D01*
X65329Y122384D01*
X63779Y120834D01*
X63589Y120374D01*
Y117274D01*
X63779Y116815D01*
X65329Y115265D01*
X65789Y115075D01*
X68889D01*
X69348Y115265D01*
X70069Y115986D01*
X70530Y115795D01*
Y112520D01*
X70057Y112360D01*
X69977Y112463D01*
X69204Y113056D01*
X68305Y113429D01*
X67339Y113556D01*
X66373Y113429D01*
X65473Y113056D01*
X64700Y112463D01*
X64107Y111690D01*
X63734Y110790D01*
X63607Y109824D01*
X63734Y108859D01*
X64107Y107958D01*
X64700Y107185D01*
X65473Y106593D01*
X66373Y106220D01*
X67339Y106093D01*
X68305Y106220D01*
X69204Y106593D01*
X69977Y107185D01*
X70057Y107289D01*
X70530Y107128D01*
Y87988D01*
X70069Y87797D01*
X69348Y88517D01*
X68889Y88708D01*
X65789D01*
X65329Y88517D01*
X63779Y86967D01*
X63589Y86508D01*
Y83408D01*
X63779Y82949D01*
X65329Y81399D01*
X65789Y81209D01*
X68889D01*
X69348Y81399D01*
X70069Y82120D01*
X70530Y81928D01*
Y78654D01*
X70057Y78494D01*
X69977Y78597D01*
X69204Y79190D01*
X68305Y79563D01*
X67339Y79690D01*
X66373Y79563D01*
X65473Y79190D01*
X64700Y78597D01*
X64107Y77824D01*
X63734Y76924D01*
X63607Y75958D01*
X63734Y74992D01*
X64107Y74092D01*
X64700Y73319D01*
X65473Y72726D01*
X66373Y72354D01*
X67339Y72226D01*
X68305Y72354D01*
X69204Y72726D01*
X69977Y73319D01*
X70057Y73423D01*
X70530Y73262D01*
Y53106D01*
X70354Y52988D01*
X69956Y52393D01*
X69817Y51691D01*
X69956Y50988D01*
X70354Y50393D01*
X70950Y49995D01*
X71652Y49855D01*
X72354Y49995D01*
X72950Y50393D01*
X73348Y50988D01*
X73487Y51691D01*
X73348Y52393D01*
X72950Y52988D01*
X72773Y53106D01*
Y54005D01*
X73273Y54222D01*
X73707Y53932D01*
X74410Y53792D01*
X75112Y53932D01*
X75707Y54330D01*
X76105Y54925D01*
X76245Y55628D01*
X76105Y56330D01*
X75707Y56925D01*
X75531Y57043D01*
Y58854D01*
X76031Y59005D01*
X76261Y58661D01*
X76857Y58263D01*
X77559Y58123D01*
X78261Y58263D01*
X78857Y58661D01*
X79255Y59256D01*
X79394Y59958D01*
X79255Y60661D01*
X78857Y61256D01*
X78681Y61374D01*
Y62270D01*
X79181Y62488D01*
X79613Y62200D01*
X80315Y62060D01*
X80374Y62011D01*
Y39880D01*
X80374Y39880D01*
X80460Y39450D01*
X80703Y39086D01*
X81102Y38687D01*
Y32080D01*
X70879D01*
X70570Y32824D01*
X69977Y33597D01*
X69204Y34190D01*
X68305Y34563D01*
X67339Y34690D01*
X66373Y34563D01*
X65473Y34190D01*
X64700Y33597D01*
X64107Y32824D01*
X63734Y31924D01*
X63607Y30958D01*
X63734Y29992D01*
X64107Y29092D01*
X64700Y28319D01*
X65473Y27726D01*
X66373Y27354D01*
X67339Y27226D01*
X68305Y27354D01*
X69204Y27726D01*
X69977Y28319D01*
X70570Y29092D01*
X70879Y29837D01*
X81102D01*
X81102Y2007D01*
X13742D01*
X13665Y2490D01*
X15448Y3030D01*
X17091Y3909D01*
X18531Y5091D01*
X19713Y6531D01*
X20592Y8174D01*
X21132Y9957D01*
X21315Y11811D01*
X21132Y13665D01*
X20592Y15448D01*
X19713Y17091D01*
X18531Y18531D01*
X17091Y19713D01*
X15448Y20592D01*
X13665Y21132D01*
X11811Y21315D01*
X9957Y21132D01*
X8174Y20592D01*
X6531Y19713D01*
X5091Y18531D01*
X3909Y17091D01*
X3030Y15448D01*
X2490Y13665D01*
X2007Y13742D01*
Y183108D01*
X2490Y183185D01*
X3030Y181402D01*
X3909Y179759D01*
X5091Y178319D01*
X6531Y177137D01*
X8174Y176259D01*
X9957Y175718D01*
X11811Y175535D01*
X13665Y175718D01*
X15448Y176259D01*
X17091Y177137D01*
X18531Y178319D01*
X19713Y179759D01*
X20592Y181402D01*
X21132Y183185D01*
X21315Y185039D01*
X21132Y186893D01*
X20592Y188676D01*
X19713Y190320D01*
X18531Y191760D01*
X17091Y192942D01*
X15448Y193820D01*
X13665Y194361D01*
X13742Y194843D01*
X81102Y194843D01*
X81102Y130702D01*
D02*
G37*
G36*
X273584Y13742D02*
X273101Y13665D01*
X272560Y15448D01*
X271682Y17091D01*
X270500Y18531D01*
X269060Y19713D01*
X267417Y20592D01*
X265634Y21132D01*
X263779Y21315D01*
X261925Y21132D01*
X260142Y20592D01*
X258499Y19713D01*
X257059Y18531D01*
X255877Y17091D01*
X254999Y15448D01*
X254458Y13665D01*
X254275Y11811D01*
X254458Y9957D01*
X254999Y8174D01*
X255877Y6531D01*
X257059Y5091D01*
X258499Y3909D01*
X260142Y3030D01*
X261925Y2490D01*
X261848Y2007D01*
X240608D01*
X240508Y2507D01*
X240852Y2649D01*
X241042Y3109D01*
Y10509D01*
X240852Y10968D01*
X240393Y11158D01*
X232993D01*
X232534Y10968D01*
X232344Y10509D01*
Y3109D01*
X232534Y2649D01*
X232877Y2507D01*
X232778Y2007D01*
X226995D01*
X226962Y2507D01*
X227815Y2619D01*
X228861Y3053D01*
X229760Y3742D01*
X230449Y4640D01*
X230882Y5686D01*
X231030Y6809D01*
X230882Y7931D01*
X230449Y8977D01*
X229760Y9876D01*
X228861Y10565D01*
X227815Y10998D01*
X226693Y11146D01*
X225570Y10998D01*
X224524Y10565D01*
X224524Y10564D01*
X216578Y18510D01*
X216214Y18753D01*
X215785Y18838D01*
X215785Y18838D01*
X197709D01*
X191279Y25268D01*
Y28346D01*
Y79457D01*
X193099Y81277D01*
X193307Y81236D01*
X194009Y81375D01*
X194605Y81773D01*
X195003Y82369D01*
X195111Y82911D01*
X195602Y83127D01*
X210411Y68318D01*
X210369Y68110D01*
X210509Y67408D01*
X210907Y66812D01*
X211502Y66415D01*
X212205Y66275D01*
X212907Y66415D01*
X213502Y66812D01*
X213900Y67408D01*
X214040Y68110D01*
X213900Y68813D01*
X213502Y69408D01*
X212907Y69806D01*
X212205Y69946D01*
X211997Y69904D01*
X166757Y115144D01*
X166759Y115170D01*
X166796Y115354D01*
X166778Y115443D01*
X166791Y115631D01*
X167207Y115853D01*
X201569Y81490D01*
X201569Y81490D01*
X201933Y81247D01*
X202362Y81162D01*
X202362Y81162D01*
X219844D01*
X219962Y80986D01*
X220557Y80588D01*
X221260Y80448D01*
X221962Y80588D01*
X222059Y80653D01*
X222500Y80417D01*
Y77165D01*
X222500Y77165D01*
X222586Y76736D01*
X222829Y76372D01*
X223797Y75405D01*
X223755Y75197D01*
X223895Y74494D01*
X224293Y73899D01*
X224888Y73501D01*
X225590Y73362D01*
X226293Y73501D01*
X226888Y73899D01*
X227286Y74494D01*
X227426Y75197D01*
X227286Y75899D01*
X226888Y76495D01*
X226293Y76892D01*
X225590Y77032D01*
X225383Y76991D01*
X224744Y77630D01*
Y83459D01*
X225244Y83727D01*
X225496Y83558D01*
X226198Y83418D01*
X226901Y83558D01*
X227496Y83956D01*
X227894Y84551D01*
X228034Y85254D01*
X227894Y85956D01*
X227496Y86551D01*
X227320Y86669D01*
Y105691D01*
X227320Y105691D01*
X227235Y106121D01*
X226992Y106484D01*
X226991Y106484D01*
X223169Y110307D01*
Y128900D01*
X223345Y129017D01*
X223743Y129613D01*
X223883Y130315D01*
X223743Y131017D01*
X223345Y131613D01*
X222750Y132010D01*
X222047Y132150D01*
X221345Y132010D01*
X220749Y131613D01*
X220352Y131017D01*
X220212Y130315D01*
X220352Y129613D01*
X220749Y129017D01*
X220926Y128900D01*
Y109843D01*
X220926Y109843D01*
X221011Y109413D01*
X221254Y109049D01*
X224831Y105473D01*
X224815Y105412D01*
X224763Y105375D01*
X224263Y105276D01*
X218444Y111094D01*
Y128112D01*
X218621Y128230D01*
X219018Y128825D01*
X219158Y129528D01*
X219018Y130230D01*
X218621Y130825D01*
X218025Y131223D01*
X217323Y131363D01*
X216620Y131223D01*
X216025Y130825D01*
X215627Y130230D01*
X215488Y129528D01*
X215627Y128825D01*
X216025Y128230D01*
X216201Y128112D01*
Y110630D01*
X216201Y110630D01*
X216287Y110201D01*
X216530Y109837D01*
X222500Y103866D01*
Y84150D01*
X222059Y83914D01*
X221962Y83979D01*
X221260Y84119D01*
X220557Y83979D01*
X219962Y83581D01*
X219844Y83405D01*
X202827D01*
X161243Y124989D01*
X161284Y125197D01*
X161144Y125899D01*
X160747Y126495D01*
X160151Y126892D01*
X159449Y127032D01*
X158747Y126892D01*
X158151Y126495D01*
X157753Y125899D01*
X157614Y125197D01*
X157753Y124495D01*
X158151Y123899D01*
X158747Y123501D01*
X159449Y123362D01*
X159657Y123403D01*
X165459Y117600D01*
X165213Y117139D01*
X164961Y117190D01*
X164258Y117050D01*
X163663Y116652D01*
X163265Y116057D01*
X163125Y115354D01*
X163265Y114652D01*
X163663Y114057D01*
X164258Y113659D01*
X164961Y113519D01*
X165168Y113560D01*
X193363Y85366D01*
X193147Y84874D01*
X192605Y84766D01*
X192009Y84369D01*
X191612Y83773D01*
X191472Y83071D01*
X191513Y82863D01*
X189364Y80714D01*
X189121Y80351D01*
X189036Y79921D01*
X189036Y79921D01*
Y29468D01*
X180943D01*
X180825Y29644D01*
X180230Y30042D01*
X179528Y30182D01*
X178825Y30042D01*
X178230Y29644D01*
X177832Y29049D01*
X177692Y28346D01*
X177832Y27644D01*
X178230Y27049D01*
X178825Y26651D01*
X179528Y26511D01*
X180230Y26651D01*
X180825Y27049D01*
X180943Y27225D01*
X189036D01*
Y24803D01*
X189036Y24803D01*
X189121Y24374D01*
X189364Y24010D01*
X196451Y16924D01*
X196815Y16680D01*
X197244Y16595D01*
X197244Y16595D01*
X215320D01*
X222937Y8978D01*
X222937Y8977D01*
X222504Y7931D01*
X222356Y6809D01*
X222504Y5686D01*
X222937Y4640D01*
X223626Y3742D01*
X224524Y3053D01*
X225570Y2619D01*
X226424Y2507D01*
X226391Y2007D01*
X216995D01*
X216962Y2507D01*
X217815Y2619D01*
X218862Y3053D01*
X219760Y3742D01*
X220449Y4640D01*
X220882Y5686D01*
X221030Y6809D01*
X220882Y7931D01*
X220449Y8977D01*
X219760Y9876D01*
X218862Y10565D01*
X217815Y10998D01*
X216693Y11146D01*
X215570Y10998D01*
X214524Y10565D01*
X213626Y9876D01*
X212937Y8977D01*
X212504Y7931D01*
X212356Y6809D01*
X212504Y5686D01*
X212937Y4640D01*
X213626Y3742D01*
X214524Y3053D01*
X215570Y2619D01*
X216424Y2507D01*
X216391Y2007D01*
X206995D01*
X206962Y2507D01*
X207815Y2619D01*
X208861Y3053D01*
X209760Y3742D01*
X210449Y4640D01*
X210882Y5686D01*
X211030Y6809D01*
X210882Y7931D01*
X210449Y8977D01*
X209760Y9876D01*
X208861Y10565D01*
X207815Y10998D01*
X206693Y11146D01*
X205570Y10998D01*
X204524Y10565D01*
X203626Y9876D01*
X202937Y8977D01*
X202504Y7931D01*
X202356Y6809D01*
X202504Y5686D01*
X202937Y4640D01*
X203626Y3742D01*
X204524Y3053D01*
X205570Y2619D01*
X206424Y2507D01*
X206391Y2007D01*
X198689D01*
X198590Y2507D01*
X199063Y2703D01*
X200045Y3457D01*
X200798Y4438D01*
X201272Y5582D01*
X201368Y6309D01*
X196693D01*
X192018D01*
X192114Y5582D01*
X192587Y4438D01*
X193341Y3457D01*
X194323Y2703D01*
X194796Y2507D01*
X194697Y2007D01*
X188689D01*
X188590Y2507D01*
X189063Y2703D01*
X190045Y3457D01*
X190798Y4438D01*
X191272Y5582D01*
X191368Y6309D01*
X186693D01*
X182018D01*
X182114Y5582D01*
X182588Y4438D01*
X183341Y3457D01*
X184323Y2703D01*
X184796Y2507D01*
X184697Y2007D01*
X81752D01*
X81752Y29837D01*
X99856D01*
X99856Y29837D01*
X100285Y29922D01*
X100649Y30165D01*
X122627Y52143D01*
X122835Y52102D01*
X123537Y52241D01*
X124132Y52639D01*
X124247Y52810D01*
X124747Y52659D01*
Y20866D01*
X124871Y20242D01*
X125030Y20004D01*
X125076Y19770D01*
X125474Y19175D01*
X126069Y18777D01*
X126772Y18637D01*
X127474Y18777D01*
X128069Y19175D01*
X128467Y19770D01*
X128607Y20472D01*
X128467Y21175D01*
X128069Y21770D01*
X128009Y21810D01*
Y72546D01*
X128074Y72642D01*
X128213Y73344D01*
X128074Y74046D01*
X127676Y74642D01*
X127080Y75040D01*
X126378Y75179D01*
X125676Y75040D01*
X125080Y74642D01*
X124682Y74046D01*
X124543Y73344D01*
X124682Y72642D01*
X124747Y72546D01*
Y55216D01*
X124247Y55064D01*
X124132Y55235D01*
X123537Y55633D01*
X122835Y55772D01*
X122132Y55633D01*
X121537Y55235D01*
X121139Y54639D01*
X120999Y53937D01*
X121041Y53729D01*
X99391Y32080D01*
X81752D01*
Y37122D01*
X81939Y37248D01*
X82252Y37344D01*
X82762Y37003D01*
X83465Y36863D01*
X84167Y37003D01*
X84762Y37401D01*
X85160Y37996D01*
X85300Y38698D01*
X85160Y39401D01*
X84762Y39996D01*
X84167Y40394D01*
X83465Y40534D01*
X83118Y40465D01*
X82618Y40853D01*
Y62714D01*
X82618Y62714D01*
X82532Y63143D01*
X82289Y63507D01*
X82289Y63507D01*
X82109Y63687D01*
X82150Y63895D01*
X82011Y64598D01*
X81633Y65162D01*
Y88327D01*
X100787D01*
X101247Y88517D01*
X128412Y115682D01*
X128602Y116142D01*
Y140741D01*
X128683Y140863D01*
X128924Y141034D01*
X129102Y141083D01*
X273584Y141083D01*
Y13742D01*
D02*
G37*
G36*
X127165Y172441D02*
X240158Y172441D01*
X240158Y162992D01*
X127953D01*
Y140945D01*
Y116142D01*
X100787Y88976D01*
X81633D01*
Y100787D01*
X90945Y100787D01*
X108661Y118504D01*
Y140945D01*
X108661Y171653D01*
X108661D01*
X108661Y184252D01*
X127165D01*
X127165Y172441D01*
D02*
G37*
%LPC*%
G36*
X226992Y186356D02*
X220693D01*
X220234Y186165D01*
X220043Y185706D01*
Y178305D01*
X220234Y177846D01*
X220693Y177655D01*
X226992D01*
X227451Y177846D01*
X227642Y178305D01*
Y185706D01*
X227451Y186165D01*
X226992Y186356D01*
D02*
G37*
G36*
X173843D02*
X167543D01*
X167084Y186165D01*
X166894Y185706D01*
Y178305D01*
X167084Y177846D01*
X167543Y177655D01*
X173843D01*
X174302Y177846D01*
X174492Y178305D01*
Y185706D01*
X174302Y186165D01*
X173843Y186356D01*
D02*
G37*
G36*
X212598Y186339D02*
X211620Y186210D01*
X210707Y185832D01*
X209924Y185231D01*
X209323Y184448D01*
X208945Y183536D01*
X208817Y182557D01*
Y181454D01*
X208945Y180475D01*
X209323Y179563D01*
X209924Y178780D01*
X210707Y178179D01*
X211620Y177801D01*
X212598Y177672D01*
X213577Y177801D01*
X214489Y178179D01*
X215273Y178780D01*
X215874Y179563D01*
X216251Y180475D01*
X216380Y181454D01*
Y182557D01*
X216251Y183536D01*
X215874Y184448D01*
X215273Y185231D01*
X214489Y185832D01*
X213577Y186210D01*
X212598Y186339D01*
D02*
G37*
G36*
X159449D02*
X158470Y186210D01*
X157558Y185832D01*
X156775Y185231D01*
X156174Y184448D01*
X155796Y183536D01*
X155667Y182557D01*
Y181454D01*
X155796Y180475D01*
X156174Y179563D01*
X156775Y178780D01*
X157558Y178179D01*
X158470Y177801D01*
X159449Y177672D01*
X160428Y177801D01*
X161340Y178179D01*
X162123Y178780D01*
X162724Y179563D01*
X163102Y180475D01*
X163231Y181454D01*
Y182557D01*
X163102Y183536D01*
X162724Y184448D01*
X162123Y185231D01*
X161340Y185832D01*
X160428Y186210D01*
X159449Y186339D01*
D02*
G37*
G36*
X48339Y58581D02*
X47660Y58491D01*
X47027Y58229D01*
X46484Y57813D01*
X46068Y57270D01*
X45805Y56637D01*
X45716Y55958D01*
X45805Y55279D01*
X46068Y54647D01*
X46484Y54104D01*
X47027Y53687D01*
X47660Y53425D01*
X48339Y53336D01*
X49017Y53425D01*
X49650Y53687D01*
X50193Y54104D01*
X50610Y54647D01*
X50872Y55279D01*
X50961Y55958D01*
X50872Y56637D01*
X50610Y57270D01*
X50193Y57813D01*
X49650Y58229D01*
X49017Y58491D01*
X48339Y58581D01*
D02*
G37*
G36*
X41339Y62581D02*
X40660Y62491D01*
X40027Y62229D01*
X39484Y61813D01*
X39068Y61269D01*
X38805Y60637D01*
X38716Y59958D01*
X38805Y59280D01*
X39068Y58647D01*
X39484Y58104D01*
X40027Y57687D01*
X40660Y57425D01*
X41339Y57336D01*
X42017Y57425D01*
X42650Y57687D01*
X43193Y58104D01*
X43610Y58647D01*
X43872Y59280D01*
X43961Y59958D01*
X43872Y60637D01*
X43610Y61269D01*
X43193Y61813D01*
X42650Y62229D01*
X42017Y62491D01*
X41339Y62581D01*
D02*
G37*
G36*
X42339Y46608D02*
X40339D01*
X39879Y46417D01*
X38879Y45417D01*
X38689Y44958D01*
Y42958D01*
X38879Y42499D01*
X39879Y41499D01*
X40339Y41309D01*
X42339D01*
X42798Y41499D01*
X43798Y42499D01*
X43988Y42958D01*
Y44958D01*
X43798Y45417D01*
X42798Y46417D01*
X42663Y46473D01*
X42339Y46608D01*
D02*
G37*
G36*
X41339Y54581D02*
X40660Y54491D01*
X40027Y54229D01*
X39484Y53813D01*
X39068Y53269D01*
X38805Y52637D01*
X38716Y51958D01*
X38805Y51279D01*
X39068Y50647D01*
X39484Y50104D01*
X40027Y49687D01*
X40660Y49425D01*
X41339Y49336D01*
X42017Y49425D01*
X42650Y49687D01*
X43193Y50104D01*
X43610Y50647D01*
X43872Y51279D01*
X43961Y51958D01*
X43872Y52637D01*
X43610Y53269D01*
X43193Y53813D01*
X42650Y54229D01*
X42017Y54491D01*
X41339Y54581D01*
D02*
G37*
G36*
X48339Y66581D02*
X47660Y66491D01*
X47027Y66229D01*
X46484Y65813D01*
X46068Y65270D01*
X45805Y64637D01*
X45716Y63958D01*
X45805Y63279D01*
X46068Y62647D01*
X46484Y62104D01*
X47027Y61687D01*
X47660Y61425D01*
X48339Y61336D01*
X49017Y61425D01*
X49650Y61687D01*
X50193Y62104D01*
X50610Y62647D01*
X50872Y63279D01*
X50961Y63958D01*
X50872Y64637D01*
X50610Y65270D01*
X50193Y65813D01*
X49650Y66229D01*
X49017Y66491D01*
X48339Y66581D01*
D02*
G37*
G36*
X47791Y32513D02*
X41886D01*
X41427Y32323D01*
X38474Y29370D01*
X38284Y28911D01*
Y23006D01*
X38474Y22546D01*
X41427Y19593D01*
X41886Y19403D01*
X47791D01*
X48250Y19593D01*
X51203Y22546D01*
X51394Y23006D01*
Y28911D01*
X51203Y29370D01*
X48250Y32323D01*
X47791Y32513D01*
D02*
G37*
G36*
X31339Y40344D02*
X29898Y40202D01*
X28512Y39782D01*
X27235Y39099D01*
X26116Y38181D01*
X25198Y37062D01*
X24515Y35785D01*
X24095Y34399D01*
X23953Y32958D01*
X24095Y31517D01*
X24515Y30132D01*
X25198Y28855D01*
X26116Y27736D01*
X27235Y26817D01*
X28512Y26135D01*
X29898Y25715D01*
X31339Y25573D01*
X32779Y25715D01*
X34165Y26135D01*
X35442Y26817D01*
X36561Y27736D01*
X37479Y28855D01*
X38162Y30132D01*
X38582Y31517D01*
X38724Y32958D01*
X38582Y34399D01*
X38162Y35785D01*
X37479Y37062D01*
X36561Y38181D01*
X35442Y39099D01*
X34165Y39782D01*
X32779Y40202D01*
X31339Y40344D01*
D02*
G37*
G36*
X68889Y43708D02*
X65789D01*
X65329Y43518D01*
X63779Y41967D01*
X63589Y41508D01*
Y38408D01*
X63779Y37949D01*
X65329Y36399D01*
X65789Y36209D01*
X68889D01*
X69348Y36399D01*
X70898Y37949D01*
X71088Y38408D01*
Y41508D01*
X70898Y41967D01*
X69348Y43518D01*
X68889Y43708D01*
D02*
G37*
G36*
X47791Y175379D02*
X41886D01*
X41427Y175189D01*
X38474Y172236D01*
X38284Y171777D01*
Y165872D01*
X38474Y165412D01*
X41427Y162460D01*
X41886Y162269D01*
X47791D01*
X48250Y162460D01*
X51203Y165412D01*
X51394Y165872D01*
Y171777D01*
X51203Y172236D01*
X48250Y175189D01*
X47791Y175379D01*
D02*
G37*
G36*
X68889Y167574D02*
X65789D01*
X65329Y167384D01*
X63779Y165834D01*
X63589Y165374D01*
Y162274D01*
X63779Y161815D01*
X65329Y160265D01*
X65789Y160075D01*
X68889D01*
X69348Y160265D01*
X70898Y161815D01*
X71088Y162274D01*
Y165374D01*
X70898Y165834D01*
X69348Y167384D01*
X68889Y167574D01*
D02*
G37*
G36*
X67339Y158556D02*
X66373Y158429D01*
X65473Y158056D01*
X64700Y157463D01*
X64107Y156690D01*
X63734Y155790D01*
X63607Y154824D01*
X63734Y153858D01*
X64107Y152958D01*
X64700Y152185D01*
X65473Y151593D01*
X66373Y151220D01*
X67339Y151093D01*
X68305Y151220D01*
X69204Y151593D01*
X69977Y152185D01*
X70570Y152958D01*
X70943Y153858D01*
X71070Y154824D01*
X70943Y155790D01*
X70570Y156690D01*
X69977Y157463D01*
X69204Y158056D01*
X68305Y158429D01*
X67339Y158556D01*
D02*
G37*
G36*
X31339Y169210D02*
X29898Y169068D01*
X28512Y168648D01*
X27235Y167965D01*
X26116Y167047D01*
X25198Y165928D01*
X24515Y164651D01*
X24095Y163265D01*
X23953Y161824D01*
X24095Y160384D01*
X24515Y158998D01*
X25198Y157721D01*
X26116Y156602D01*
X27235Y155684D01*
X28512Y155001D01*
X29898Y154581D01*
X31339Y154439D01*
X32779Y154581D01*
X34165Y155001D01*
X35442Y155684D01*
X36561Y156602D01*
X37479Y157721D01*
X38162Y158998D01*
X38582Y160384D01*
X38724Y161824D01*
X38582Y163265D01*
X38162Y164651D01*
X37479Y165928D01*
X36561Y167047D01*
X35442Y167965D01*
X34165Y168648D01*
X32779Y169068D01*
X31339Y169210D01*
D02*
G37*
G36*
Y119210D02*
X29898Y119068D01*
X28512Y118648D01*
X27235Y117965D01*
X26116Y117047D01*
X25198Y115928D01*
X24515Y114651D01*
X24095Y113265D01*
X23953Y111824D01*
X24095Y110384D01*
X24515Y108998D01*
X25198Y107721D01*
X26116Y106602D01*
X27235Y105684D01*
X28512Y105001D01*
X29898Y104581D01*
X31339Y104439D01*
X32779Y104581D01*
X34165Y105001D01*
X35442Y105684D01*
X36561Y106602D01*
X37479Y107721D01*
X38162Y108998D01*
X38582Y110384D01*
X38724Y111824D01*
X38582Y113265D01*
X38162Y114651D01*
X37479Y115928D01*
X36561Y117047D01*
X35442Y117965D01*
X34165Y118648D01*
X32779Y119068D01*
X31339Y119210D01*
D02*
G37*
G36*
Y90344D02*
X29898Y90202D01*
X28512Y89782D01*
X27235Y89099D01*
X26116Y88181D01*
X25198Y87062D01*
X24515Y85785D01*
X24095Y84399D01*
X23953Y82958D01*
X24095Y81517D01*
X24515Y80132D01*
X25198Y78855D01*
X26116Y77736D01*
X27235Y76817D01*
X28512Y76135D01*
X29898Y75715D01*
X31339Y75573D01*
X32779Y75715D01*
X34165Y76135D01*
X35442Y76817D01*
X36561Y77736D01*
X37479Y78855D01*
X38162Y80132D01*
X38582Y81517D01*
X38724Y82958D01*
X38582Y84399D01*
X38162Y85785D01*
X37479Y87062D01*
X36561Y88181D01*
X35442Y89099D01*
X34165Y89782D01*
X32779Y90202D01*
X31339Y90344D01*
D02*
G37*
G36*
X47791Y96513D02*
X41886D01*
X41427Y96323D01*
X38474Y93370D01*
X38284Y92911D01*
Y87006D01*
X38474Y86546D01*
X41427Y83593D01*
X41886Y83403D01*
X47791D01*
X48250Y83593D01*
X51203Y86546D01*
X51394Y87006D01*
Y92911D01*
X51203Y93370D01*
X48250Y96323D01*
X47791Y96513D01*
D02*
G37*
G36*
Y111379D02*
X41886D01*
X41427Y111189D01*
X38474Y108236D01*
X38284Y107777D01*
Y101872D01*
X38474Y101412D01*
X41427Y98460D01*
X41886Y98269D01*
X47791D01*
X48250Y98460D01*
X51203Y101412D01*
X51394Y101872D01*
Y107777D01*
X51203Y108236D01*
X48250Y111189D01*
X47791Y111379D01*
D02*
G37*
G36*
X167717Y50376D02*
X167014Y50236D01*
X166419Y49839D01*
X166301Y49663D01*
X144329D01*
X144211Y49839D01*
X143616Y50236D01*
X142913Y50376D01*
X142211Y50236D01*
X141616Y49839D01*
X141218Y49243D01*
X141078Y48541D01*
X141218Y47839D01*
X141616Y47243D01*
X142211Y46845D01*
X142913Y46706D01*
X143616Y46845D01*
X144211Y47243D01*
X144329Y47419D01*
X156769D01*
X156921Y46919D01*
X156576Y46689D01*
X156178Y46094D01*
X156039Y45391D01*
X155990Y45332D01*
X144329D01*
X144211Y45508D01*
X143616Y45906D01*
X142913Y46046D01*
X142211Y45906D01*
X141616Y45508D01*
X141218Y44913D01*
X141078Y44210D01*
X141218Y43508D01*
X141616Y42913D01*
X142211Y42515D01*
X142913Y42375D01*
X143616Y42515D01*
X144211Y42913D01*
X144329Y43089D01*
X157087D01*
X157087Y43089D01*
X157516Y43174D01*
X157880Y43417D01*
X158054Y43592D01*
X158576Y43696D01*
X159172Y44094D01*
X159570Y44689D01*
X159709Y45391D01*
X159570Y46094D01*
X159172Y46689D01*
X158827Y46919D01*
X158979Y47419D01*
X166301D01*
X166419Y47243D01*
X167014Y46845D01*
X167717Y46706D01*
X168419Y46845D01*
X169014Y47243D01*
X169412Y47839D01*
X169552Y48541D01*
X169412Y49243D01*
X169014Y49839D01*
X168419Y50236D01*
X167717Y50376D01*
D02*
G37*
G36*
X256980Y61427D02*
X253758D01*
X253821Y60946D01*
X254200Y60033D01*
X254802Y59248D01*
X255586Y58646D01*
X256500Y58268D01*
X256980Y58204D01*
Y61427D01*
D02*
G37*
G36*
X257980Y65649D02*
Y62427D01*
X261203D01*
X261140Y62907D01*
X260761Y63821D01*
X260159Y64605D01*
X259374Y65208D01*
X258461Y65586D01*
X257980Y65649D01*
D02*
G37*
G36*
X260236Y73206D02*
X254724D01*
X254265Y73016D01*
X254075Y72557D01*
Y67045D01*
X254265Y66586D01*
X254724Y66395D01*
X260236D01*
X260695Y66586D01*
X260886Y67045D01*
Y72557D01*
X260695Y73016D01*
X260236Y73206D01*
D02*
G37*
G36*
X256980Y65649D02*
X256500Y65586D01*
X255586Y65208D01*
X254802Y64605D01*
X254200Y63821D01*
X253821Y62907D01*
X253758Y62427D01*
X256980D01*
Y65649D01*
D02*
G37*
G36*
X261203Y61427D02*
X257980D01*
Y58204D01*
X258461Y58268D01*
X259374Y58646D01*
X260159Y59248D01*
X260761Y60033D01*
X261140Y60946D01*
X261203Y61427D01*
D02*
G37*
G36*
X212598Y76638D02*
X211896Y76499D01*
X211301Y76101D01*
X210903Y75506D01*
X210763Y74803D01*
X210903Y74101D01*
X211301Y73505D01*
X211896Y73108D01*
X212598Y72968D01*
X212806Y73009D01*
X244760Y41055D01*
X244760Y41055D01*
X245124Y40812D01*
X245554Y40727D01*
X254469D01*
Y38698D01*
X254659Y38239D01*
X255118Y38049D01*
X260630D01*
X261089Y38239D01*
X261279Y38698D01*
Y44210D01*
X261089Y44669D01*
X260630Y44860D01*
X255118D01*
X254659Y44669D01*
X254469Y44210D01*
Y42970D01*
X246018D01*
X214392Y74595D01*
X214434Y74803D01*
X214294Y75506D01*
X213896Y76101D01*
X213301Y76499D01*
X212598Y76638D01*
D02*
G37*
G36*
X197193Y11483D02*
Y7309D01*
X201368D01*
X201272Y8036D01*
X200798Y9179D01*
X200045Y10161D01*
X199063Y10914D01*
X197920Y11388D01*
X197193Y11483D01*
D02*
G37*
G36*
X187193D02*
Y7309D01*
X191368D01*
X191272Y8036D01*
X190798Y9179D01*
X190045Y10161D01*
X189063Y10914D01*
X187920Y11388D01*
X187193Y11483D01*
D02*
G37*
G36*
X186193Y11483D02*
X185466Y11388D01*
X184323Y10914D01*
X183341Y10161D01*
X182588Y9179D01*
X182114Y8036D01*
X182018Y7309D01*
X186193D01*
Y11483D01*
D02*
G37*
G36*
X196193D02*
X195466Y11388D01*
X194323Y10914D01*
X193341Y10161D01*
X192587Y9179D01*
X192114Y8036D01*
X192018Y7309D01*
X196193D01*
Y11483D01*
D02*
G37*
G36*
X258374Y37303D02*
Y34080D01*
X261596D01*
X261533Y34561D01*
X261155Y35475D01*
X260553Y36259D01*
X259768Y36861D01*
X258855Y37240D01*
X258374Y37303D01*
D02*
G37*
G36*
X257374Y37303D02*
X256893Y37240D01*
X255980Y36861D01*
X255195Y36259D01*
X254593Y35475D01*
X254215Y34561D01*
X254152Y34080D01*
X257374D01*
Y37303D01*
D02*
G37*
G36*
X261596Y33080D02*
X258374D01*
Y29858D01*
X258855Y29921D01*
X259768Y30299D01*
X260553Y30902D01*
X261155Y31686D01*
X261533Y32600D01*
X261596Y33080D01*
D02*
G37*
G36*
X257374D02*
X254152D01*
X254215Y32600D01*
X254593Y31686D01*
X255195Y30902D01*
X255980Y30299D01*
X256893Y29921D01*
X257374Y29858D01*
Y33080D01*
D02*
G37*
G36*
X257980Y121161D02*
Y117939D01*
X261203D01*
X261140Y118419D01*
X260761Y119333D01*
X260159Y120117D01*
X259374Y120719D01*
X258461Y121098D01*
X257980Y121161D01*
D02*
G37*
G36*
X260236Y128718D02*
X254724D01*
X254265Y128528D01*
X254075Y128068D01*
Y122557D01*
X254265Y122098D01*
X254724Y121907D01*
X260236D01*
X260695Y122098D01*
X260886Y122557D01*
Y128068D01*
X260695Y128528D01*
X260236Y128718D01*
D02*
G37*
G36*
X256980Y121161D02*
X256500Y121098D01*
X255586Y120719D01*
X254802Y120117D01*
X254200Y119333D01*
X253821Y118419D01*
X253758Y117939D01*
X256980D01*
Y121161D01*
D02*
G37*
G36*
X261203Y116939D02*
X257980D01*
Y113716D01*
X258461Y113779D01*
X259374Y114158D01*
X260159Y114760D01*
X260761Y115544D01*
X261140Y116458D01*
X261203Y116939D01*
D02*
G37*
G36*
X256980D02*
X253758D01*
X253821Y116458D01*
X254200Y115544D01*
X254802Y114760D01*
X255586Y114158D01*
X256500Y113779D01*
X256980Y113716D01*
Y116939D01*
D02*
G37*
G36*
X256980Y88986D02*
X253758D01*
X253821Y88505D01*
X254200Y87592D01*
X254802Y86807D01*
X255586Y86205D01*
X256500Y85827D01*
X256980Y85763D01*
Y88986D01*
D02*
G37*
G36*
X261203D02*
X257980D01*
Y85763D01*
X258461Y85827D01*
X259374Y86205D01*
X260159Y86807D01*
X260761Y87592D01*
X261140Y88505D01*
X261203Y88986D01*
D02*
G37*
G36*
X246063Y107347D02*
X245361Y107207D01*
X244765Y106809D01*
X244367Y106214D01*
X244228Y105512D01*
X244367Y104809D01*
X244432Y104713D01*
Y88245D01*
X238594D01*
X238498Y88310D01*
X237795Y88449D01*
X237093Y88310D01*
X236498Y87912D01*
X236100Y87317D01*
X235960Y86614D01*
X236100Y85912D01*
X236498Y85316D01*
X237093Y84919D01*
X237795Y84779D01*
X238498Y84919D01*
X238594Y84983D01*
X244432D01*
Y60393D01*
X244372Y60353D01*
X243974Y59757D01*
X243834Y59055D01*
X243974Y58353D01*
X244372Y57757D01*
X244967Y57360D01*
X245669Y57220D01*
X246372Y57360D01*
X246967Y57757D01*
X247365Y58353D01*
X247413Y58597D01*
X247570Y58831D01*
X247694Y59456D01*
Y86614D01*
X247655Y86811D01*
X247694Y87008D01*
Y104713D01*
X247759Y104809D01*
X247898Y105512D01*
X247759Y106214D01*
X247361Y106809D01*
X246765Y107207D01*
X246063Y107347D01*
D02*
G37*
G36*
X260236Y100765D02*
X254724D01*
X254265Y100575D01*
X254075Y100116D01*
Y94604D01*
X254265Y94145D01*
X254724Y93954D01*
X260236D01*
X260695Y94145D01*
X260886Y94604D01*
Y100116D01*
X260695Y100575D01*
X260236Y100765D01*
D02*
G37*
G36*
X256980Y93208D02*
X256500Y93145D01*
X255586Y92767D01*
X254802Y92165D01*
X254200Y91380D01*
X253821Y90466D01*
X253758Y89986D01*
X256980D01*
Y93208D01*
D02*
G37*
G36*
X257980D02*
Y89986D01*
X261203D01*
X261140Y90466D01*
X260761Y91380D01*
X260159Y92165D01*
X259374Y92767D01*
X258461Y93145D01*
X257980Y93208D01*
D02*
G37*
%LPD*%
D23*
X271654Y35433D02*
Y62992D01*
Y86614D02*
Y118110D01*
X228346Y31496D02*
Y47244D01*
X212598Y31496D02*
Y47244D01*
X196850Y31496D02*
Y47244D01*
X237795Y86614D02*
X246063D01*
X126378Y20866D02*
Y73344D01*
Y20866D02*
X126772Y20472D01*
X192913Y181102D02*
X192913Y181102D01*
X246063Y59456D02*
Y86614D01*
Y87008D02*
Y105512D01*
X245669Y59062D02*
X246063Y59456D01*
X245669Y59055D02*
Y59062D01*
X46787Y126824D02*
X48339D01*
X42787Y122824D02*
X46787Y126824D01*
X41339Y122824D02*
X42787D01*
X57480Y53659D02*
Y124132D01*
X51780Y47958D02*
X57480Y53659D01*
X48339Y47958D02*
X51780D01*
X54787Y126824D02*
X57480Y124132D01*
X48339Y126824D02*
X54787D01*
D24*
X223622Y77165D02*
Y104331D01*
Y77165D02*
X225590Y75197D01*
X99856Y30958D02*
X122835Y53937D01*
X67339Y30958D02*
X99856D01*
X80512Y64092D02*
Y129053D01*
X217323Y110630D02*
Y129528D01*
Y110630D02*
X223622Y104331D01*
X222047Y109843D02*
Y130315D01*
Y109843D02*
X226198Y105691D01*
X190157Y24803D02*
Y28346D01*
Y24803D02*
X197244Y17717D01*
X226198Y85254D02*
Y105691D01*
X159449Y125197D02*
X202362Y82284D01*
X221260D01*
X197244Y17717D02*
X215785D01*
X179528Y28346D02*
X190157D01*
Y79921D01*
X193307Y83071D01*
X215785Y17717D02*
X226693Y6809D01*
X164961Y115354D02*
X212205Y68110D01*
X245554Y41848D02*
X259055D01*
X212598Y74803D02*
X245554Y41848D01*
X142913Y48541D02*
X167717D01*
X157874Y44998D02*
Y45391D01*
X157087Y44210D02*
X157874Y44998D01*
X142913Y44210D02*
X157087D01*
X80315Y63895D02*
X80512Y64092D01*
X66740Y142824D02*
X80512Y129053D01*
X48339Y142824D02*
X66740D01*
X77559Y59958D02*
Y127281D01*
X66016Y138824D02*
X77559Y127281D01*
X41339Y138824D02*
X66016D01*
X74410Y55628D02*
Y126100D01*
X65685Y134824D02*
X74410Y126100D01*
X48339Y134824D02*
X65685D01*
X71652Y51691D02*
Y124133D01*
X64961Y130824D02*
X71652Y124133D01*
X41339Y130824D02*
X64961D01*
X82677Y38698D02*
X83465D01*
X81496Y39880D02*
X82677Y38698D01*
X80315Y63895D02*
X81496Y62714D01*
Y39880D02*
Y62714D01*
D25*
X116535Y177165D02*
D03*
X100787D02*
D03*
D26*
X11811Y185039D02*
D03*
Y11811D02*
D03*
X263779D02*
D03*
Y185039D02*
D03*
D27*
X186693Y6809D02*
D03*
X196693D02*
D03*
X206693D02*
D03*
X216693D02*
D03*
X226693D02*
D03*
D28*
X236693D02*
D03*
D29*
X48339Y126824D02*
D03*
Y134824D02*
D03*
Y142824D02*
D03*
Y150824D02*
D03*
X41339Y146824D02*
D03*
Y130824D02*
D03*
Y138824D02*
D03*
X48339Y47958D02*
D03*
Y55958D02*
D03*
Y63958D02*
D03*
Y71958D02*
D03*
X41339Y67958D02*
D03*
Y51958D02*
D03*
Y59958D02*
D03*
D30*
X44839Y168824D02*
D03*
Y104824D02*
D03*
Y89958D02*
D03*
Y25958D02*
D03*
D31*
X31339Y111824D02*
D03*
Y161824D02*
D03*
Y32958D02*
D03*
Y82958D02*
D03*
D32*
X67339Y109824D02*
D03*
Y154824D02*
D03*
Y30958D02*
D03*
Y75958D02*
D03*
D33*
Y118824D02*
D03*
Y163824D02*
D03*
Y39958D02*
D03*
Y84958D02*
D03*
D34*
X41339Y122824D02*
D03*
Y43958D02*
D03*
D35*
X100984Y137008D02*
D03*
X114764D02*
D03*
D36*
X257874Y33580D02*
D03*
X257480Y61927D02*
D03*
Y89486D02*
D03*
Y117439D02*
D03*
D37*
X257874Y41454D02*
D03*
X257480Y69801D02*
D03*
Y97360D02*
D03*
Y125313D02*
D03*
D38*
X223843Y182006D02*
D03*
X170693D02*
D03*
D39*
X212598D02*
D03*
X159449D02*
D03*
D40*
X88976Y92126D02*
D03*
X175591Y124409D02*
D03*
X149606Y126378D02*
D03*
X244094Y137795D02*
D03*
Y133858D02*
D03*
X149606Y130709D02*
D03*
X144882Y125984D02*
D03*
X149606Y139370D02*
D03*
X248031Y137795D02*
D03*
Y133858D02*
D03*
X236221Y118110D02*
D03*
X196850D02*
D03*
Y137795D02*
D03*
X228346Y31496D02*
D03*
Y47244D02*
D03*
X212598Y31496D02*
D03*
Y47244D02*
D03*
X196850D02*
D03*
Y31496D02*
D03*
X237795Y86614D02*
D03*
X220866Y77559D02*
D03*
X183071Y108268D02*
D03*
Y117323D02*
D03*
X184646Y88583D02*
D03*
X179921Y80315D02*
D03*
X168898Y80709D02*
D03*
X163779Y89370D02*
D03*
Y98819D02*
D03*
Y108661D02*
D03*
X149606Y135039D02*
D03*
X163779Y45669D02*
D03*
X177953Y67323D02*
D03*
X140157Y82284D02*
D03*
Y93307D02*
D03*
X116929Y65354D02*
D03*
X123228Y82284D02*
D03*
Y93307D02*
D03*
X95276Y82677D02*
D03*
X104331D02*
D03*
X122047Y31496D02*
D03*
X133858Y3937D02*
D03*
Y11811D02*
D03*
X122047D02*
D03*
Y3937D02*
D03*
X122835Y53937D02*
D03*
X126772Y20472D02*
D03*
X126378Y73344D02*
D03*
X85433Y92126D02*
D03*
Y95276D02*
D03*
Y98819D02*
D03*
Y118898D02*
D03*
X89370D02*
D03*
X93307D02*
D03*
X90551Y149606D02*
D03*
X86614D02*
D03*
X90551Y153543D02*
D03*
X86614D02*
D03*
Y145669D02*
D03*
X90551D02*
D03*
Y185039D02*
D03*
X86614D02*
D03*
X90551Y188976D02*
D03*
X86614D02*
D03*
Y181102D02*
D03*
X90551D02*
D03*
X137795Y149606D02*
D03*
X133858D02*
D03*
X137795Y153543D02*
D03*
X133858D02*
D03*
Y145669D02*
D03*
X137795D02*
D03*
X244094Y188976D02*
D03*
X248031D02*
D03*
Y185039D02*
D03*
X244094D02*
D03*
Y181102D02*
D03*
X248031D02*
D03*
Y153543D02*
D03*
X244094D02*
D03*
Y149606D02*
D03*
X248031D02*
D03*
Y145669D02*
D03*
X244094D02*
D03*
X190945Y145276D02*
D03*
X187008D02*
D03*
Y149213D02*
D03*
X190945D02*
D03*
Y153150D02*
D03*
X187008D02*
D03*
X187008Y180709D02*
D03*
X190945D02*
D03*
X187008Y184646D02*
D03*
X190945D02*
D03*
Y188583D02*
D03*
X187008D02*
D03*
X137795Y181102D02*
D03*
X133858D02*
D03*
Y188976D02*
D03*
X137795D02*
D03*
X133858Y185039D02*
D03*
X137795D02*
D03*
X88976Y95276D02*
D03*
Y98819D02*
D03*
X217323Y129528D02*
D03*
X230315Y164961D02*
D03*
X237402D02*
D03*
X233858D02*
D03*
X232283Y168110D02*
D03*
X236221D02*
D03*
X179134D02*
D03*
X175197D02*
D03*
X176772Y164961D02*
D03*
X180315D02*
D03*
X173228D02*
D03*
X222047Y130315D02*
D03*
X226198Y85254D02*
D03*
X221260Y82284D02*
D03*
X193307Y83071D02*
D03*
X179528Y28346D02*
D03*
X159449Y125197D02*
D03*
X164961Y115354D02*
D03*
X212205Y68110D02*
D03*
X212598Y74803D02*
D03*
X245669Y59055D02*
D03*
X246063Y105512D02*
D03*
X225590Y75197D02*
D03*
X177165Y52872D02*
D03*
X151181Y52478D02*
D03*
X167717Y48541D02*
D03*
X142913D02*
D03*
X157874Y45391D02*
D03*
X142913Y44210D02*
D03*
X83465Y38698D02*
D03*
X80315Y63895D02*
D03*
X77559Y59958D02*
D03*
X74410Y55628D02*
D03*
X71652Y51691D02*
D03*
D41*
X224016Y150116D02*
D03*
Y145785D02*
D03*
X219685Y150116D02*
D03*
Y145785D02*
D03*
X215354Y150116D02*
D03*
Y145785D02*
D03*
X166791Y149935D02*
D03*
Y145604D02*
D03*
X162461Y149935D02*
D03*
Y145604D02*
D03*
X158130Y149935D02*
D03*
Y145604D02*
D03*
M02*
