G04 Layer_Color=8388736*
%FSLAX25Y25*%
%MOIN*%
G70*
G01*
G75*
%ADD47R,0.03950X0.04540*%
%ADD48R,0.09068X0.13595*%
%ADD49R,0.09068X0.04737*%
%ADD50R,0.04540X0.04147*%
%ADD51O,0.06312X0.02572*%
%ADD52R,0.04540X0.03950*%
%ADD53R,0.13005X0.10249*%
%ADD54O,0.03162X0.06509*%
%ADD55R,0.04147X0.04540*%
%ADD56R,0.05524X0.06312*%
%ADD57R,0.04343X0.04737*%
%ADD58R,0.04737X0.04147*%
%ADD59O,0.08280X0.03162*%
%ADD60C,0.12611*%
%ADD61C,0.18516*%
%ADD62C,0.08200*%
%ADD63R,0.08200X0.08200*%
%ADD64C,0.04800*%
%ADD65P,0.13650X8X292.5*%
%ADD66C,0.14300*%
%ADD67C,0.07000*%
%ADD68P,0.07577X8X292.5*%
%ADD69P,0.05196X8X292.5*%
%ADD70C,0.08674*%
%ADD71C,0.06312*%
%ADD72R,0.06312X0.06312*%
%ADD73R,0.07099X0.08202*%
%ADD74O,0.07099X0.08202*%
%ADD75C,0.01200*%
%ADD76C,0.00787*%
D47*
X117618Y73344D02*
D03*
X112303D02*
D03*
X167815Y66258D02*
D03*
X173130D02*
D03*
X161319D02*
D03*
X156004D02*
D03*
X155610Y52872D02*
D03*
X160925D02*
D03*
X117618Y16258D02*
D03*
X112303D02*
D03*
X173130Y52872D02*
D03*
X167815D02*
D03*
X166831Y59565D02*
D03*
X161516D02*
D03*
D48*
X121843Y104588D02*
D03*
D49*
X98614Y95533D02*
D03*
Y104588D02*
D03*
Y113643D02*
D03*
D50*
X88976Y107382D02*
D03*
Y102067D02*
D03*
X237795Y76476D02*
D03*
Y81791D02*
D03*
X235039Y152362D02*
D03*
Y157677D02*
D03*
X176772Y152756D02*
D03*
Y158071D02*
D03*
X169685Y5332D02*
D03*
Y10647D02*
D03*
X86614Y33088D02*
D03*
Y27773D02*
D03*
X147638Y27773D02*
D03*
Y33088D02*
D03*
D51*
X207283Y90372D02*
D03*
Y87813D02*
D03*
Y85254D02*
D03*
Y82695D02*
D03*
Y80135D02*
D03*
Y77576D02*
D03*
Y75017D02*
D03*
Y72458D02*
D03*
Y69899D02*
D03*
Y67340D02*
D03*
X230512Y90372D02*
D03*
Y87813D02*
D03*
Y85254D02*
D03*
Y82695D02*
D03*
Y80135D02*
D03*
Y77576D02*
D03*
Y75017D02*
D03*
Y72458D02*
D03*
Y69899D02*
D03*
Y67340D02*
D03*
D52*
X245669Y35138D02*
D03*
Y40453D02*
D03*
Y69587D02*
D03*
Y64272D02*
D03*
X246063Y92224D02*
D03*
Y97539D02*
D03*
Y119587D02*
D03*
Y114272D02*
D03*
X144488Y139075D02*
D03*
Y144390D02*
D03*
X234685Y137108D02*
D03*
Y131793D02*
D03*
X169961Y129427D02*
D03*
Y124112D02*
D03*
X161799Y10765D02*
D03*
Y5450D02*
D03*
X151181Y11041D02*
D03*
Y5726D02*
D03*
X86614Y38895D02*
D03*
Y44210D02*
D03*
X188583Y107891D02*
D03*
Y102576D02*
D03*
X196063Y107891D02*
D03*
Y102576D02*
D03*
D53*
X219685Y147950D02*
D03*
X162461Y147769D02*
D03*
D54*
X227185Y158679D02*
D03*
X222185D02*
D03*
X217185D02*
D03*
X212185D02*
D03*
X227185Y137222D02*
D03*
X222185D02*
D03*
X217185D02*
D03*
X212185D02*
D03*
X169961Y158498D02*
D03*
X164961D02*
D03*
X159961D02*
D03*
X154961D02*
D03*
X169961Y137041D02*
D03*
X164961D02*
D03*
X159961D02*
D03*
X154961D02*
D03*
D55*
X177067Y113386D02*
D03*
X171752D02*
D03*
X171358Y88305D02*
D03*
X176673D02*
D03*
X149902Y114902D02*
D03*
X144587D02*
D03*
X192618Y79134D02*
D03*
X197933D02*
D03*
D56*
X177342Y105210D02*
D03*
X170650D02*
D03*
Y96549D02*
D03*
X177342D02*
D03*
D57*
X175787Y19801D02*
D03*
X159646D02*
D03*
X175787Y28462D02*
D03*
X159646D02*
D03*
D58*
X144095Y11139D02*
D03*
Y5628D02*
D03*
D59*
X97441Y63679D02*
D03*
Y58679D02*
D03*
Y53679D02*
D03*
Y48679D02*
D03*
Y43679D02*
D03*
Y38679D02*
D03*
Y33679D02*
D03*
Y28679D02*
D03*
X134843Y63679D02*
D03*
Y58679D02*
D03*
Y53679D02*
D03*
Y48679D02*
D03*
Y43679D02*
D03*
Y38679D02*
D03*
Y33679D02*
D03*
Y28679D02*
D03*
D60*
X116535Y177165D02*
D03*
X100787D02*
D03*
D61*
X11811Y185039D02*
D03*
Y11811D02*
D03*
X263779D02*
D03*
Y185039D02*
D03*
D62*
X186693Y6809D02*
D03*
X196693D02*
D03*
X206693D02*
D03*
X216693D02*
D03*
X226693D02*
D03*
D63*
X236693D02*
D03*
D64*
X48339Y126824D02*
D03*
Y134824D02*
D03*
Y142824D02*
D03*
Y150824D02*
D03*
X41339Y146824D02*
D03*
Y130824D02*
D03*
Y138824D02*
D03*
X48339Y47958D02*
D03*
Y55958D02*
D03*
Y63958D02*
D03*
Y71958D02*
D03*
X41339Y67958D02*
D03*
Y51958D02*
D03*
Y59958D02*
D03*
D65*
X44839Y168824D02*
D03*
Y104824D02*
D03*
Y89958D02*
D03*
Y25958D02*
D03*
D66*
X31339Y111824D02*
D03*
Y161824D02*
D03*
Y32958D02*
D03*
Y82958D02*
D03*
D67*
X67339Y109824D02*
D03*
Y154824D02*
D03*
Y30958D02*
D03*
Y75958D02*
D03*
D68*
Y118824D02*
D03*
Y163824D02*
D03*
Y39958D02*
D03*
Y84958D02*
D03*
D69*
X41339Y122824D02*
D03*
Y43958D02*
D03*
D70*
X100984Y137008D02*
D03*
X114764D02*
D03*
D71*
X257874Y33580D02*
D03*
X257480Y61927D02*
D03*
Y89486D02*
D03*
Y117439D02*
D03*
D72*
X257874Y41454D02*
D03*
X257480Y69801D02*
D03*
Y97360D02*
D03*
Y125313D02*
D03*
D73*
X223843Y182006D02*
D03*
X170693D02*
D03*
D74*
X212598D02*
D03*
X159449D02*
D03*
D75*
X88976Y92126D02*
D03*
X175591Y124409D02*
D03*
X149606Y126378D02*
D03*
X244094Y137795D02*
D03*
Y133858D02*
D03*
X149606Y130709D02*
D03*
X144882Y125984D02*
D03*
X149606Y139370D02*
D03*
X248031Y137795D02*
D03*
Y133858D02*
D03*
X236221Y118110D02*
D03*
X196850D02*
D03*
Y137795D02*
D03*
X228346Y31496D02*
D03*
Y47244D02*
D03*
X212598Y31496D02*
D03*
Y47244D02*
D03*
X196850D02*
D03*
Y31496D02*
D03*
X237795Y86614D02*
D03*
X220866Y77559D02*
D03*
X183071Y108268D02*
D03*
Y117323D02*
D03*
X184646Y88583D02*
D03*
X179921Y80315D02*
D03*
X168898Y80709D02*
D03*
X163779Y89370D02*
D03*
Y98819D02*
D03*
Y108661D02*
D03*
X149606Y135039D02*
D03*
X163779Y45669D02*
D03*
X177953Y67323D02*
D03*
X140157Y82284D02*
D03*
Y93307D02*
D03*
X116929Y65354D02*
D03*
X123228Y82284D02*
D03*
Y93307D02*
D03*
X95276Y82677D02*
D03*
X104331D02*
D03*
X122047Y31496D02*
D03*
X133858Y3937D02*
D03*
Y11811D02*
D03*
X122047D02*
D03*
Y3937D02*
D03*
X122835Y53937D02*
D03*
X126772Y20472D02*
D03*
X126378Y73344D02*
D03*
X85433Y92126D02*
D03*
Y95276D02*
D03*
Y98819D02*
D03*
Y118898D02*
D03*
X89370D02*
D03*
X93307D02*
D03*
X90551Y149606D02*
D03*
X86614D02*
D03*
X90551Y153543D02*
D03*
X86614D02*
D03*
Y145669D02*
D03*
X90551D02*
D03*
Y185039D02*
D03*
X86614D02*
D03*
X90551Y188976D02*
D03*
X86614D02*
D03*
Y181102D02*
D03*
X90551D02*
D03*
X137795Y149606D02*
D03*
X133858D02*
D03*
X137795Y153543D02*
D03*
X133858D02*
D03*
Y145669D02*
D03*
X137795D02*
D03*
X244094Y188976D02*
D03*
X248031D02*
D03*
Y185039D02*
D03*
X244094D02*
D03*
Y181102D02*
D03*
X248031D02*
D03*
Y153543D02*
D03*
X244094D02*
D03*
Y149606D02*
D03*
X248031D02*
D03*
Y145669D02*
D03*
X244094D02*
D03*
X190945Y145276D02*
D03*
X187008D02*
D03*
Y149213D02*
D03*
X190945D02*
D03*
Y153150D02*
D03*
X187008D02*
D03*
X187008Y180709D02*
D03*
X190945D02*
D03*
X187008Y184646D02*
D03*
X190945D02*
D03*
Y188583D02*
D03*
X187008D02*
D03*
X137795Y181102D02*
D03*
X133858D02*
D03*
Y188976D02*
D03*
X137795D02*
D03*
X133858Y185039D02*
D03*
X137795D02*
D03*
X88976Y95276D02*
D03*
Y98819D02*
D03*
X217323Y129528D02*
D03*
X230315Y164961D02*
D03*
X237402D02*
D03*
X233858D02*
D03*
X232283Y168110D02*
D03*
X236221D02*
D03*
X179134D02*
D03*
X175197D02*
D03*
X176772Y164961D02*
D03*
X180315D02*
D03*
X173228D02*
D03*
X222047Y130315D02*
D03*
X226198Y85254D02*
D03*
X221260Y82284D02*
D03*
X193307Y83071D02*
D03*
X179528Y28346D02*
D03*
X159449Y125197D02*
D03*
X164961Y115354D02*
D03*
X212205Y68110D02*
D03*
X212598Y74803D02*
D03*
X245669Y59055D02*
D03*
X246063Y105512D02*
D03*
X225590Y75197D02*
D03*
X177165Y52872D02*
D03*
X151181Y52478D02*
D03*
X167717Y48541D02*
D03*
X142913D02*
D03*
X157874Y45391D02*
D03*
X142913Y44210D02*
D03*
X83465Y38698D02*
D03*
X80315Y63895D02*
D03*
X77559Y59958D02*
D03*
X74410Y55628D02*
D03*
X71652Y51691D02*
D03*
D76*
X224016Y150116D02*
D03*
Y145785D02*
D03*
X219685Y150116D02*
D03*
Y145785D02*
D03*
X215354Y150116D02*
D03*
Y145785D02*
D03*
X166791Y149935D02*
D03*
Y145604D02*
D03*
X162461Y149935D02*
D03*
Y145604D02*
D03*
X158130Y149935D02*
D03*
Y145604D02*
D03*
M02*
