G04 Layer_Color=2752767*
%FSLAX25Y25*%
%MOIN*%
G70*
G01*
G75*
%ADD80C,0.00200*%
%ADD81C,0.00267*%
%ADD82C,0.00133*%
D80*
X115735Y176365D02*
Y177965D01*
X117335D01*
Y176365D01*
X115735D01*
X99987D02*
Y177965D01*
X101587D01*
Y176365D01*
X99987D01*
X186693Y6009D02*
X185893Y7609D01*
X187493D01*
X186693Y6009D01*
X196693D02*
X195893Y7609D01*
X197493D01*
X196693Y6009D01*
X206693D02*
X205893Y7609D01*
X207493D01*
X206693Y6009D01*
X216693D02*
X215893Y7609D01*
X217493D01*
X216693Y6009D01*
X226693D02*
X225893Y7609D01*
X227493D01*
X226693Y6009D01*
X236693D02*
X235893Y7609D01*
X237493D01*
X236693Y6009D01*
X48339Y126024D02*
X48739Y126424D01*
X49139D01*
X48739Y126824D01*
X49139Y127224D01*
X48739D01*
X48339Y127624D01*
X47939Y127224D01*
X47539D01*
X47939Y126824D01*
X47539Y126424D01*
X47939D01*
X48339Y126024D01*
Y134024D02*
X48739Y134424D01*
X49139D01*
X48739Y134824D01*
X49139Y135224D01*
X48739D01*
X48339Y135624D01*
X47939Y135224D01*
X47539D01*
X47939Y134824D01*
X47539Y134424D01*
X47939D01*
X48339Y134024D01*
Y142024D02*
X48739Y142424D01*
X49139D01*
X48739Y142824D01*
X49139Y143224D01*
X48739D01*
X48339Y143624D01*
X47939Y143224D01*
X47539D01*
X47939Y142824D01*
X47539Y142424D01*
X47939D01*
X48339Y142024D01*
Y150024D02*
X48739Y150424D01*
X49139D01*
X48739Y150824D01*
X49139Y151224D01*
X48739D01*
X48339Y151624D01*
X47939Y151224D01*
X47539D01*
X47939Y150824D01*
X47539Y150424D01*
X47939D01*
X48339Y150024D01*
X41339Y146024D02*
X41739Y146424D01*
X42139D01*
X41739Y146824D01*
X42139Y147224D01*
X41739D01*
X41339Y147624D01*
X40939Y147224D01*
X40539D01*
X40939Y146824D01*
X40539Y146424D01*
X40939D01*
X41339Y146024D01*
Y130024D02*
X41739Y130424D01*
X42139D01*
X41739Y130824D01*
X42139Y131224D01*
X41739D01*
X41339Y131624D01*
X40939Y131224D01*
X40539D01*
X40939Y130824D01*
X40539Y130424D01*
X40939D01*
X41339Y130024D01*
X44039Y168024D02*
X44439Y168824D01*
X44039Y169624D01*
X44839Y169224D01*
X45639Y169624D01*
X45239Y168824D01*
X45639Y168024D01*
X44839Y168424D01*
X44039Y168024D01*
Y104024D02*
X44439Y104824D01*
X44039Y105624D01*
X44839Y105224D01*
X45639Y105624D01*
X45239Y104824D01*
X45639Y104024D01*
X44839Y104424D01*
X44039Y104024D01*
X30939Y111424D02*
Y111024D01*
X31739D01*
Y111424D01*
X32139D01*
Y112224D01*
X31739D01*
Y112624D01*
X30939D01*
Y112224D01*
X30539D01*
Y111424D01*
X30939D01*
Y161424D02*
Y161024D01*
X31739D01*
Y161424D01*
X32139D01*
Y162224D01*
X31739D01*
Y162624D01*
X30939D01*
Y162224D01*
X30539D01*
Y161424D01*
X30939D01*
X66539Y109024D02*
X66939D01*
X67339Y109424D01*
X67739Y109024D01*
X68139D01*
Y109424D01*
X67739Y109824D01*
X68139Y110224D01*
Y110624D01*
X67739D01*
X67339Y110224D01*
X66939Y110624D01*
X66539D01*
Y110224D01*
X66939Y109824D01*
X66539Y109424D01*
Y109024D01*
Y118024D02*
X66939D01*
X67339Y118424D01*
X67739Y118024D01*
X68139D01*
Y118424D01*
X67739Y118824D01*
X68139Y119224D01*
Y119624D01*
X67739D01*
X67339Y119224D01*
X66939Y119624D01*
X66539D01*
Y119224D01*
X66939Y118824D01*
X66539Y118424D01*
Y118024D01*
X41339Y138024D02*
X41739Y138424D01*
X42139D01*
X41739Y138824D01*
X42139Y139224D01*
X41739D01*
X41339Y139624D01*
X40939Y139224D01*
X40539D01*
X40939Y138824D01*
X40539Y138424D01*
X40939D01*
X41339Y138024D01*
X66539Y163024D02*
X66939D01*
X67339Y163424D01*
X67739Y163024D01*
X68139D01*
Y163424D01*
X67739Y163824D01*
X68139Y164224D01*
Y164624D01*
X67739D01*
X67339Y164224D01*
X66939Y164624D01*
X66539D01*
Y164224D01*
X66939Y163824D01*
X66539Y163424D01*
Y163024D01*
Y154024D02*
X66939D01*
X67339Y154424D01*
X67739Y154024D01*
X68139D01*
Y154424D01*
X67739Y154824D01*
X68139Y155224D01*
Y155624D01*
X67739D01*
X67339Y155224D01*
X66939Y155624D01*
X66539D01*
Y155224D01*
X66939Y154824D01*
X66539Y154424D01*
Y154024D01*
X41339Y122024D02*
X41739Y122424D01*
X42139D01*
X41739Y122824D01*
X42139Y123224D01*
X41739D01*
X41339Y123624D01*
X40939Y123224D01*
X40539D01*
X40939Y122824D01*
X40539Y122424D01*
X40939D01*
X41339Y122024D01*
X48339Y47158D02*
X48739Y47558D01*
X49139D01*
X48739Y47958D01*
X49139Y48358D01*
X48739D01*
X48339Y48758D01*
X47939Y48358D01*
X47539D01*
X47939Y47958D01*
X47539Y47558D01*
X47939D01*
X48339Y47158D01*
Y55158D02*
X48739Y55558D01*
X49139D01*
X48739Y55958D01*
X49139Y56358D01*
X48739D01*
X48339Y56758D01*
X47939Y56358D01*
X47539D01*
X47939Y55958D01*
X47539Y55558D01*
X47939D01*
X48339Y55158D01*
Y63158D02*
X48739Y63558D01*
X49139D01*
X48739Y63958D01*
X49139Y64358D01*
X48739D01*
X48339Y64758D01*
X47939Y64358D01*
X47539D01*
X47939Y63958D01*
X47539Y63558D01*
X47939D01*
X48339Y63158D01*
Y71158D02*
X48739Y71558D01*
X49139D01*
X48739Y71958D01*
X49139Y72358D01*
X48739D01*
X48339Y72758D01*
X47939Y72358D01*
X47539D01*
X47939Y71958D01*
X47539Y71558D01*
X47939D01*
X48339Y71158D01*
X41339Y67158D02*
X41739Y67558D01*
X42139D01*
X41739Y67958D01*
X42139Y68358D01*
X41739D01*
X41339Y68758D01*
X40939Y68358D01*
X40539D01*
X40939Y67958D01*
X40539Y67558D01*
X40939D01*
X41339Y67158D01*
Y51158D02*
X41739Y51558D01*
X42139D01*
X41739Y51958D01*
X42139Y52358D01*
X41739D01*
X41339Y52758D01*
X40939Y52358D01*
X40539D01*
X40939Y51958D01*
X40539Y51558D01*
X40939D01*
X41339Y51158D01*
X44039Y89158D02*
X44439Y89958D01*
X44039Y90758D01*
X44839Y90358D01*
X45639Y90758D01*
X45239Y89958D01*
X45639Y89158D01*
X44839Y89558D01*
X44039Y89158D01*
Y25158D02*
X44439Y25958D01*
X44039Y26758D01*
X44839Y26358D01*
X45639Y26758D01*
X45239Y25958D01*
X45639Y25158D01*
X44839Y25558D01*
X44039Y25158D01*
X30939Y32558D02*
Y32158D01*
X31739D01*
Y32558D01*
X32139D01*
Y33358D01*
X31739D01*
Y33758D01*
X30939D01*
Y33358D01*
X30539D01*
Y32558D01*
X30939D01*
Y82558D02*
Y82158D01*
X31739D01*
Y82558D01*
X32139D01*
Y83358D01*
X31739D01*
Y83758D01*
X30939D01*
Y83358D01*
X30539D01*
Y82558D01*
X30939D01*
X66539Y30158D02*
X66939D01*
X67339Y30558D01*
X67739Y30158D01*
X68139D01*
Y30558D01*
X67739Y30958D01*
X68139Y31358D01*
Y31758D01*
X67739D01*
X67339Y31358D01*
X66939Y31758D01*
X66539D01*
Y31358D01*
X66939Y30958D01*
X66539Y30558D01*
Y30158D01*
Y39158D02*
X66939D01*
X67339Y39558D01*
X67739Y39158D01*
X68139D01*
Y39558D01*
X67739Y39958D01*
X68139Y40358D01*
Y40758D01*
X67739D01*
X67339Y40358D01*
X66939Y40758D01*
X66539D01*
Y40358D01*
X66939Y39958D01*
X66539Y39558D01*
Y39158D01*
X41339Y59158D02*
X41739Y59558D01*
X42139D01*
X41739Y59958D01*
X42139Y60358D01*
X41739D01*
X41339Y60758D01*
X40939Y60358D01*
X40539D01*
X40939Y59958D01*
X40539Y59558D01*
X40939D01*
X41339Y59158D01*
X66539Y84158D02*
X66939D01*
X67339Y84558D01*
X67739Y84158D01*
X68139D01*
Y84558D01*
X67739Y84958D01*
X68139Y85358D01*
Y85758D01*
X67739D01*
X67339Y85358D01*
X66939Y85758D01*
X66539D01*
Y85358D01*
X66939Y84958D01*
X66539Y84558D01*
Y84158D01*
Y75158D02*
X66939D01*
X67339Y75558D01*
X67739Y75158D01*
X68139D01*
Y75558D01*
X67739Y75958D01*
X68139Y76358D01*
Y76758D01*
X67739D01*
X67339Y76358D01*
X66939Y76758D01*
X66539D01*
Y76358D01*
X66939Y75958D01*
X66539Y75558D01*
Y75158D01*
X41339Y43158D02*
X41739Y43558D01*
X42139D01*
X41739Y43958D01*
X42139Y44358D01*
X41739D01*
X41339Y44758D01*
X40939Y44358D01*
X40539D01*
X40939Y43958D01*
X40539Y43558D01*
X40939D01*
X41339Y43158D01*
X100184Y137008D02*
X100984Y137808D01*
X101784Y137008D01*
X100984Y136208D01*
X100184Y137008D01*
X113964D02*
X114764Y137808D01*
X115564Y137008D01*
X114764Y136208D01*
X113964Y137008D01*
X257074Y32780D02*
Y34380D01*
X258674D01*
Y32780D01*
X257074D01*
X257474Y33180D02*
Y33980D01*
X258274D01*
Y33180D01*
X257474D01*
X257074Y40654D02*
Y42254D01*
X258674D01*
Y40654D01*
X257074D01*
X257474Y41054D02*
Y41854D01*
X258274D01*
Y41054D01*
X257474D01*
X256680Y61127D02*
Y62727D01*
X258280D01*
Y61127D01*
X256680D01*
X257080Y61527D02*
Y62327D01*
X257880D01*
Y61527D01*
X257080D01*
X256680Y69001D02*
Y70601D01*
X258280D01*
Y69001D01*
X256680D01*
X257080Y69401D02*
Y70201D01*
X257880D01*
Y69401D01*
X257080D01*
X256680Y88686D02*
Y90286D01*
X258280D01*
Y88686D01*
X256680D01*
X257080Y89086D02*
Y89886D01*
X257880D01*
Y89086D01*
X257080D01*
X256680Y96560D02*
Y98160D01*
X258280D01*
Y96560D01*
X256680D01*
X257080Y96960D02*
Y97760D01*
X257880D01*
Y96960D01*
X257080D01*
X256680Y116639D02*
Y118239D01*
X258280D01*
Y116639D01*
X256680D01*
X257080Y117039D02*
Y117839D01*
X257880D01*
Y117039D01*
X257080D01*
X256680Y124513D02*
Y126113D01*
X258280D01*
Y124513D01*
X256680D01*
X257080Y124913D02*
Y125713D01*
X257880D01*
Y124913D01*
X257080D01*
X223042Y182006D02*
X223843Y182806D01*
X224642Y182006D01*
X223843Y181205D01*
X223042Y182006D01*
X211798D02*
X212598Y182806D01*
X213398Y182006D01*
X212598Y181205D01*
X211798Y182006D01*
X169893D02*
X170693Y182806D01*
X171493Y182006D01*
X170693Y181205D01*
X169893Y182006D01*
X158649D02*
X159449Y182806D01*
X160249Y182006D01*
X159449Y181205D01*
X158649Y182006D01*
X224016Y149316D02*
X223216Y150916D01*
X224816D01*
X224016Y149316D01*
Y149716D02*
X223616Y150516D01*
X224416D01*
X224016Y149716D01*
Y144985D02*
X223216Y146585D01*
X224816D01*
X224016Y144985D01*
Y145385D02*
X223616Y146185D01*
X224416D01*
X224016Y145385D01*
X219685Y149316D02*
X218885Y150916D01*
X220485D01*
X219685Y149316D01*
Y149716D02*
X219285Y150516D01*
X220085D01*
X219685Y149716D01*
Y144985D02*
X218885Y146585D01*
X220485D01*
X219685Y144985D01*
Y145385D02*
X219285Y146185D01*
X220085D01*
X219685Y145385D01*
X215354Y149316D02*
X214554Y150916D01*
X216154D01*
X215354Y149316D01*
Y149716D02*
X214954Y150516D01*
X215754D01*
X215354Y149716D01*
Y144985D02*
X214554Y146585D01*
X216154D01*
X215354Y144985D01*
Y145385D02*
X214954Y146185D01*
X215754D01*
X215354Y145385D01*
X166791Y149135D02*
X165991Y150735D01*
X167591D01*
X166791Y149135D01*
Y149535D02*
X166391Y150335D01*
X167191D01*
X166791Y149535D01*
Y144804D02*
X165991Y146404D01*
X167591D01*
X166791Y144804D01*
Y145204D02*
X166391Y146004D01*
X167191D01*
X166791Y145204D01*
X162461Y149135D02*
X161661Y150735D01*
X163261D01*
X162461Y149135D01*
Y149535D02*
X162061Y150335D01*
X162861D01*
X162461Y149535D01*
Y144804D02*
X161661Y146404D01*
X163261D01*
X162461Y144804D01*
Y145204D02*
X162061Y146004D01*
X162861D01*
X162461Y145204D01*
X158130Y149135D02*
X157330Y150735D01*
X158930D01*
X158130Y149135D01*
Y149535D02*
X157730Y150335D01*
X158530D01*
X158130Y149535D01*
Y144804D02*
X157330Y146404D01*
X158930D01*
X158130Y144804D01*
Y145204D02*
X157730Y146004D01*
X158530D01*
X158130Y145204D01*
D81*
X12611Y185039D02*
G03*
X12611Y185039I-800J0D01*
G01*
Y11811D02*
G03*
X12611Y11811I-800J0D01*
G01*
X264580D02*
G03*
X264580Y11811I-800J0D01*
G01*
Y185039D02*
G03*
X264580Y185039I-800J0D01*
G01*
X89776Y92126D02*
G03*
X89776Y92126I-800J0D01*
G01*
X176391Y124409D02*
G03*
X176391Y124409I-800J0D01*
G01*
X150406Y126378D02*
G03*
X150406Y126378I-800J0D01*
G01*
X244895Y137795D02*
G03*
X244895Y137795I-800J0D01*
G01*
Y133858D02*
G03*
X244895Y133858I-800J0D01*
G01*
X150406Y130709D02*
G03*
X150406Y130709I-800J0D01*
G01*
X145682Y125984D02*
G03*
X145682Y125984I-800J0D01*
G01*
X150406Y139370D02*
G03*
X150406Y139370I-800J0D01*
G01*
X248832Y137795D02*
G03*
X248832Y137795I-800J0D01*
G01*
Y133858D02*
G03*
X248832Y133858I-800J0D01*
G01*
X237020Y118110D02*
G03*
X237020Y118110I-800J0D01*
G01*
X197650D02*
G03*
X197650Y118110I-800J0D01*
G01*
Y137795D02*
G03*
X197650Y137795I-800J0D01*
G01*
X229147Y31496D02*
G03*
X229147Y31496I-800J0D01*
G01*
Y47244D02*
G03*
X229147Y47244I-800J0D01*
G01*
X213398Y31496D02*
G03*
X213398Y31496I-800J0D01*
G01*
Y47244D02*
G03*
X213398Y47244I-800J0D01*
G01*
X197650D02*
G03*
X197650Y47244I-800J0D01*
G01*
Y31496D02*
G03*
X197650Y31496I-800J0D01*
G01*
X238595Y86614D02*
G03*
X238595Y86614I-800J0D01*
G01*
X221666Y77559D02*
G03*
X221666Y77559I-800J0D01*
G01*
X183871Y108268D02*
G03*
X183871Y108268I-800J0D01*
G01*
Y117323D02*
G03*
X183871Y117323I-800J0D01*
G01*
X185446Y88583D02*
G03*
X185446Y88583I-800J0D01*
G01*
X180721Y80315D02*
G03*
X180721Y80315I-800J0D01*
G01*
X169698Y80709D02*
G03*
X169698Y80709I-800J0D01*
G01*
X164579Y89370D02*
G03*
X164579Y89370I-800J0D01*
G01*
Y98819D02*
G03*
X164579Y98819I-800J0D01*
G01*
Y108661D02*
G03*
X164579Y108661I-800J0D01*
G01*
X150406Y135039D02*
G03*
X150406Y135039I-800J0D01*
G01*
X164579Y45669D02*
G03*
X164579Y45669I-800J0D01*
G01*
X178753Y67323D02*
G03*
X178753Y67323I-800J0D01*
G01*
X140957Y82284D02*
G03*
X140957Y82284I-800J0D01*
G01*
Y93307D02*
G03*
X140957Y93307I-800J0D01*
G01*
X117729Y65354D02*
G03*
X117729Y65354I-800J0D01*
G01*
X124028Y82284D02*
G03*
X124028Y82284I-800J0D01*
G01*
Y93307D02*
G03*
X124028Y93307I-800J0D01*
G01*
X96076Y82677D02*
G03*
X96076Y82677I-800J0D01*
G01*
X105131D02*
G03*
X105131Y82677I-800J0D01*
G01*
X122847Y31496D02*
G03*
X122847Y31496I-800J0D01*
G01*
X134658Y3937D02*
G03*
X134658Y3937I-800J0D01*
G01*
Y11811D02*
G03*
X134658Y11811I-800J0D01*
G01*
X122847D02*
G03*
X122847Y11811I-800J0D01*
G01*
Y3937D02*
G03*
X122847Y3937I-800J0D01*
G01*
X123635Y53937D02*
G03*
X123635Y53937I-800J0D01*
G01*
X127572Y20472D02*
G03*
X127572Y20472I-800J0D01*
G01*
X127178Y73344D02*
G03*
X127178Y73344I-800J0D01*
G01*
X86233Y92126D02*
G03*
X86233Y92126I-800J0D01*
G01*
Y95276D02*
G03*
X86233Y95276I-800J0D01*
G01*
Y98819D02*
G03*
X86233Y98819I-800J0D01*
G01*
Y118898D02*
G03*
X86233Y118898I-800J0D01*
G01*
X90170D02*
G03*
X90170Y118898I-800J0D01*
G01*
X94107D02*
G03*
X94107Y118898I-800J0D01*
G01*
X91351Y149606D02*
G03*
X91351Y149606I-800J0D01*
G01*
X87414D02*
G03*
X87414Y149606I-800J0D01*
G01*
X91351Y153543D02*
G03*
X91351Y153543I-800J0D01*
G01*
X87414D02*
G03*
X87414Y153543I-800J0D01*
G01*
Y145669D02*
G03*
X87414Y145669I-800J0D01*
G01*
X91351D02*
G03*
X91351Y145669I-800J0D01*
G01*
Y185039D02*
G03*
X91351Y185039I-800J0D01*
G01*
X87414D02*
G03*
X87414Y185039I-800J0D01*
G01*
X91351Y188976D02*
G03*
X91351Y188976I-800J0D01*
G01*
X87414D02*
G03*
X87414Y188976I-800J0D01*
G01*
Y181102D02*
G03*
X87414Y181102I-800J0D01*
G01*
X91351D02*
G03*
X91351Y181102I-800J0D01*
G01*
X138595Y149606D02*
G03*
X138595Y149606I-800J0D01*
G01*
X134658D02*
G03*
X134658Y149606I-800J0D01*
G01*
X138595Y153543D02*
G03*
X138595Y153543I-800J0D01*
G01*
X134658D02*
G03*
X134658Y153543I-800J0D01*
G01*
Y145669D02*
G03*
X134658Y145669I-800J0D01*
G01*
X138595D02*
G03*
X138595Y145669I-800J0D01*
G01*
X244895Y188976D02*
G03*
X244895Y188976I-800J0D01*
G01*
X248832D02*
G03*
X248832Y188976I-800J0D01*
G01*
Y185039D02*
G03*
X248832Y185039I-800J0D01*
G01*
X244895D02*
G03*
X244895Y185039I-800J0D01*
G01*
Y181102D02*
G03*
X244895Y181102I-800J0D01*
G01*
X248832D02*
G03*
X248832Y181102I-800J0D01*
G01*
Y153543D02*
G03*
X248832Y153543I-800J0D01*
G01*
X244895D02*
G03*
X244895Y153543I-800J0D01*
G01*
Y149606D02*
G03*
X244895Y149606I-800J0D01*
G01*
X248832D02*
G03*
X248832Y149606I-800J0D01*
G01*
Y145669D02*
G03*
X248832Y145669I-800J0D01*
G01*
X244895D02*
G03*
X244895Y145669I-800J0D01*
G01*
X191745Y145276D02*
G03*
X191745Y145276I-800J0D01*
G01*
X187808D02*
G03*
X187808Y145276I-800J0D01*
G01*
Y149213D02*
G03*
X187808Y149213I-800J0D01*
G01*
X191745D02*
G03*
X191745Y149213I-800J0D01*
G01*
Y153150D02*
G03*
X191745Y153150I-800J0D01*
G01*
X187808D02*
G03*
X187808Y153150I-800J0D01*
G01*
X187808Y180709D02*
G03*
X187808Y180709I-800J0D01*
G01*
X191745D02*
G03*
X191745Y180709I-800J0D01*
G01*
X187808Y184646D02*
G03*
X187808Y184646I-800J0D01*
G01*
X191745D02*
G03*
X191745Y184646I-800J0D01*
G01*
Y188583D02*
G03*
X191745Y188583I-800J0D01*
G01*
X187808D02*
G03*
X187808Y188583I-800J0D01*
G01*
X138595Y181102D02*
G03*
X138595Y181102I-800J0D01*
G01*
X134658D02*
G03*
X134658Y181102I-800J0D01*
G01*
Y188976D02*
G03*
X134658Y188976I-800J0D01*
G01*
X138595D02*
G03*
X138595Y188976I-800J0D01*
G01*
X134658Y185039D02*
G03*
X134658Y185039I-800J0D01*
G01*
X138595D02*
G03*
X138595Y185039I-800J0D01*
G01*
X89776Y95276D02*
G03*
X89776Y95276I-800J0D01*
G01*
Y98819D02*
G03*
X89776Y98819I-800J0D01*
G01*
X218123Y129528D02*
G03*
X218123Y129528I-800J0D01*
G01*
X231115Y164961D02*
G03*
X231115Y164961I-800J0D01*
G01*
X238202D02*
G03*
X238202Y164961I-800J0D01*
G01*
X234658D02*
G03*
X234658Y164961I-800J0D01*
G01*
X233084Y168110D02*
G03*
X233084Y168110I-800J0D01*
G01*
X237020D02*
G03*
X237020Y168110I-800J0D01*
G01*
X179934D02*
G03*
X179934Y168110I-800J0D01*
G01*
X175997D02*
G03*
X175997Y168110I-800J0D01*
G01*
X177572Y164961D02*
G03*
X177572Y164961I-800J0D01*
G01*
X181115D02*
G03*
X181115Y164961I-800J0D01*
G01*
X174028D02*
G03*
X174028Y164961I-800J0D01*
G01*
X222847Y130315D02*
G03*
X222847Y130315I-800J0D01*
G01*
X226998Y85254D02*
G03*
X226998Y85254I-800J0D01*
G01*
X222060Y82284D02*
G03*
X222060Y82284I-800J0D01*
G01*
X194107Y83071D02*
G03*
X194107Y83071I-800J0D01*
G01*
X180328Y28346D02*
G03*
X180328Y28346I-800J0D01*
G01*
X160249Y125197D02*
G03*
X160249Y125197I-800J0D01*
G01*
X165761Y115354D02*
G03*
X165761Y115354I-800J0D01*
G01*
X213005Y68110D02*
G03*
X213005Y68110I-800J0D01*
G01*
X213398Y74803D02*
G03*
X213398Y74803I-800J0D01*
G01*
X246469Y59055D02*
G03*
X246469Y59055I-800J0D01*
G01*
X246863Y105512D02*
G03*
X246863Y105512I-800J0D01*
G01*
X226391Y75197D02*
G03*
X226391Y75197I-800J0D01*
G01*
X177965Y52872D02*
G03*
X177965Y52872I-800J0D01*
G01*
X151981Y52478D02*
G03*
X151981Y52478I-800J0D01*
G01*
X168517Y48541D02*
G03*
X168517Y48541I-800J0D01*
G01*
X143713D02*
G03*
X143713Y48541I-800J0D01*
G01*
X158674Y45391D02*
G03*
X158674Y45391I-800J0D01*
G01*
X143713Y44210D02*
G03*
X143713Y44210I-800J0D01*
G01*
X84265Y38698D02*
G03*
X84265Y38698I-800J0D01*
G01*
X81115Y63895D02*
G03*
X81115Y63895I-800J0D01*
G01*
X78359Y59958D02*
G03*
X78359Y59958I-800J0D01*
G01*
X75209Y55628D02*
G03*
X75209Y55628I-800J0D01*
G01*
X72452Y51691D02*
G03*
X72452Y51691I-800J0D01*
G01*
D82*
X89376Y92126D02*
G03*
X89376Y92126I-400J0D01*
G01*
X175991Y124409D02*
G03*
X175991Y124409I-400J0D01*
G01*
X150006Y126378D02*
G03*
X150006Y126378I-400J0D01*
G01*
X244495Y137795D02*
G03*
X244495Y137795I-400J0D01*
G01*
Y133858D02*
G03*
X244495Y133858I-400J0D01*
G01*
X150006Y130709D02*
G03*
X150006Y130709I-400J0D01*
G01*
X145282Y125984D02*
G03*
X145282Y125984I-400J0D01*
G01*
X150006Y139370D02*
G03*
X150006Y139370I-400J0D01*
G01*
X248431Y137795D02*
G03*
X248431Y137795I-400J0D01*
G01*
Y133858D02*
G03*
X248431Y133858I-400J0D01*
G01*
X236620Y118110D02*
G03*
X236620Y118110I-400J0D01*
G01*
X197250D02*
G03*
X197250Y118110I-400J0D01*
G01*
Y137795D02*
G03*
X197250Y137795I-400J0D01*
G01*
X228747Y31496D02*
G03*
X228747Y31496I-400J0D01*
G01*
Y47244D02*
G03*
X228747Y47244I-400J0D01*
G01*
X212998Y31496D02*
G03*
X212998Y31496I-400J0D01*
G01*
Y47244D02*
G03*
X212998Y47244I-400J0D01*
G01*
X197250D02*
G03*
X197250Y47244I-400J0D01*
G01*
Y31496D02*
G03*
X197250Y31496I-400J0D01*
G01*
X238195Y86614D02*
G03*
X238195Y86614I-400J0D01*
G01*
X221266Y77559D02*
G03*
X221266Y77559I-400J0D01*
G01*
X183471Y108268D02*
G03*
X183471Y108268I-400J0D01*
G01*
Y117323D02*
G03*
X183471Y117323I-400J0D01*
G01*
X185046Y88583D02*
G03*
X185046Y88583I-400J0D01*
G01*
X180321Y80315D02*
G03*
X180321Y80315I-400J0D01*
G01*
X169298Y80709D02*
G03*
X169298Y80709I-400J0D01*
G01*
X164180Y89370D02*
G03*
X164180Y89370I-400J0D01*
G01*
Y98819D02*
G03*
X164180Y98819I-400J0D01*
G01*
Y108661D02*
G03*
X164180Y108661I-400J0D01*
G01*
X150006Y135039D02*
G03*
X150006Y135039I-400J0D01*
G01*
X164180Y45669D02*
G03*
X164180Y45669I-400J0D01*
G01*
X178353Y67323D02*
G03*
X178353Y67323I-400J0D01*
G01*
X140558Y82284D02*
G03*
X140558Y82284I-400J0D01*
G01*
Y93307D02*
G03*
X140558Y93307I-400J0D01*
G01*
X117329Y65354D02*
G03*
X117329Y65354I-400J0D01*
G01*
X123628Y82284D02*
G03*
X123628Y82284I-400J0D01*
G01*
Y93307D02*
G03*
X123628Y93307I-400J0D01*
G01*
X95676Y82677D02*
G03*
X95676Y82677I-400J0D01*
G01*
X104731D02*
G03*
X104731Y82677I-400J0D01*
G01*
X122447Y31496D02*
G03*
X122447Y31496I-400J0D01*
G01*
X134258Y3937D02*
G03*
X134258Y3937I-400J0D01*
G01*
Y11811D02*
G03*
X134258Y11811I-400J0D01*
G01*
X122447D02*
G03*
X122447Y11811I-400J0D01*
G01*
Y3937D02*
G03*
X122447Y3937I-400J0D01*
G01*
X123235Y53937D02*
G03*
X123235Y53937I-400J0D01*
G01*
X127172Y20472D02*
G03*
X127172Y20472I-400J0D01*
G01*
X126778Y73344D02*
G03*
X126778Y73344I-400J0D01*
G01*
X85833Y92126D02*
G03*
X85833Y92126I-400J0D01*
G01*
Y95276D02*
G03*
X85833Y95276I-400J0D01*
G01*
Y98819D02*
G03*
X85833Y98819I-400J0D01*
G01*
Y118898D02*
G03*
X85833Y118898I-400J0D01*
G01*
X89770D02*
G03*
X89770Y118898I-400J0D01*
G01*
X93707D02*
G03*
X93707Y118898I-400J0D01*
G01*
X90951Y149606D02*
G03*
X90951Y149606I-400J0D01*
G01*
X87014D02*
G03*
X87014Y149606I-400J0D01*
G01*
X90951Y153543D02*
G03*
X90951Y153543I-400J0D01*
G01*
X87014D02*
G03*
X87014Y153543I-400J0D01*
G01*
Y145669D02*
G03*
X87014Y145669I-400J0D01*
G01*
X90951D02*
G03*
X90951Y145669I-400J0D01*
G01*
Y185039D02*
G03*
X90951Y185039I-400J0D01*
G01*
X87014D02*
G03*
X87014Y185039I-400J0D01*
G01*
X90951Y188976D02*
G03*
X90951Y188976I-400J0D01*
G01*
X87014D02*
G03*
X87014Y188976I-400J0D01*
G01*
Y181102D02*
G03*
X87014Y181102I-400J0D01*
G01*
X90951D02*
G03*
X90951Y181102I-400J0D01*
G01*
X138195Y149606D02*
G03*
X138195Y149606I-400J0D01*
G01*
X134258D02*
G03*
X134258Y149606I-400J0D01*
G01*
X138195Y153543D02*
G03*
X138195Y153543I-400J0D01*
G01*
X134258D02*
G03*
X134258Y153543I-400J0D01*
G01*
Y145669D02*
G03*
X134258Y145669I-400J0D01*
G01*
X138195D02*
G03*
X138195Y145669I-400J0D01*
G01*
X244495Y188976D02*
G03*
X244495Y188976I-400J0D01*
G01*
X248431D02*
G03*
X248431Y188976I-400J0D01*
G01*
Y185039D02*
G03*
X248431Y185039I-400J0D01*
G01*
X244495D02*
G03*
X244495Y185039I-400J0D01*
G01*
Y181102D02*
G03*
X244495Y181102I-400J0D01*
G01*
X248431D02*
G03*
X248431Y181102I-400J0D01*
G01*
Y153543D02*
G03*
X248431Y153543I-400J0D01*
G01*
X244495D02*
G03*
X244495Y153543I-400J0D01*
G01*
Y149606D02*
G03*
X244495Y149606I-400J0D01*
G01*
X248431D02*
G03*
X248431Y149606I-400J0D01*
G01*
Y145669D02*
G03*
X248431Y145669I-400J0D01*
G01*
X244495D02*
G03*
X244495Y145669I-400J0D01*
G01*
X191345Y145276D02*
G03*
X191345Y145276I-400J0D01*
G01*
X187408D02*
G03*
X187408Y145276I-400J0D01*
G01*
Y149213D02*
G03*
X187408Y149213I-400J0D01*
G01*
X191345D02*
G03*
X191345Y149213I-400J0D01*
G01*
Y153150D02*
G03*
X191345Y153150I-400J0D01*
G01*
X187408D02*
G03*
X187408Y153150I-400J0D01*
G01*
X187408Y180709D02*
G03*
X187408Y180709I-400J0D01*
G01*
X191345D02*
G03*
X191345Y180709I-400J0D01*
G01*
X187408Y184646D02*
G03*
X187408Y184646I-400J0D01*
G01*
X191345D02*
G03*
X191345Y184646I-400J0D01*
G01*
Y188583D02*
G03*
X191345Y188583I-400J0D01*
G01*
X187408D02*
G03*
X187408Y188583I-400J0D01*
G01*
X138195Y181102D02*
G03*
X138195Y181102I-400J0D01*
G01*
X134258D02*
G03*
X134258Y181102I-400J0D01*
G01*
Y188976D02*
G03*
X134258Y188976I-400J0D01*
G01*
X138195D02*
G03*
X138195Y188976I-400J0D01*
G01*
X134258Y185039D02*
G03*
X134258Y185039I-400J0D01*
G01*
X138195D02*
G03*
X138195Y185039I-400J0D01*
G01*
X89376Y95276D02*
G03*
X89376Y95276I-400J0D01*
G01*
Y98819D02*
G03*
X89376Y98819I-400J0D01*
G01*
X217723Y129528D02*
G03*
X217723Y129528I-400J0D01*
G01*
X230715Y164961D02*
G03*
X230715Y164961I-400J0D01*
G01*
X237802D02*
G03*
X237802Y164961I-400J0D01*
G01*
X234258D02*
G03*
X234258Y164961I-400J0D01*
G01*
X232683Y168110D02*
G03*
X232683Y168110I-400J0D01*
G01*
X236620D02*
G03*
X236620Y168110I-400J0D01*
G01*
X179534D02*
G03*
X179534Y168110I-400J0D01*
G01*
X175597D02*
G03*
X175597Y168110I-400J0D01*
G01*
X177172Y164961D02*
G03*
X177172Y164961I-400J0D01*
G01*
X180715D02*
G03*
X180715Y164961I-400J0D01*
G01*
X173628D02*
G03*
X173628Y164961I-400J0D01*
G01*
X222447Y130315D02*
G03*
X222447Y130315I-400J0D01*
G01*
X226598Y85254D02*
G03*
X226598Y85254I-400J0D01*
G01*
X221660Y82284D02*
G03*
X221660Y82284I-400J0D01*
G01*
X193707Y83071D02*
G03*
X193707Y83071I-400J0D01*
G01*
X179928Y28346D02*
G03*
X179928Y28346I-400J0D01*
G01*
X159849Y125197D02*
G03*
X159849Y125197I-400J0D01*
G01*
X165361Y115354D02*
G03*
X165361Y115354I-400J0D01*
G01*
X212605Y68110D02*
G03*
X212605Y68110I-400J0D01*
G01*
X212998Y74803D02*
G03*
X212998Y74803I-400J0D01*
G01*
X246069Y59055D02*
G03*
X246069Y59055I-400J0D01*
G01*
X246463Y105512D02*
G03*
X246463Y105512I-400J0D01*
G01*
X225991Y75197D02*
G03*
X225991Y75197I-400J0D01*
G01*
X177565Y52872D02*
G03*
X177565Y52872I-400J0D01*
G01*
X151581Y52478D02*
G03*
X151581Y52478I-400J0D01*
G01*
X168116Y48541D02*
G03*
X168116Y48541I-400J0D01*
G01*
X143313D02*
G03*
X143313Y48541I-400J0D01*
G01*
X158274Y45391D02*
G03*
X158274Y45391I-400J0D01*
G01*
X143313Y44210D02*
G03*
X143313Y44210I-400J0D01*
G01*
X83865Y38698D02*
G03*
X83865Y38698I-400J0D01*
G01*
X80715Y63895D02*
G03*
X80715Y63895I-400J0D01*
G01*
X77959Y59958D02*
G03*
X77959Y59958I-400J0D01*
G01*
X74809Y55628D02*
G03*
X74809Y55628I-400J0D01*
G01*
X72052Y51691D02*
G03*
X72052Y51691I-400J0D01*
G01*
M02*
