G04 Layer_Color=16711935*
%FSLAX25Y25*%
%MOIN*%
G70*
G01*
G75*
%ADD60C,0.12611*%
%ADD61C,0.18516*%
%ADD62C,0.08200*%
%ADD63R,0.08200X0.08200*%
%ADD64C,0.04800*%
%ADD65P,0.13650X8X292.5*%
%ADD66C,0.14300*%
%ADD67C,0.07000*%
%ADD68P,0.07577X8X292.5*%
%ADD69P,0.05196X8X292.5*%
%ADD70C,0.08674*%
%ADD71C,0.06312*%
%ADD72R,0.06312X0.06312*%
%ADD73R,0.07099X0.08202*%
%ADD74O,0.07099X0.08202*%
%ADD75C,0.01200*%
%ADD76C,0.00787*%
D60*
X116535Y177165D02*
D03*
X100787D02*
D03*
D61*
X11811Y185039D02*
D03*
Y11811D02*
D03*
X263779D02*
D03*
Y185039D02*
D03*
D62*
X186693Y6809D02*
D03*
X196693D02*
D03*
X206693D02*
D03*
X216693D02*
D03*
X226693D02*
D03*
D63*
X236693D02*
D03*
D64*
X48339Y126824D02*
D03*
Y134824D02*
D03*
Y142824D02*
D03*
Y150824D02*
D03*
X41339Y146824D02*
D03*
Y130824D02*
D03*
Y138824D02*
D03*
X48339Y47958D02*
D03*
Y55958D02*
D03*
Y63958D02*
D03*
Y71958D02*
D03*
X41339Y67958D02*
D03*
Y51958D02*
D03*
Y59958D02*
D03*
D65*
X44839Y168824D02*
D03*
Y104824D02*
D03*
Y89958D02*
D03*
Y25958D02*
D03*
D66*
X31339Y111824D02*
D03*
Y161824D02*
D03*
Y32958D02*
D03*
Y82958D02*
D03*
D67*
X67339Y109824D02*
D03*
Y154824D02*
D03*
Y30958D02*
D03*
Y75958D02*
D03*
D68*
Y118824D02*
D03*
Y163824D02*
D03*
Y39958D02*
D03*
Y84958D02*
D03*
D69*
X41339Y122824D02*
D03*
Y43958D02*
D03*
D70*
X100984Y137008D02*
D03*
X114764D02*
D03*
D71*
X257874Y33580D02*
D03*
X257480Y61927D02*
D03*
Y89486D02*
D03*
Y117439D02*
D03*
D72*
X257874Y41454D02*
D03*
X257480Y69801D02*
D03*
Y97360D02*
D03*
Y125313D02*
D03*
D73*
X223843Y182006D02*
D03*
X170693D02*
D03*
D74*
X212598D02*
D03*
X159449D02*
D03*
D75*
X88976Y92126D02*
D03*
X175591Y124409D02*
D03*
X149606Y126378D02*
D03*
X244094Y137795D02*
D03*
Y133858D02*
D03*
X149606Y130709D02*
D03*
X144882Y125984D02*
D03*
X149606Y139370D02*
D03*
X248031Y137795D02*
D03*
Y133858D02*
D03*
X236221Y118110D02*
D03*
X196850D02*
D03*
Y137795D02*
D03*
X228346Y31496D02*
D03*
Y47244D02*
D03*
X212598Y31496D02*
D03*
Y47244D02*
D03*
X196850D02*
D03*
Y31496D02*
D03*
X237795Y86614D02*
D03*
X220866Y77559D02*
D03*
X183071Y108268D02*
D03*
Y117323D02*
D03*
X184646Y88583D02*
D03*
X179921Y80315D02*
D03*
X168898Y80709D02*
D03*
X163779Y89370D02*
D03*
Y98819D02*
D03*
Y108661D02*
D03*
X149606Y135039D02*
D03*
X163779Y45669D02*
D03*
X177953Y67323D02*
D03*
X140157Y82284D02*
D03*
Y93307D02*
D03*
X116929Y65354D02*
D03*
X123228Y82284D02*
D03*
Y93307D02*
D03*
X95276Y82677D02*
D03*
X104331D02*
D03*
X122047Y31496D02*
D03*
X133858Y3937D02*
D03*
Y11811D02*
D03*
X122047D02*
D03*
Y3937D02*
D03*
X122835Y53937D02*
D03*
X126772Y20472D02*
D03*
X126378Y73344D02*
D03*
X85433Y92126D02*
D03*
Y95276D02*
D03*
Y98819D02*
D03*
Y118898D02*
D03*
X89370D02*
D03*
X93307D02*
D03*
X90551Y149606D02*
D03*
X86614D02*
D03*
X90551Y153543D02*
D03*
X86614D02*
D03*
Y145669D02*
D03*
X90551D02*
D03*
Y185039D02*
D03*
X86614D02*
D03*
X90551Y188976D02*
D03*
X86614D02*
D03*
Y181102D02*
D03*
X90551D02*
D03*
X137795Y149606D02*
D03*
X133858D02*
D03*
X137795Y153543D02*
D03*
X133858D02*
D03*
Y145669D02*
D03*
X137795D02*
D03*
X244094Y188976D02*
D03*
X248031D02*
D03*
Y185039D02*
D03*
X244094D02*
D03*
Y181102D02*
D03*
X248031D02*
D03*
Y153543D02*
D03*
X244094D02*
D03*
Y149606D02*
D03*
X248031D02*
D03*
Y145669D02*
D03*
X244094D02*
D03*
X190945Y145276D02*
D03*
X187008D02*
D03*
Y149213D02*
D03*
X190945D02*
D03*
Y153150D02*
D03*
X187008D02*
D03*
X187008Y180709D02*
D03*
X190945D02*
D03*
X187008Y184646D02*
D03*
X190945D02*
D03*
Y188583D02*
D03*
X187008D02*
D03*
X137795Y181102D02*
D03*
X133858D02*
D03*
Y188976D02*
D03*
X137795D02*
D03*
X133858Y185039D02*
D03*
X137795D02*
D03*
X88976Y95276D02*
D03*
Y98819D02*
D03*
X217323Y129528D02*
D03*
X230315Y164961D02*
D03*
X237402D02*
D03*
X233858D02*
D03*
X232283Y168110D02*
D03*
X236221D02*
D03*
X179134D02*
D03*
X175197D02*
D03*
X176772Y164961D02*
D03*
X180315D02*
D03*
X173228D02*
D03*
X222047Y130315D02*
D03*
X226198Y85254D02*
D03*
X221260Y82284D02*
D03*
X193307Y83071D02*
D03*
X179528Y28346D02*
D03*
X159449Y125197D02*
D03*
X164961Y115354D02*
D03*
X212205Y68110D02*
D03*
X212598Y74803D02*
D03*
X245669Y59055D02*
D03*
X246063Y105512D02*
D03*
X225590Y75197D02*
D03*
X177165Y52872D02*
D03*
X151181Y52478D02*
D03*
X167717Y48541D02*
D03*
X142913D02*
D03*
X157874Y45391D02*
D03*
X142913Y44210D02*
D03*
X83465Y38698D02*
D03*
X80315Y63895D02*
D03*
X77559Y59958D02*
D03*
X74410Y55628D02*
D03*
X71652Y51691D02*
D03*
D76*
X224016Y150116D02*
D03*
Y145785D02*
D03*
X219685Y150116D02*
D03*
Y145785D02*
D03*
X215354Y150116D02*
D03*
Y145785D02*
D03*
X166791Y149935D02*
D03*
Y145604D02*
D03*
X162461Y149935D02*
D03*
Y145604D02*
D03*
X158130Y149935D02*
D03*
Y145604D02*
D03*
M02*
