G04 Layer_Physical_Order=1*
G04 Layer_Color=255*
%FSLAX25Y25*%
%MOIN*%
G70*
G01*
G75*
%ADD10R,0.03150X0.03740*%
%ADD11R,0.08268X0.12795*%
%ADD12R,0.08268X0.03937*%
%ADD13R,0.03740X0.03347*%
%ADD14O,0.05512X0.01772*%
%ADD15R,0.03740X0.03150*%
%ADD16R,0.12205X0.09449*%
%ADD17O,0.02362X0.05709*%
%ADD18R,0.03347X0.03740*%
%ADD19R,0.04724X0.05512*%
%ADD20R,0.03543X0.03937*%
%ADD21R,0.03937X0.03347*%
%ADD22O,0.07480X0.02362*%
%ADD23C,0.02000*%
%ADD24C,0.01000*%
%ADD25C,0.11811*%
%ADD26C,0.17716*%
%ADD27C,0.07400*%
%ADD28R,0.07400X0.07400*%
%ADD29C,0.04000*%
%ADD30P,0.12784X8X292.5*%
%ADD31C,0.13500*%
%ADD32C,0.06200*%
%ADD33P,0.06711X8X292.5*%
%ADD34P,0.04330X8X292.5*%
%ADD35C,0.07874*%
%ADD36C,0.05512*%
%ADD37R,0.05512X0.05512*%
%ADD38R,0.06299X0.07402*%
%ADD39O,0.06299X0.07402*%
%ADD40C,0.02400*%
%ADD41C,0.01968*%
G36*
X141339Y95260D02*
X140927Y94999D01*
X140839Y95007D01*
X140157Y95142D01*
X139455Y95003D01*
X138860Y94605D01*
X138462Y94009D01*
X138322Y93307D01*
X138462Y92605D01*
X138860Y92009D01*
X139455Y91611D01*
X140157Y91472D01*
X140839Y91607D01*
X140927Y91615D01*
X141339Y91354D01*
Y89764D01*
X103270D01*
X103085Y90228D01*
X103275Y90687D01*
Y93269D01*
X103398Y93565D01*
Y97502D01*
X103275Y97797D01*
Y99349D01*
X103085Y99808D01*
X102626Y99998D01*
X95021D01*
X93039Y101980D01*
Y105648D01*
X93128Y105781D01*
X93831D01*
X94290Y105971D01*
X94429Y106306D01*
X94431Y106308D01*
X94518Y106519D01*
X94609Y106557D01*
X102088D01*
X102547Y106747D01*
X135958Y140157D01*
X141339D01*
Y95260D01*
D02*
G37*
G36*
X215389Y81982D02*
Y17091D01*
X208862Y10564D01*
X208861Y10565D01*
X207815Y10998D01*
X206693Y11146D01*
X205570Y10998D01*
X204524Y10565D01*
X203626Y9876D01*
X202937Y8977D01*
X202504Y7931D01*
X202356Y6809D01*
X202504Y5686D01*
X202937Y4640D01*
X203626Y3742D01*
X204524Y3053D01*
X205570Y2619D01*
X206424Y2507D01*
X206391Y2007D01*
X198689D01*
X198590Y2507D01*
X199063Y2703D01*
X200045Y3457D01*
X200798Y4438D01*
X201272Y5582D01*
X201368Y6309D01*
X196693D01*
X192018D01*
X192114Y5582D01*
X192587Y4438D01*
X193341Y3457D01*
X194323Y2703D01*
X194796Y2507D01*
X194697Y2007D01*
X188689D01*
X188590Y2507D01*
X189063Y2703D01*
X190045Y3457D01*
X190798Y4438D01*
X191272Y5582D01*
X191368Y6309D01*
X186693D01*
X182018D01*
X182114Y5582D01*
X182588Y4438D01*
X183341Y3457D01*
X184323Y2703D01*
X184796Y2507D01*
X184697Y2007D01*
X115216D01*
X115216Y13505D01*
X115187Y13576D01*
X115199Y13652D01*
X115612Y13916D01*
X116043Y13738D01*
X119193D01*
X119652Y13928D01*
X119842Y14387D01*
Y15118D01*
X122913D01*
X123538Y15242D01*
X124067Y15596D01*
X127192Y18721D01*
X127474Y18777D01*
X128069Y19175D01*
X128467Y19770D01*
X128523Y20053D01*
X135334Y26863D01*
X137402D01*
X138096Y27001D01*
X138166Y27047D01*
X145118D01*
Y26100D01*
X145308Y25641D01*
X145768Y25451D01*
X147653D01*
X149550Y23554D01*
Y13265D01*
X149311D01*
X148852Y13075D01*
X148662Y12616D01*
Y9466D01*
X148852Y9007D01*
X149311Y8817D01*
X152378D01*
X152744Y8450D01*
X152537Y7950D01*
X149311D01*
X148852Y7760D01*
X148662Y7301D01*
Y6848D01*
X146712D01*
Y7301D01*
X146522Y7760D01*
X146063Y7950D01*
Y8447D01*
X146453Y8524D01*
X146784Y8745D01*
X147005Y9076D01*
X147083Y9466D01*
Y10639D01*
X144095D01*
X141106D01*
Y9466D01*
X141184Y9076D01*
X141405Y8745D01*
X141736Y8524D01*
X142126Y8447D01*
Y7950D01*
X141667Y7760D01*
X141477Y7301D01*
Y3954D01*
X141667Y3495D01*
X142126Y3305D01*
X146063D01*
X146522Y3495D01*
X146712Y3954D01*
Y4604D01*
X148662D01*
Y4151D01*
X148852Y3692D01*
X149311Y3502D01*
X153051D01*
X153510Y3692D01*
X153701Y4151D01*
Y6787D01*
X154201Y6994D01*
X156898Y4297D01*
X157427Y3943D01*
X158051Y3819D01*
X159303D01*
X159470Y3416D01*
X159929Y3226D01*
X163669D01*
X164128Y3416D01*
X164319Y3876D01*
Y7025D01*
X164128Y7484D01*
X163669Y7675D01*
X159929D01*
X159470Y7484D01*
X159303Y7082D01*
X158727D01*
X153701Y12108D01*
Y12616D01*
X153510Y13075D01*
X153051Y13265D01*
X152812D01*
Y24230D01*
X152688Y24854D01*
X152335Y25383D01*
X150157Y27561D01*
Y29447D01*
X149967Y29906D01*
X149851Y29954D01*
X149898Y30473D01*
X150229Y30694D01*
X150450Y31025D01*
X150528Y31415D01*
Y32588D01*
X147638D01*
X144748D01*
Y31415D01*
X144826Y31025D01*
X144969Y30810D01*
X144826Y30410D01*
X144748Y30310D01*
X138166D01*
X138096Y30356D01*
X137402Y30495D01*
X132283D01*
X131588Y30356D01*
X130999Y29963D01*
X130606Y29374D01*
X130467Y28679D01*
X130606Y27984D01*
X130999Y27395D01*
X131022Y27165D01*
X125935Y22078D01*
X125474Y21770D01*
X125166Y21309D01*
X122238Y18381D01*
X119737D01*
X119652Y18587D01*
X119193Y18777D01*
X116043D01*
X115612Y18598D01*
X115199Y18864D01*
X115187Y18939D01*
X115216Y19010D01*
X115216Y53804D01*
X115678Y53995D01*
X130555Y39119D01*
X130467Y38679D01*
X130606Y37984D01*
X130999Y37395D01*
X131588Y37001D01*
X132283Y36863D01*
X137402D01*
X138096Y37001D01*
X138686Y37395D01*
X138794Y37557D01*
X173944D01*
X173944Y37557D01*
X174373Y37643D01*
X174737Y37886D01*
X203554Y66703D01*
X204136Y66578D01*
X204342Y66269D01*
X204834Y65940D01*
X205413Y65825D01*
X209154D01*
X209733Y65940D01*
X210225Y66269D01*
X210478Y66648D01*
X210960Y66728D01*
X211045Y66721D01*
X211502Y66415D01*
X212205Y66275D01*
X212907Y66415D01*
X213502Y66812D01*
X213900Y67408D01*
X214040Y68110D01*
X213900Y68813D01*
X213502Y69408D01*
X212907Y69806D01*
X212205Y69946D01*
X211502Y69806D01*
X211107Y69542D01*
X210657Y69842D01*
X210668Y69899D01*
X210553Y70479D01*
X210310Y70843D01*
X210257Y71179D01*
X210310Y71515D01*
X210553Y71878D01*
X210668Y72458D01*
X210553Y73038D01*
X210457Y73182D01*
X210715Y73665D01*
X211188Y73674D01*
X211301Y73505D01*
X211896Y73108D01*
X212598Y72968D01*
X213301Y73108D01*
X213896Y73505D01*
X214294Y74101D01*
X214434Y74803D01*
X214294Y75506D01*
X213896Y76101D01*
X213301Y76499D01*
X212598Y76638D01*
X211896Y76499D01*
X211301Y76101D01*
X211183Y75925D01*
X210572D01*
X210274Y76400D01*
X210310Y76633D01*
X210553Y76997D01*
X210668Y77576D01*
X210583Y78004D01*
X210782Y78385D01*
X210785Y78389D01*
X210913Y78518D01*
X211468Y78628D01*
X211998Y78982D01*
X214539Y81524D01*
X214893Y82053D01*
X215389Y81982D01*
D02*
G37*
G36*
X92390Y101711D02*
X94752Y99349D01*
X102626D01*
Y90687D01*
X82153D01*
Y105648D01*
X86482D01*
X86647Y105249D01*
X87106Y105059D01*
X90847D01*
X91306Y105249D01*
X91471Y105648D01*
X92390D01*
Y101711D01*
D02*
G37*
G36*
X261925Y194361D02*
X260142Y193820D01*
X258499Y192942D01*
X257059Y191760D01*
X255877Y190320D01*
X254999Y188676D01*
X254458Y186893D01*
X254275Y185039D01*
X254458Y183185D01*
X254999Y181402D01*
X255877Y179759D01*
X257059Y178319D01*
X258499Y177137D01*
X260142Y176259D01*
X261925Y175718D01*
X263779Y175535D01*
X265634Y175718D01*
X267417Y176259D01*
X269060Y177137D01*
X270500Y178319D01*
X271682Y179759D01*
X272560Y181402D01*
X273101Y183185D01*
X273584Y183108D01*
Y141732D01*
X136614Y141732D01*
X102088Y107206D01*
X94480D01*
X94021Y107016D01*
X93831Y106557D01*
Y106430D01*
X82283D01*
X82284Y194843D01*
X261848Y194843D01*
X261925Y194361D01*
D02*
G37*
G36*
X273584Y13742D02*
X273101Y13665D01*
X272560Y15448D01*
X271682Y17091D01*
X270500Y18531D01*
X269060Y19713D01*
X267417Y20592D01*
X265634Y21132D01*
X263779Y21315D01*
X261925Y21132D01*
X260142Y20592D01*
X258499Y19713D01*
X257059Y18531D01*
X255877Y17091D01*
X254999Y15448D01*
X254458Y13665D01*
X254275Y11811D01*
X254458Y9957D01*
X254999Y8174D01*
X255877Y6531D01*
X257059Y5091D01*
X258499Y3909D01*
X260142Y3030D01*
X261925Y2490D01*
X261848Y2007D01*
X240608D01*
X240508Y2507D01*
X240852Y2649D01*
X241042Y3109D01*
Y10509D01*
X240852Y10968D01*
X240393Y11158D01*
X238324D01*
Y32474D01*
X242688Y36837D01*
X242798Y36808D01*
X243150Y36592D01*
Y33563D01*
X243340Y33104D01*
X243799Y32914D01*
X247539D01*
X247999Y33104D01*
X248189Y33563D01*
Y35579D01*
X253336Y40727D01*
X254469D01*
Y38698D01*
X254659Y38239D01*
X255118Y38049D01*
X260630D01*
X261089Y38239D01*
X261279Y38698D01*
Y44210D01*
X261089Y44669D01*
X260630Y44860D01*
X255118D01*
X254659Y44669D01*
X254469Y44210D01*
Y42970D01*
X252872D01*
X252443Y42884D01*
X252079Y42641D01*
X252079Y42641D01*
X248689Y39251D01*
X248189Y39458D01*
Y42028D01*
X247999Y42487D01*
X247539Y42677D01*
X247301D01*
Y58257D01*
X247365Y58353D01*
X247505Y59055D01*
X247365Y59757D01*
X247301Y59854D01*
Y62047D01*
X247539D01*
X247999Y62238D01*
X248189Y62697D01*
Y65847D01*
X247999Y66306D01*
X247539Y66496D01*
X244362D01*
X244155Y66996D01*
X244522Y67362D01*
X247539D01*
X247999Y67553D01*
X248189Y68012D01*
Y68581D01*
X254075D01*
Y67045D01*
X254265Y66586D01*
X254724Y66395D01*
X260236D01*
X260695Y66586D01*
X260886Y67045D01*
Y72557D01*
X260695Y73016D01*
X260236Y73206D01*
X254724D01*
X254265Y73016D01*
X254075Y72557D01*
Y70824D01*
X248189D01*
Y71161D01*
X247999Y71621D01*
X247539Y71811D01*
X244523D01*
X244331Y72273D01*
X247250Y75191D01*
X247250Y75191D01*
X247493Y75555D01*
X247578Y75984D01*
X247578Y75984D01*
Y90000D01*
X247933D01*
X248392Y90190D01*
X248583Y90650D01*
Y92272D01*
X252942Y96632D01*
X254075D01*
Y94604D01*
X254265Y94145D01*
X254724Y93954D01*
X260236D01*
X260695Y94145D01*
X260886Y94604D01*
Y100116D01*
X260695Y100575D01*
X260236Y100765D01*
X254724D01*
X254265Y100575D01*
X254075Y100116D01*
Y98875D01*
X252478D01*
X252478Y98875D01*
X252049Y98790D01*
X251685Y98547D01*
X251685Y98547D01*
X249068Y95930D01*
X248583Y96151D01*
Y99114D01*
X248392Y99573D01*
X247933Y99764D01*
X247694D01*
Y104713D01*
X247759Y104809D01*
X247898Y105512D01*
X247759Y106214D01*
X247694Y106310D01*
Y112047D01*
X247933D01*
X248392Y112238D01*
X248583Y112697D01*
Y115847D01*
X248392Y116306D01*
X247933Y116496D01*
X244193D01*
X244169Y116512D01*
X244136Y116989D01*
X244494Y117362D01*
X247933D01*
X248392Y117553D01*
X248583Y118012D01*
Y118662D01*
X252738D01*
X252739Y118662D01*
X253168Y118747D01*
X253511Y118976D01*
X253563Y118966D01*
X253930Y118681D01*
X253821Y118419D01*
X253758Y117939D01*
X256980D01*
Y121161D01*
X256500Y121098D01*
X256238Y120989D01*
X255954Y121413D01*
X256449Y121907D01*
X260236D01*
X260695Y122098D01*
X260886Y122557D01*
Y128068D01*
X260695Y128528D01*
X260236Y128718D01*
X254724D01*
X254265Y128528D01*
X254075Y128068D01*
Y122706D01*
X252274Y120905D01*
X248583D01*
Y121161D01*
X248392Y121621D01*
X247933Y121811D01*
X244193D01*
X243734Y121621D01*
X243544Y121161D01*
Y119637D01*
X242120Y118214D01*
X241877Y117850D01*
X241792Y117421D01*
X241792Y117421D01*
Y75268D01*
X241162Y74638D01*
X240838Y74750D01*
X240685Y74868D01*
Y75976D01*
X237795D01*
Y76976D01*
X240685D01*
Y78150D01*
X240607Y78540D01*
X240386Y78871D01*
X240055Y79092D01*
X240008Y79611D01*
X240125Y79659D01*
X240315Y80118D01*
Y83465D01*
X240125Y83924D01*
X239665Y84114D01*
X239427D01*
Y85816D01*
X239491Y85912D01*
X239631Y86614D01*
X239491Y87317D01*
X239427Y87413D01*
Y96850D01*
X239302Y97475D01*
X238949Y98004D01*
X228319Y108634D01*
X227790Y108987D01*
X227165Y109112D01*
X198582D01*
Y109466D01*
X198392Y109925D01*
X197933Y110116D01*
X194193D01*
X193734Y109925D01*
X193544Y109466D01*
Y106317D01*
X193734Y105857D01*
X194193Y105667D01*
X197933D01*
X198372Y105849D01*
X211754D01*
Y83353D01*
X211150Y82749D01*
X210622Y82928D01*
X210553Y83274D01*
X210225Y83766D01*
Y84182D01*
X210553Y84674D01*
X210668Y85254D01*
X210553Y85833D01*
X210310Y86197D01*
X210257Y86533D01*
X210310Y86869D01*
X210553Y87233D01*
X210668Y87813D01*
X210553Y88392D01*
X210225Y88884D01*
Y89300D01*
X210553Y89792D01*
X210668Y90372D01*
X210553Y90951D01*
X210225Y91443D01*
X209733Y91771D01*
X209154Y91887D01*
X205413D01*
X204834Y91771D01*
X204417Y91493D01*
X198398D01*
X195577Y94314D01*
X195577Y94314D01*
X195577Y94314D01*
X192952Y96939D01*
Y101455D01*
X193544D01*
Y101002D01*
X193734Y100542D01*
X194193Y100352D01*
X197933D01*
X198392Y100542D01*
X198582Y101002D01*
Y104151D01*
X198392Y104610D01*
X197933Y104801D01*
X194193D01*
X193734Y104610D01*
X193544Y104151D01*
Y103698D01*
X191102D01*
Y104151D01*
X190912Y104610D01*
X190453Y104801D01*
Y105297D01*
X190843Y105375D01*
X191174Y105596D01*
X191395Y105926D01*
X191472Y106317D01*
Y107391D01*
X188583D01*
X185693D01*
Y106317D01*
X185771Y105926D01*
X185992Y105596D01*
X186322Y105375D01*
X186713Y105297D01*
Y104801D01*
X186253Y104610D01*
X186063Y104151D01*
Y101002D01*
X186253Y100542D01*
X186713Y100352D01*
X190453D01*
X190709Y100181D01*
Y96474D01*
X190709Y96474D01*
X190795Y96045D01*
X191038Y95681D01*
X193990Y92728D01*
X193990Y92728D01*
X196960Y89759D01*
X196825Y89209D01*
X196761Y89193D01*
X183980Y101974D01*
X183616Y102217D01*
X183187Y102303D01*
X183187Y102303D01*
X180849D01*
X180724Y102454D01*
Y104710D01*
X177342D01*
Y105210D01*
X176842D01*
Y108986D01*
X174980D01*
X174590Y108908D01*
X174259Y108687D01*
X174038Y108356D01*
X173519Y108309D01*
X173471Y108425D01*
X173012Y108616D01*
X172873D01*
Y110866D01*
X173425D01*
X173884Y111056D01*
X173933Y111173D01*
X174452Y111126D01*
X174673Y110795D01*
X175004Y110574D01*
X175394Y110496D01*
X176567D01*
Y113386D01*
Y116276D01*
X175394D01*
X175004Y116198D01*
X174673Y115977D01*
X174452Y115646D01*
X173933Y115599D01*
X173884Y115715D01*
X173425Y115905D01*
X170079D01*
X169620Y115715D01*
X169429Y115256D01*
Y111516D01*
X169620Y111056D01*
X170079Y110866D01*
X170630D01*
Y108616D01*
X168287D01*
X167828Y108425D01*
X167638Y107966D01*
Y102454D01*
X167828Y101995D01*
X168287Y101805D01*
X172469D01*
X173594Y100679D01*
X173555Y100591D01*
X173300Y100267D01*
X173012Y100324D01*
X171150D01*
Y96549D01*
Y92773D01*
X173012D01*
X173402Y92851D01*
X173733Y93072D01*
X173954Y93403D01*
X174473Y93450D01*
X174521Y93334D01*
X174980Y93143D01*
X175552D01*
Y90824D01*
X175000D01*
X174541Y90634D01*
X174493Y90518D01*
X173974Y90565D01*
X173752Y90896D01*
X173422Y91117D01*
X173031Y91194D01*
X171858D01*
Y88305D01*
Y85415D01*
X173031D01*
X173422Y85493D01*
X173752Y85714D01*
X173974Y86045D01*
X174493Y86092D01*
X174541Y85975D01*
X175000Y85785D01*
X178347D01*
X178806Y85975D01*
X178996Y86435D01*
Y90175D01*
X178806Y90634D01*
X178347Y90824D01*
X177795D01*
Y93143D01*
X179705D01*
X180164Y93334D01*
X180354Y93793D01*
Y97697D01*
X181541D01*
X193950Y85288D01*
X193704Y84827D01*
X193307Y84906D01*
X192605Y84766D01*
X192009Y84369D01*
X191612Y83773D01*
X191472Y83071D01*
X191581Y82524D01*
X191287Y82024D01*
X190945D01*
X190555Y81946D01*
X190224Y81725D01*
X190003Y81394D01*
X189925Y81004D01*
Y79634D01*
X192618D01*
Y79134D01*
X193118D01*
Y76244D01*
X193702D01*
X193910Y75744D01*
X193141Y74976D01*
X127176D01*
X127080Y75040D01*
X126378Y75179D01*
X125676Y75040D01*
X125580Y74976D01*
X119842D01*
Y75214D01*
X119652Y75673D01*
X119348Y75799D01*
Y89114D01*
X141339D01*
X141798Y89305D01*
X141988Y89764D01*
Y91354D01*
X141960Y91423D01*
X141972Y91496D01*
X141867Y91645D01*
X141798Y91813D01*
X141729Y91842D01*
X141686Y91903D01*
X141275Y92163D01*
X141070Y92199D01*
X140871Y92262D01*
X140782Y92254D01*
X140749Y92237D01*
X140712Y92244D01*
X140157Y92134D01*
X139709Y92223D01*
X139328Y92478D01*
X139074Y92858D01*
X138984Y93307D01*
X139074Y93756D01*
X139328Y94137D01*
X139709Y94391D01*
X140157Y94480D01*
X140712Y94370D01*
X140749Y94377D01*
X140782Y94360D01*
X140871Y94352D01*
X141070Y94415D01*
X141275Y94451D01*
X141686Y94712D01*
X141729Y94772D01*
X141798Y94801D01*
X141867Y94969D01*
X141972Y95118D01*
X141960Y95191D01*
X141988Y95260D01*
Y112391D01*
X142454Y112572D01*
X142913Y112382D01*
X146260D01*
X146719Y112572D01*
X146767Y112689D01*
X147286Y112642D01*
X147507Y112311D01*
X147838Y112090D01*
X148228Y112012D01*
X149402D01*
Y114902D01*
Y117791D01*
X148228D01*
X147838Y117714D01*
X147507Y117493D01*
X147286Y117162D01*
X146767Y117115D01*
X146719Y117231D01*
X146260Y117421D01*
X142913D01*
X142454Y117231D01*
X141988Y117412D01*
Y135039D01*
Y136163D01*
Y140157D01*
X141869Y140445D01*
X142123Y140945D01*
X147667D01*
X147801Y141083D01*
X153680D01*
X153721Y140945D01*
X153937D01*
Y137541D01*
X154961D01*
X157185D01*
Y138714D01*
X157015Y139565D01*
X156533Y140287D01*
X156090Y140583D01*
X156242Y141083D01*
X210633Y141083D01*
X210785Y140583D01*
X210613Y140468D01*
X210131Y139746D01*
X209961Y138895D01*
Y137722D01*
X212185D01*
X214409D01*
Y138895D01*
X214240Y139746D01*
X213757Y140468D01*
X213585Y140583D01*
X213737Y141083D01*
X216490D01*
X216539Y140583D01*
X216490Y140573D01*
X215901Y140179D01*
X215507Y139590D01*
X215369Y138895D01*
Y135549D01*
X215507Y134854D01*
X215901Y134265D01*
X216063Y134156D01*
Y130851D01*
X216025Y130825D01*
X215627Y130230D01*
X215488Y129528D01*
X215627Y128825D01*
X216025Y128230D01*
X216620Y127832D01*
X217323Y127692D01*
X218025Y127832D01*
X218621Y128230D01*
X219018Y128825D01*
X219158Y129528D01*
X219018Y130230D01*
X218621Y130825D01*
X218307Y131035D01*
Y134156D01*
X218469Y134265D01*
X218863Y134854D01*
X219001Y135549D01*
Y138895D01*
X218863Y139590D01*
X218469Y140179D01*
X217880Y140573D01*
X217831Y140583D01*
X217880Y141083D01*
X221490D01*
X221539Y140583D01*
X221490Y140573D01*
X220901Y140179D01*
X220507Y139590D01*
X220369Y138895D01*
Y135549D01*
X220507Y134854D01*
X220901Y134265D01*
X220926Y134248D01*
Y131730D01*
X220749Y131613D01*
X220352Y131017D01*
X220212Y130315D01*
X220352Y129613D01*
X220749Y129017D01*
X221345Y128619D01*
X222047Y128480D01*
X222750Y128619D01*
X223345Y129017D01*
X223743Y129613D01*
X223883Y130315D01*
X223743Y131017D01*
X223345Y131613D01*
X223169Y131730D01*
Y134064D01*
X223469Y134265D01*
X223863Y134854D01*
X224001Y135549D01*
Y138895D01*
X223863Y139590D01*
X223469Y140179D01*
X222880Y140573D01*
X222831Y140583D01*
X222880Y141083D01*
X226490D01*
X226539Y140583D01*
X226490Y140573D01*
X225901Y140179D01*
X225507Y139590D01*
X225369Y138895D01*
Y135549D01*
X225507Y134854D01*
X225901Y134265D01*
X226490Y133871D01*
X227185Y133733D01*
X227880Y133871D01*
X228469Y134265D01*
X228863Y134854D01*
X228987Y135477D01*
X232189D01*
X232356Y135074D01*
X232815Y134884D01*
Y134387D01*
X232425Y134310D01*
X232094Y134089D01*
X231873Y133758D01*
X231795Y133368D01*
Y132293D01*
X234685D01*
X237575D01*
Y133368D01*
X237497Y133758D01*
X237276Y134089D01*
X236945Y134310D01*
X236555Y134387D01*
Y134884D01*
X237014Y135074D01*
X237205Y135533D01*
Y138683D01*
X237014Y139142D01*
X236555Y139332D01*
X232815D01*
X232356Y139142D01*
X232189Y138739D01*
X229001D01*
Y138895D01*
X228863Y139590D01*
X228469Y140179D01*
X227880Y140573D01*
X227831Y140583D01*
X227880Y141083D01*
X273584Y141083D01*
Y13742D01*
D02*
G37*
G36*
X102482Y89987D02*
X102667Y89523D01*
X102760Y89428D01*
X102811Y89305D01*
X102927Y89257D01*
X103014Y89167D01*
X103147Y89165D01*
X103270Y89114D01*
X116085D01*
Y75864D01*
X116043D01*
X115584Y75673D01*
X115394Y75214D01*
Y71474D01*
X115584Y71015D01*
X116043Y70825D01*
X119193D01*
X119652Y71015D01*
X119842Y71474D01*
Y71713D01*
X125580D01*
X125676Y71649D01*
X126378Y71509D01*
X127080Y71649D01*
X127176Y71713D01*
X154373D01*
Y68754D01*
X153970Y68587D01*
X153780Y68128D01*
Y64387D01*
X153970Y63928D01*
X154429Y63738D01*
X157579D01*
X158038Y63928D01*
X158228Y64387D01*
Y68128D01*
X158038Y68587D01*
X157635Y68754D01*
Y71713D01*
X171499D01*
Y68754D01*
X171096Y68587D01*
X170906Y68128D01*
Y64387D01*
X171096Y63928D01*
X171555Y63738D01*
X174705D01*
X175164Y63928D01*
X175354Y64387D01*
Y68128D01*
X175164Y68587D01*
X174761Y68754D01*
Y71713D01*
X193816D01*
X194441Y71837D01*
X194970Y72191D01*
X199382Y76602D01*
X199390Y76614D01*
X199606D01*
X200065Y76805D01*
X200256Y77264D01*
Y78504D01*
X202589D01*
X202796Y78004D01*
X185478Y60686D01*
X169055D01*
Y61435D01*
X168865Y61894D01*
X168405Y62084D01*
X167952D01*
Y63738D01*
X169390D01*
X169849Y63928D01*
X170039Y64387D01*
Y68128D01*
X169849Y68587D01*
X169390Y68777D01*
X166240D01*
X165781Y68587D01*
X165591Y68128D01*
Y64387D01*
X165709Y64101D01*
Y62084D01*
X165256D01*
X164797Y61894D01*
X164606Y61435D01*
Y57695D01*
X164797Y57235D01*
X165256Y57045D01*
X166693D01*
Y55391D01*
X166240D01*
X165781Y55201D01*
X165591Y54742D01*
Y51002D01*
X165781Y50542D01*
X166240Y50352D01*
X166287D01*
X166439Y49852D01*
X166419Y49839D01*
X166021Y49243D01*
X165881Y48541D01*
X166021Y47839D01*
X166419Y47243D01*
X167014Y46845D01*
X167717Y46706D01*
X168419Y46845D01*
X169014Y47243D01*
X169412Y47839D01*
X169552Y48541D01*
X169412Y49243D01*
X169014Y49839D01*
X168994Y49852D01*
X169146Y50352D01*
X169390D01*
X169849Y50542D01*
X170039Y51002D01*
X170536D01*
X170613Y50611D01*
X170834Y50281D01*
X171165Y50060D01*
X171555Y49982D01*
X172630D01*
Y52872D01*
Y55761D01*
X171555D01*
X171165Y55684D01*
X170834Y55463D01*
X170613Y55132D01*
X170536Y54742D01*
X170039D01*
X169849Y55201D01*
X169390Y55391D01*
X168937D01*
Y57409D01*
X169055Y57695D01*
Y58443D01*
X185942D01*
X185942Y58443D01*
X186372Y58528D01*
X186736Y58772D01*
X203490Y75526D01*
X203951Y75279D01*
X203899Y75017D01*
X204014Y74438D01*
X204253Y74080D01*
X204082Y73640D01*
X204031Y73580D01*
X203954D01*
X203954Y73580D01*
X203525Y73494D01*
X203161Y73251D01*
X203161Y73251D01*
X173667Y43757D01*
X159499D01*
X159281Y44257D01*
X159570Y44689D01*
X159709Y45391D01*
X159668Y45599D01*
X161718Y47649D01*
X161961Y48013D01*
X162047Y48443D01*
X162047Y48443D01*
Y50352D01*
X162500D01*
X162959Y50542D01*
X163149Y51002D01*
Y54742D01*
X162959Y55201D01*
X162500Y55391D01*
X162047D01*
Y57045D01*
X163091D01*
X163550Y57235D01*
X163740Y57695D01*
Y61435D01*
X163550Y61894D01*
X163091Y62084D01*
X162441D01*
Y63738D01*
X162894D01*
X163353Y63928D01*
X163543Y64387D01*
Y68128D01*
X163353Y68587D01*
X162894Y68777D01*
X159744D01*
X159285Y68587D01*
X159095Y68128D01*
Y64387D01*
X159285Y63928D01*
X159744Y63738D01*
X160197D01*
Y62084D01*
X159941D01*
X159482Y61894D01*
X159292Y61435D01*
Y57695D01*
X159482Y57235D01*
X159804Y57102D01*
Y55391D01*
X159350D01*
X158891Y55201D01*
X158701Y54742D01*
X158205D01*
X158127Y55132D01*
X157906Y55463D01*
X157575Y55684D01*
X157185Y55761D01*
X156110D01*
Y52872D01*
Y49982D01*
X157185D01*
X157575Y50060D01*
X157906Y50281D01*
X158127Y50611D01*
X158205Y51002D01*
X158701D01*
X158891Y50542D01*
X159350Y50352D01*
X159804D01*
Y48907D01*
X158082Y47185D01*
X157874Y47227D01*
X157172Y47087D01*
X156576Y46689D01*
X156178Y46094D01*
X156039Y45391D01*
X156178Y44689D01*
X156467Y44257D01*
X156249Y43757D01*
X154402D01*
X143687Y54472D01*
X143323Y54715D01*
X142894Y54800D01*
X142894Y54800D01*
X138794D01*
X138686Y54963D01*
X138096Y55357D01*
X137402Y55495D01*
X132283D01*
X131588Y55357D01*
X131143Y55059D01*
X124250D01*
X124132Y55235D01*
X123537Y55633D01*
X122835Y55772D01*
X122132Y55633D01*
X121537Y55235D01*
X121139Y54639D01*
X120999Y53937D01*
X121139Y53235D01*
X121537Y52639D01*
X122132Y52241D01*
X122835Y52102D01*
X123537Y52241D01*
X124132Y52639D01*
X124250Y52816D01*
X130718D01*
X130999Y52395D01*
X131588Y52001D01*
X132283Y51863D01*
X137402D01*
X138096Y52001D01*
X138686Y52395D01*
X138794Y52557D01*
X142429D01*
X153144Y41842D01*
X153144Y41842D01*
X153508Y41599D01*
X153937Y41514D01*
X174132D01*
X174132Y41514D01*
X174561Y41599D01*
X174591Y41620D01*
X174910Y41231D01*
X173479Y39800D01*
X138794D01*
X138686Y39963D01*
X138096Y40356D01*
X137402Y40495D01*
X132351D01*
X131160Y41686D01*
X131479Y42074D01*
X131588Y42001D01*
X132283Y41863D01*
X137402D01*
X138096Y42001D01*
X138686Y42395D01*
X138794Y42557D01*
X142148D01*
X142211Y42515D01*
X142913Y42375D01*
X143616Y42515D01*
X144211Y42913D01*
X144609Y43508D01*
X144749Y44210D01*
X144609Y44913D01*
X144211Y45508D01*
X143616Y45906D01*
X142913Y46046D01*
X142211Y45906D01*
X141616Y45508D01*
X141218Y44913D01*
X141195Y44800D01*
X138794D01*
X138686Y44963D01*
X138096Y45357D01*
X137402Y45495D01*
X132283D01*
X131588Y45357D01*
X130999Y44963D01*
X130606Y44374D01*
X130467Y43679D01*
X130606Y42984D01*
X130679Y42874D01*
X130291Y42555D01*
X101085Y71761D01*
X101277Y72223D01*
X110079D01*
Y71474D01*
X110269Y71015D01*
X110728Y70825D01*
X113878D01*
X114337Y71015D01*
X114527Y71474D01*
Y75214D01*
X114337Y75673D01*
X113878Y75864D01*
X110728D01*
X110269Y75673D01*
X110079Y75214D01*
Y74466D01*
X100742D01*
X96857Y78351D01*
X96493Y78594D01*
X96064Y78680D01*
X96064Y78680D01*
X91848D01*
X91586Y79142D01*
X91537Y79261D01*
Y79390D01*
X91446Y79482D01*
X91396Y79601D01*
X82146Y88852D01*
Y90033D01*
X82153Y90038D01*
X102432D01*
X102482Y89987D01*
D02*
G37*
G36*
X219962Y80986D02*
X220557Y80588D01*
X221260Y80448D01*
X221962Y80588D01*
X222558Y80986D01*
X222675Y81162D01*
X227010D01*
X227199Y80809D01*
X227232Y80662D01*
X227127Y80135D01*
X227242Y79556D01*
X227541Y79109D01*
X227282Y78936D01*
X226865Y78312D01*
X226818Y78076D01*
X230512D01*
Y77076D01*
X226689D01*
X226353Y76852D01*
X226293Y76892D01*
X225590Y77032D01*
X224888Y76892D01*
X224293Y76495D01*
X223895Y75899D01*
X223755Y75197D01*
X223895Y74494D01*
X224293Y73899D01*
X224888Y73501D01*
X225590Y73362D01*
X226293Y73501D01*
X226849Y73873D01*
X227226Y73781D01*
X227414Y73296D01*
X227242Y73038D01*
X227127Y72458D01*
X227242Y71878D01*
X227485Y71515D01*
X227538Y71179D01*
X227485Y70843D01*
X227242Y70479D01*
X227127Y69899D01*
X227242Y69319D01*
X227571Y68828D01*
Y68411D01*
X227242Y67920D01*
X227127Y67340D01*
X227242Y66760D01*
X227571Y66269D01*
X228062Y65940D01*
X228642Y65825D01*
X232382D01*
X232962Y65940D01*
X233378Y66219D01*
X242763D01*
X243059Y65934D01*
X243150Y65756D01*
Y62697D01*
X243340Y62238D01*
X243799Y62047D01*
X244038D01*
Y59854D01*
X243974Y59757D01*
X243834Y59055D01*
X243974Y58353D01*
X244038Y58257D01*
Y42677D01*
X243799D01*
X243340Y42487D01*
X243150Y42028D01*
Y41844D01*
X242941Y41705D01*
X235539Y34303D01*
X235186Y33774D01*
X235062Y33150D01*
Y11158D01*
X232993D01*
X232534Y10968D01*
X232344Y10509D01*
Y3109D01*
X232534Y2649D01*
X232877Y2507D01*
X232778Y2007D01*
X226995D01*
X226962Y2507D01*
X227815Y2619D01*
X228861Y3053D01*
X229760Y3742D01*
X230449Y4640D01*
X230882Y5686D01*
X231030Y6809D01*
X230882Y7931D01*
X230449Y8977D01*
X229760Y9876D01*
X228861Y10565D01*
X227815Y10998D01*
X226693Y11146D01*
X225570Y10998D01*
X224524Y10565D01*
X223626Y9876D01*
X222937Y8977D01*
X222504Y7931D01*
X222356Y6809D01*
X222504Y5686D01*
X222937Y4640D01*
X223626Y3742D01*
X224524Y3053D01*
X225570Y2619D01*
X226424Y2507D01*
X226391Y2007D01*
X216995D01*
X216962Y2507D01*
X217815Y2619D01*
X218862Y3053D01*
X219760Y3742D01*
X220449Y4640D01*
X220882Y5686D01*
X221030Y6809D01*
X220882Y7931D01*
X220449Y8977D01*
X219760Y9876D01*
X219232Y10281D01*
Y81179D01*
X219732Y81330D01*
X219962Y80986D01*
D02*
G37*
G36*
X81496Y88583D02*
X90937Y79142D01*
X90746Y78680D01*
X75203D01*
X70908Y82975D01*
X71088Y83408D01*
Y86508D01*
X70898Y86967D01*
X69348Y88517D01*
X68889Y88708D01*
X65789D01*
X65329Y88517D01*
X63779Y86967D01*
X63589Y86508D01*
Y83408D01*
X63779Y82949D01*
X65329Y81399D01*
X65789Y81209D01*
X68889D01*
X69322Y81388D01*
X73169Y77542D01*
X72978Y77080D01*
X70879D01*
X70570Y77824D01*
X69977Y78597D01*
X69204Y79190D01*
X68305Y79563D01*
X67339Y79690D01*
X66373Y79563D01*
X65473Y79190D01*
X64700Y78597D01*
X64107Y77824D01*
X63734Y76924D01*
X63607Y75958D01*
X63734Y74992D01*
X64107Y74092D01*
X64700Y73319D01*
X65473Y72726D01*
X66373Y72354D01*
X67339Y72226D01*
X68305Y72354D01*
X69204Y72726D01*
X69977Y73319D01*
X70570Y74092D01*
X70879Y74837D01*
X94837D01*
X114567Y55107D01*
X114567Y19010D01*
X114067Y18699D01*
X113878Y18777D01*
X110728D01*
X110269Y18587D01*
X110079Y18128D01*
Y17379D01*
X91504D01*
X70908Y37975D01*
X71088Y38408D01*
Y41508D01*
X70898Y41967D01*
X69348Y43518D01*
X68889Y43708D01*
X65789D01*
X65329Y43518D01*
X63779Y41967D01*
X63589Y41508D01*
Y38408D01*
X63779Y37949D01*
X65329Y36399D01*
X65789Y36209D01*
X68889D01*
X69322Y36388D01*
X90246Y15464D01*
X90246Y15464D01*
X90610Y15221D01*
X91039Y15136D01*
X91039Y15136D01*
X110079D01*
Y14387D01*
X110269Y13928D01*
X110728Y13738D01*
X113878D01*
X114067Y13816D01*
X114567Y13505D01*
X114567Y2007D01*
X13742D01*
X13665Y2490D01*
X15448Y3030D01*
X17091Y3909D01*
X18531Y5091D01*
X19713Y6531D01*
X20592Y8174D01*
X21132Y9957D01*
X21315Y11811D01*
X21132Y13665D01*
X20592Y15448D01*
X19713Y17091D01*
X18531Y18531D01*
X17091Y19713D01*
X15448Y20592D01*
X13665Y21132D01*
X11811Y21315D01*
X9957Y21132D01*
X8174Y20592D01*
X6531Y19713D01*
X5091Y18531D01*
X3909Y17091D01*
X3030Y15448D01*
X2490Y13665D01*
X2007Y13742D01*
Y183108D01*
X2490Y183185D01*
X3030Y181402D01*
X3909Y179759D01*
X5091Y178319D01*
X6531Y177137D01*
X8174Y176259D01*
X9957Y175718D01*
X11811Y175535D01*
X13665Y175718D01*
X15448Y176259D01*
X17091Y177137D01*
X18531Y178319D01*
X19713Y179759D01*
X20592Y181402D01*
X21132Y183185D01*
X21315Y185039D01*
X21132Y186893D01*
X20592Y188676D01*
X19713Y190320D01*
X18531Y191760D01*
X17091Y192942D01*
X15448Y193820D01*
X13665Y194361D01*
X13742Y194843D01*
X81496Y194843D01*
Y88583D01*
D02*
G37*
%LPC*%
G36*
X123228Y95142D02*
X122526Y95003D01*
X121931Y94605D01*
X121533Y94009D01*
X121393Y93307D01*
X121533Y92605D01*
X121931Y92009D01*
X122526Y91611D01*
X123228Y91472D01*
X123931Y91611D01*
X124526Y92009D01*
X124924Y92605D01*
X125064Y93307D01*
X124924Y94009D01*
X124526Y94605D01*
X123931Y95003D01*
X123228Y95142D01*
D02*
G37*
G36*
X134343Y35903D02*
X132283D01*
X131432Y35733D01*
X130711Y35251D01*
X130229Y34530D01*
X130159Y34179D01*
X134343D01*
Y35903D01*
D02*
G37*
G36*
X137402D02*
X135343D01*
Y34179D01*
X139526D01*
X139456Y34530D01*
X138974Y35251D01*
X138253Y35733D01*
X137402Y35903D01*
D02*
G37*
G36*
X162437Y19301D02*
X160146D01*
Y16813D01*
X161417D01*
X161808Y16890D01*
X162138Y17111D01*
X162359Y17442D01*
X162437Y17832D01*
Y19301D01*
D02*
G37*
G36*
X159146D02*
X156854D01*
Y17832D01*
X156932Y17442D01*
X157153Y17111D01*
X157484Y16890D01*
X157874Y16813D01*
X159146D01*
Y19301D01*
D02*
G37*
G36*
X146063Y13832D02*
X144595D01*
Y11639D01*
X147083D01*
Y12813D01*
X147005Y13203D01*
X146784Y13534D01*
X146453Y13755D01*
X146063Y13832D01*
D02*
G37*
G36*
X175287Y19301D02*
X172996D01*
Y17832D01*
X173074Y17442D01*
X173295Y17111D01*
X173626Y16890D01*
X174016Y16813D01*
X175287D01*
Y19301D01*
D02*
G37*
G36*
X159146Y22789D02*
X157874D01*
X157484Y22711D01*
X157153Y22490D01*
X156932Y22160D01*
X156854Y21769D01*
Y20301D01*
X159146D01*
Y22789D01*
D02*
G37*
G36*
X178579Y19301D02*
X176287D01*
Y16813D01*
X177559D01*
X177949Y16890D01*
X178280Y17111D01*
X178501Y17442D01*
X178579Y17832D01*
Y19301D01*
D02*
G37*
G36*
X186193Y11483D02*
X185466Y11388D01*
X184323Y10914D01*
X183341Y10161D01*
X182588Y9179D01*
X182114Y8036D01*
X182018Y7309D01*
X186193D01*
Y11483D01*
D02*
G37*
G36*
X172575Y4832D02*
X170185D01*
Y2640D01*
X171555D01*
X171945Y2717D01*
X172276Y2938D01*
X172497Y3269D01*
X172575Y3659D01*
Y4832D01*
D02*
G37*
G36*
X169185D02*
X166795D01*
Y3659D01*
X166873Y3269D01*
X167094Y2938D01*
X167425Y2717D01*
X167815Y2640D01*
X169185D01*
Y4832D01*
D02*
G37*
G36*
X196193Y11483D02*
X195466Y11388D01*
X194323Y10914D01*
X193341Y10161D01*
X192587Y9179D01*
X192114Y8036D01*
X192018Y7309D01*
X196193D01*
Y11483D01*
D02*
G37*
G36*
X143595Y13832D02*
X142126D01*
X141736Y13755D01*
X141405Y13534D01*
X141184Y13203D01*
X141106Y12813D01*
Y11639D01*
X143595D01*
Y13832D01*
D02*
G37*
G36*
X197193Y11483D02*
Y7309D01*
X201368D01*
X201272Y8036D01*
X200798Y9179D01*
X200045Y10161D01*
X199063Y10914D01*
X197920Y11388D01*
X197193Y11483D01*
D02*
G37*
G36*
X187193D02*
Y7309D01*
X191368D01*
X191272Y8036D01*
X190798Y9179D01*
X190045Y10161D01*
X189063Y10914D01*
X187920Y11388D01*
X187193Y11483D01*
D02*
G37*
G36*
X139526Y33179D02*
X135343D01*
Y31455D01*
X137402D01*
X138253Y31624D01*
X138974Y32106D01*
X139456Y32828D01*
X139526Y33179D01*
D02*
G37*
G36*
X134343D02*
X130159D01*
X130229Y32828D01*
X130711Y32106D01*
X131432Y31624D01*
X132283Y31455D01*
X134343D01*
Y33179D01*
D02*
G37*
G36*
X147138Y35781D02*
X145768D01*
X145378Y35703D01*
X145047Y35482D01*
X144826Y35152D01*
X144748Y34761D01*
Y33588D01*
X147138D01*
Y35781D01*
D02*
G37*
G36*
X149508D02*
X148138D01*
Y33588D01*
X150528D01*
Y34761D01*
X150450Y35152D01*
X150229Y35482D01*
X149898Y35703D01*
X149508Y35781D01*
D02*
G37*
G36*
X161417Y22789D02*
X160146D01*
Y20301D01*
X162437D01*
Y21769D01*
X162359Y22160D01*
X162138Y22490D01*
X161808Y22711D01*
X161417Y22789D01*
D02*
G37*
G36*
X177559D02*
X176287D01*
Y20301D01*
X178579D01*
Y21769D01*
X178501Y22160D01*
X178280Y22490D01*
X177949Y22711D01*
X177559Y22789D01*
D02*
G37*
G36*
X175287D02*
X174016D01*
X173626Y22711D01*
X173295Y22490D01*
X173074Y22160D01*
X172996Y21769D01*
Y20301D01*
X175287D01*
Y22789D01*
D02*
G37*
G36*
X177559Y31080D02*
X174016D01*
X173556Y30890D01*
X173366Y30431D01*
Y29190D01*
X162067D01*
Y30431D01*
X161876Y30890D01*
X161417Y31080D01*
X157874D01*
X157415Y30890D01*
X157225Y30431D01*
Y26494D01*
X157415Y26035D01*
X157874Y25844D01*
X161417D01*
X161876Y26035D01*
X162067Y26494D01*
Y26947D01*
X168170D01*
Y12970D01*
X167815D01*
X167356Y12780D01*
X167166Y12320D01*
Y11887D01*
X164319D01*
Y12340D01*
X164128Y12799D01*
X163669Y12990D01*
X159929D01*
X159470Y12799D01*
X159280Y12340D01*
Y9191D01*
X159470Y8731D01*
X159929Y8541D01*
X163669D01*
X164128Y8731D01*
X164319Y9191D01*
Y9644D01*
X167166D01*
Y8974D01*
X167356Y8515D01*
X167472Y8467D01*
X167425Y7948D01*
X167094Y7727D01*
X166873Y7396D01*
X166795Y7006D01*
Y5832D01*
X169685D01*
X172575D01*
Y7006D01*
X172497Y7396D01*
X172276Y7727D01*
X171945Y7948D01*
X171898Y8467D01*
X172014Y8515D01*
X172205Y8974D01*
Y12320D01*
X172014Y12780D01*
X171555Y12970D01*
X170413D01*
Y26947D01*
X173366D01*
Y26494D01*
X173556Y26035D01*
X174016Y25844D01*
X177559D01*
X178018Y26035D01*
X178198Y26469D01*
X178216Y26497D01*
X178709Y26729D01*
X178825Y26651D01*
X179528Y26511D01*
X180230Y26651D01*
X180825Y27049D01*
X181223Y27644D01*
X181363Y28346D01*
X181223Y29049D01*
X180825Y29644D01*
X180230Y30042D01*
X179528Y30182D01*
X178825Y30042D01*
X178709Y29964D01*
X178208Y30231D01*
Y30431D01*
X178018Y30890D01*
X177559Y31080D01*
D02*
G37*
G36*
X114764Y141584D02*
X113579Y141428D01*
X112476Y140971D01*
X111528Y140244D01*
X110801Y139296D01*
X110344Y138192D01*
X110188Y137008D01*
X110344Y135824D01*
X110801Y134720D01*
X111528Y133772D01*
X112476Y133045D01*
X113579Y132588D01*
X114764Y132432D01*
X115948Y132588D01*
X117052Y133045D01*
X118000Y133772D01*
X118727Y134720D01*
X119184Y135824D01*
X119340Y137008D01*
X119184Y138192D01*
X118727Y139296D01*
X118000Y140244D01*
X117052Y140971D01*
X115948Y141428D01*
X114764Y141584D01*
D02*
G37*
G36*
X116535Y183702D02*
X115260Y183577D01*
X114034Y183205D01*
X112904Y182601D01*
X111913Y181788D01*
X111100Y180797D01*
X110496Y179667D01*
X110124Y178441D01*
X109998Y177165D01*
X110124Y175890D01*
X110496Y174664D01*
X111100Y173534D01*
X111913Y172543D01*
X112904Y171730D01*
X114034Y171126D01*
X115260Y170754D01*
X116535Y170628D01*
X117811Y170754D01*
X119037Y171126D01*
X120167Y171730D01*
X121158Y172543D01*
X121971Y173534D01*
X122575Y174664D01*
X122947Y175890D01*
X123072Y177165D01*
X122947Y178441D01*
X122575Y179667D01*
X121971Y180797D01*
X121158Y181788D01*
X120167Y182601D01*
X119037Y183205D01*
X117811Y183577D01*
X116535Y183702D01*
D02*
G37*
G36*
X231890Y188445D02*
X219685Y188445D01*
X219360Y188310D01*
X219305Y188333D01*
X219127Y188438D01*
X219080Y188426D01*
X219036Y188445D01*
X208268D01*
X207808Y188254D01*
X207618Y187795D01*
X207618Y155905D01*
X207808Y155446D01*
X208268Y155256D01*
X211851Y155256D01*
X212185Y155190D01*
X212520Y155256D01*
X214567Y155256D01*
X215026Y155446D01*
X215216Y155905D01*
Y167841D01*
X218574Y171198D01*
X219036Y171007D01*
Y155512D01*
X219226Y155053D01*
X219685Y154862D01*
X224410Y154862D01*
X224736Y154998D01*
X224738Y154994D01*
X225197Y154804D01*
X238976D01*
X239436Y154994D01*
X239626Y155453D01*
Y169291D01*
X239436Y169751D01*
X238976Y169941D01*
X236244D01*
X236221Y169946D01*
X236197Y169941D01*
X232590D01*
X232354Y170397D01*
X232359Y170432D01*
X232539Y170866D01*
Y187795D01*
X232349Y188254D01*
X231890Y188445D01*
D02*
G37*
G36*
X175591Y187657D02*
X163779Y187657D01*
X163455Y187523D01*
X163130Y187657D01*
X152756Y187657D01*
X152297Y187467D01*
X152106Y187008D01*
Y162205D01*
Y155512D01*
X152297Y155053D01*
X152756Y154862D01*
X157480D01*
X157940Y155053D01*
X158130Y155512D01*
Y165873D01*
X162668Y170411D01*
X163130Y170220D01*
Y155118D01*
X163320Y154659D01*
X163779Y154469D01*
X167237Y154469D01*
X167299Y154494D01*
X167364Y154481D01*
X167521Y154586D01*
X167696Y154659D01*
X168110Y154804D01*
X181890D01*
X182349Y154994D01*
X182539Y155453D01*
Y169291D01*
X182349Y169751D01*
X181890Y169941D01*
X179158D01*
X179134Y169946D01*
X179110Y169941D01*
X175897D01*
X175690Y170441D01*
X176050Y170801D01*
X176240Y171260D01*
X176240Y187008D01*
X176050Y187467D01*
X175591Y187657D01*
D02*
G37*
%LPD*%
G36*
X219036Y187795D02*
Y172579D01*
X214567Y168110D01*
Y155905D01*
X208268Y155905D01*
X208268Y187795D01*
X219036D01*
X219036Y187795D01*
D02*
G37*
G36*
X238976Y155453D02*
X225197D01*
X225197Y162992D01*
X231496Y169291D01*
X238976D01*
Y155453D01*
D02*
G37*
G36*
X231890Y170866D02*
X224410Y163386D01*
X224410Y155512D01*
X219685Y155512D01*
X219685Y187795D01*
X231890Y187795D01*
Y170866D01*
D02*
G37*
G36*
X181890Y155453D02*
X168110D01*
X168110Y162992D01*
X174409Y169291D01*
X181890D01*
Y155453D01*
D02*
G37*
G36*
X175591Y171260D02*
X174174Y169843D01*
X173950Y169751D01*
X167651Y163451D01*
X167461Y162992D01*
X167461Y155453D01*
X167237Y155118D01*
X163779Y155118D01*
Y187008D01*
X175591Y187008D01*
X175591Y171260D01*
D02*
G37*
G36*
X163130Y187008D02*
Y171792D01*
X157480Y166142D01*
Y155512D01*
X152756D01*
Y162205D01*
Y187008D01*
X163130Y187008D01*
D02*
G37*
%LPC*%
G36*
X256980Y61427D02*
X253758D01*
X253821Y60946D01*
X254200Y60033D01*
X254802Y59248D01*
X255586Y58646D01*
X256500Y58268D01*
X256980Y58204D01*
Y61427D01*
D02*
G37*
G36*
X192118Y78634D02*
X189925D01*
Y77264D01*
X190003Y76874D01*
X190224Y76543D01*
X190555Y76322D01*
X190945Y76244D01*
X192118D01*
Y78634D01*
D02*
G37*
G36*
X257980Y65649D02*
Y62427D01*
X261203D01*
X261140Y62907D01*
X260761Y63821D01*
X260159Y64605D01*
X259374Y65208D01*
X258461Y65586D01*
X257980Y65649D01*
D02*
G37*
G36*
X261203Y61427D02*
X257980D01*
Y58204D01*
X258461Y58268D01*
X259374Y58646D01*
X260159Y59248D01*
X260761Y60033D01*
X261140Y60946D01*
X261203Y61427D01*
D02*
G37*
G36*
X256980Y65649D02*
X256500Y65586D01*
X255586Y65208D01*
X254802Y64605D01*
X254200Y63821D01*
X253821Y62907D01*
X253758Y62427D01*
X256980D01*
Y65649D01*
D02*
G37*
G36*
X257374Y33080D02*
X254152D01*
X254215Y32600D01*
X254593Y31686D01*
X255195Y30902D01*
X255980Y30299D01*
X256893Y29921D01*
X257374Y29858D01*
Y33080D01*
D02*
G37*
G36*
X258374Y37303D02*
Y34080D01*
X261596D01*
X261533Y34561D01*
X261155Y35475D01*
X260553Y36259D01*
X259768Y36861D01*
X258855Y37240D01*
X258374Y37303D01*
D02*
G37*
G36*
X257374Y37303D02*
X256893Y37240D01*
X255980Y36861D01*
X255195Y36259D01*
X254593Y35475D01*
X254215Y34561D01*
X254152Y34080D01*
X257374D01*
Y37303D01*
D02*
G37*
G36*
X261596Y33080D02*
X258374D01*
Y29858D01*
X258855Y29921D01*
X259768Y30299D01*
X260553Y30902D01*
X261155Y31686D01*
X261533Y32600D01*
X261596Y33080D01*
D02*
G37*
G36*
X170858Y87805D02*
X168666D01*
Y86435D01*
X168743Y86045D01*
X168964Y85714D01*
X169295Y85493D01*
X169685Y85415D01*
X170858D01*
Y87805D01*
D02*
G37*
G36*
X237575Y131293D02*
X235185D01*
Y129199D01*
X236555D01*
X236945Y129276D01*
X237276Y129497D01*
X237497Y129828D01*
X237575Y130218D01*
Y131293D01*
D02*
G37*
G36*
X234185D02*
X231795D01*
Y130218D01*
X231873Y129828D01*
X232094Y129497D01*
X232425Y129276D01*
X232815Y129199D01*
X234185D01*
Y131293D01*
D02*
G37*
G36*
X154461Y136541D02*
X153937D01*
Y135039D01*
X152802D01*
X152906Y134517D01*
X153388Y133795D01*
X154110Y133313D01*
X154461Y133243D01*
Y136541D01*
D02*
G37*
G36*
X172850Y123612D02*
X170461D01*
Y121517D01*
X171831D01*
X172221Y121595D01*
X172552Y121816D01*
X172773Y122147D01*
X172850Y122537D01*
Y123612D01*
D02*
G37*
G36*
X169461D02*
X167071D01*
Y122537D01*
X167149Y122147D01*
X167370Y121816D01*
X167700Y121595D01*
X168091Y121517D01*
X169461D01*
Y123612D01*
D02*
G37*
G36*
X159961Y140530D02*
X159266Y140392D01*
X158677Y139998D01*
X158283Y139409D01*
X158145Y138714D01*
Y135368D01*
X158283Y134673D01*
X158327Y134606D01*
Y126612D01*
X158151Y126495D01*
X157753Y125899D01*
X157614Y125197D01*
X157753Y124495D01*
X158151Y123899D01*
X158747Y123501D01*
X159449Y123362D01*
X160151Y123501D01*
X160747Y123899D01*
X161144Y124495D01*
X161284Y125197D01*
X161144Y125899D01*
X160747Y126495D01*
X160570Y126612D01*
Y133673D01*
X160656Y133690D01*
X161245Y134084D01*
X161638Y134673D01*
X161777Y135368D01*
Y138714D01*
X161638Y139409D01*
X161245Y139998D01*
X160656Y140392D01*
X159961Y140530D01*
D02*
G37*
G36*
X169961D02*
X169266Y140392D01*
X168676Y139998D01*
X168283Y139409D01*
X168145Y138714D01*
Y135368D01*
X168283Y134673D01*
X168676Y134084D01*
X168839Y133975D01*
Y131651D01*
X168091D01*
X167631Y131461D01*
X167441Y131002D01*
Y127852D01*
X167631Y127393D01*
X168090Y127202D01*
Y126706D01*
X167700Y126629D01*
X167370Y126408D01*
X167149Y126077D01*
X167071Y125687D01*
Y124612D01*
X169961D01*
X172850D01*
Y125687D01*
X172773Y126077D01*
X172552Y126408D01*
X172221Y126629D01*
X171831Y126706D01*
Y127202D01*
X172290Y127393D01*
X172480Y127852D01*
Y131002D01*
X172290Y131461D01*
X171831Y131651D01*
X171082D01*
Y133975D01*
X171245Y134084D01*
X171638Y134673D01*
X171777Y135368D01*
Y138714D01*
X171638Y139409D01*
X171245Y139998D01*
X170656Y140392D01*
X169961Y140530D01*
D02*
G37*
G36*
X157185Y136541D02*
X155461D01*
Y133243D01*
X155812Y133313D01*
X156533Y133795D01*
X157015Y134517D01*
X157185Y135368D01*
Y136541D01*
D02*
G37*
G36*
X214409Y136722D02*
X212685D01*
Y133424D01*
X213036Y133494D01*
X213757Y133976D01*
X214240Y134698D01*
X214409Y135549D01*
Y136722D01*
D02*
G37*
G36*
X211685D02*
X209961D01*
Y135549D01*
X210131Y134698D01*
X210613Y133976D01*
X211334Y133494D01*
X211685Y133424D01*
Y136722D01*
D02*
G37*
G36*
X170150Y100324D02*
X168287D01*
X167897Y100247D01*
X167567Y100026D01*
X167345Y99695D01*
X167268Y99305D01*
Y97049D01*
X170150D01*
Y100324D01*
D02*
G37*
G36*
Y96049D02*
X167268D01*
Y93793D01*
X167345Y93403D01*
X167567Y93072D01*
X167897Y92851D01*
X168287Y92773D01*
X170150D01*
Y96049D01*
D02*
G37*
G36*
X179705Y108986D02*
X177842D01*
Y105710D01*
X180724D01*
Y107966D01*
X180647Y108356D01*
X180426Y108687D01*
X180095Y108908D01*
X179705Y108986D01*
D02*
G37*
G36*
X261203Y88986D02*
X257980D01*
Y85763D01*
X258461Y85827D01*
X259374Y86205D01*
X260159Y86807D01*
X260761Y87592D01*
X261140Y88505D01*
X261203Y88986D01*
D02*
G37*
G36*
X256980D02*
X253758D01*
X253821Y88505D01*
X254200Y87592D01*
X254802Y86807D01*
X255586Y86205D01*
X256500Y85827D01*
X256980Y85763D01*
Y88986D01*
D02*
G37*
G36*
X170858Y91194D02*
X169685D01*
X169295Y91117D01*
X168964Y90896D01*
X168743Y90565D01*
X168666Y90175D01*
Y88805D01*
X170858D01*
Y91194D01*
D02*
G37*
G36*
X257980Y93208D02*
Y89986D01*
X261203D01*
X261140Y90466D01*
X260761Y91380D01*
X260159Y92165D01*
X259374Y92767D01*
X258461Y93145D01*
X257980Y93208D01*
D02*
G37*
G36*
X256980D02*
X256500Y93145D01*
X255586Y92767D01*
X254802Y92165D01*
X254200Y91380D01*
X253821Y90466D01*
X253758Y89986D01*
X256980D01*
Y93208D01*
D02*
G37*
G36*
X151575Y117791D02*
X150402D01*
Y115402D01*
X152594D01*
Y116772D01*
X152517Y117162D01*
X152296Y117493D01*
X151965Y117714D01*
X151575Y117791D01*
D02*
G37*
G36*
X257980Y121161D02*
Y117939D01*
X261203D01*
X261140Y118419D01*
X260761Y119333D01*
X260159Y120117D01*
X259374Y120719D01*
X258461Y121098D01*
X257980Y121161D01*
D02*
G37*
G36*
X256980Y116939D02*
X253758D01*
X253821Y116458D01*
X254200Y115544D01*
X254802Y114760D01*
X255586Y114158D01*
X256500Y113779D01*
X256980Y113716D01*
Y116939D01*
D02*
G37*
G36*
X178740Y116276D02*
X177567D01*
Y113886D01*
X179760D01*
Y115256D01*
X179682Y115646D01*
X179461Y115977D01*
X179130Y116198D01*
X178740Y116276D01*
D02*
G37*
G36*
X261203Y116939D02*
X257980D01*
Y113716D01*
X258461Y113779D01*
X259374Y114158D01*
X260159Y114760D01*
X260761Y115544D01*
X261140Y116458D01*
X261203Y116939D01*
D02*
G37*
G36*
X190453Y110486D02*
X189083D01*
Y108391D01*
X191472D01*
Y109466D01*
X191395Y109856D01*
X191174Y110187D01*
X190843Y110408D01*
X190453Y110486D01*
D02*
G37*
G36*
X188083D02*
X186713D01*
X186322Y110408D01*
X185992Y110187D01*
X185771Y109856D01*
X185693Y109466D01*
Y108391D01*
X188083D01*
Y110486D01*
D02*
G37*
G36*
X179760Y112886D02*
X177567D01*
Y110496D01*
X178740D01*
X179130Y110574D01*
X179461Y110795D01*
X179682Y111126D01*
X179760Y111516D01*
Y112886D01*
D02*
G37*
G36*
X164961Y140530D02*
X164266Y140392D01*
X163677Y139998D01*
X163283Y139409D01*
X163145Y138714D01*
Y135368D01*
X163283Y134673D01*
X163468Y134396D01*
X163445Y134285D01*
X163531Y133856D01*
X163774Y133492D01*
X163839Y133427D01*
Y116770D01*
X163663Y116652D01*
X163265Y116057D01*
X163125Y115354D01*
X163265Y114652D01*
X163663Y114057D01*
X164258Y113659D01*
X164961Y113519D01*
X165663Y113659D01*
X166258Y114057D01*
X166656Y114652D01*
X166796Y115354D01*
X166656Y116057D01*
X166258Y116652D01*
X166082Y116770D01*
Y133891D01*
X166082Y133891D01*
X166068Y133965D01*
X166245Y134084D01*
X166638Y134673D01*
X166777Y135368D01*
Y138714D01*
X166638Y139409D01*
X166245Y139998D01*
X165656Y140392D01*
X164961Y140530D01*
D02*
G37*
G36*
X152594Y114402D02*
X150402D01*
Y112012D01*
X151575D01*
X151965Y112090D01*
X152296Y112311D01*
X152517Y112642D01*
X152594Y113032D01*
Y114402D01*
D02*
G37*
G36*
X174705Y55761D02*
X173630D01*
Y53372D01*
X175724D01*
Y54742D01*
X175647Y55132D01*
X175426Y55463D01*
X175095Y55684D01*
X174705Y55761D01*
D02*
G37*
G36*
X137402Y60495D02*
X132283D01*
X131588Y60356D01*
X130999Y59963D01*
X130606Y59374D01*
X130467Y58679D01*
X130606Y57984D01*
X130999Y57395D01*
X131588Y57001D01*
X132283Y56863D01*
X137402D01*
X138096Y57001D01*
X138686Y57395D01*
X139079Y57984D01*
X139218Y58679D01*
X139079Y59374D01*
X138686Y59963D01*
X138096Y60356D01*
X137402Y60495D01*
D02*
G37*
G36*
Y50495D02*
X132283D01*
X131588Y50357D01*
X130999Y49963D01*
X130606Y49374D01*
X130467Y48679D01*
X130606Y47984D01*
X130999Y47395D01*
X131588Y47001D01*
X132283Y46863D01*
X137402D01*
X138096Y47001D01*
X138686Y47395D01*
X138794Y47557D01*
X141406D01*
X141616Y47243D01*
X142211Y46845D01*
X142913Y46706D01*
X143616Y46845D01*
X144211Y47243D01*
X144609Y47839D01*
X144749Y48541D01*
X144609Y49243D01*
X144211Y49839D01*
X143616Y50236D01*
X142913Y50376D01*
X142211Y50236D01*
X141616Y49839D01*
X141590Y49800D01*
X138794D01*
X138686Y49963D01*
X138096Y50357D01*
X137402Y50495D01*
D02*
G37*
G36*
X155110Y55761D02*
X154035D01*
X153645Y55684D01*
X153314Y55463D01*
X153094Y55132D01*
X153016Y54742D01*
Y53372D01*
X155110D01*
Y55761D01*
D02*
G37*
G36*
X175724Y52372D02*
X173630D01*
Y49982D01*
X174705D01*
X175095Y50060D01*
X175426Y50281D01*
X175647Y50611D01*
X175724Y51002D01*
Y52372D01*
D02*
G37*
G36*
X155110D02*
X153016D01*
Y51002D01*
X153094Y50611D01*
X153314Y50281D01*
X153645Y50060D01*
X154035Y49982D01*
X155110D01*
Y52372D01*
D02*
G37*
G36*
X137402Y65903D02*
X135343D01*
Y64179D01*
X139526D01*
X139456Y64530D01*
X138974Y65251D01*
X138253Y65733D01*
X137402Y65903D01*
D02*
G37*
G36*
X134343D02*
X132283D01*
X131432Y65733D01*
X130711Y65251D01*
X130229Y64530D01*
X130159Y64179D01*
X134343D01*
Y65903D01*
D02*
G37*
G36*
Y63179D02*
X130159D01*
X130229Y62828D01*
X130711Y62106D01*
X131432Y61624D01*
X132283Y61455D01*
X134343D01*
Y63179D01*
D02*
G37*
G36*
X139526D02*
X135343D01*
Y61455D01*
X137402D01*
X138253Y61624D01*
X138974Y62106D01*
X139456Y62828D01*
X139526Y63179D01*
D02*
G37*
G36*
X100000Y60495D02*
X94882D01*
X94187Y60356D01*
X93598Y59963D01*
X93204Y59374D01*
X93066Y58679D01*
X93204Y57984D01*
X93598Y57395D01*
X94187Y57001D01*
X94882Y56863D01*
X100000D01*
X100695Y57001D01*
X101284Y57395D01*
X101678Y57984D01*
X101816Y58679D01*
X101678Y59374D01*
X101284Y59963D01*
X100695Y60356D01*
X100000Y60495D01*
D02*
G37*
G36*
X88484Y41120D02*
X84744D01*
X84285Y40929D01*
X84095Y40470D01*
X84034Y40420D01*
X83465Y40534D01*
X82762Y40394D01*
X82167Y39996D01*
X81769Y39401D01*
X81629Y38698D01*
X81769Y37996D01*
X82167Y37401D01*
X82762Y37003D01*
X83465Y36863D01*
X84167Y37003D01*
X84235Y36982D01*
X84285Y36861D01*
X84744Y36671D01*
X88484D01*
X88943Y36861D01*
X89134Y37321D01*
Y37557D01*
X93489D01*
X93598Y37395D01*
X94187Y37001D01*
X94882Y36863D01*
X100000D01*
X100695Y37001D01*
X101284Y37395D01*
X101678Y37984D01*
X101816Y38679D01*
X101678Y39374D01*
X101284Y39963D01*
X100695Y40356D01*
X100000Y40495D01*
X94882D01*
X94187Y40356D01*
X93598Y39963D01*
X93489Y39800D01*
X89134D01*
Y40470D01*
X88943Y40929D01*
X88484Y41120D01*
D02*
G37*
G36*
X31339Y90344D02*
X29898Y90202D01*
X28512Y89782D01*
X27235Y89099D01*
X26116Y88181D01*
X25198Y87062D01*
X24515Y85785D01*
X24095Y84399D01*
X23953Y82958D01*
X24095Y81517D01*
X24515Y80132D01*
X25198Y78855D01*
X26116Y77736D01*
X27235Y76817D01*
X28512Y76135D01*
X29898Y75715D01*
X31339Y75573D01*
X32779Y75715D01*
X34165Y76135D01*
X35442Y76817D01*
X36561Y77736D01*
X37479Y78855D01*
X38162Y80132D01*
X38582Y81517D01*
X38724Y82958D01*
X38582Y84399D01*
X38162Y85785D01*
X37479Y87062D01*
X36561Y88181D01*
X35442Y89099D01*
X34165Y89782D01*
X32779Y90202D01*
X31339Y90344D01*
D02*
G37*
G36*
X47791Y96513D02*
X41886D01*
X41427Y96323D01*
X38474Y93370D01*
X38284Y92911D01*
Y87006D01*
X38474Y86546D01*
X41427Y83593D01*
X41886Y83403D01*
X47791D01*
X48250Y83593D01*
X51203Y86546D01*
X51394Y87006D01*
Y92911D01*
X51203Y93370D01*
X48250Y96323D01*
X47791Y96513D01*
D02*
G37*
G36*
X48339Y66581D02*
X47660Y66491D01*
X47027Y66229D01*
X46484Y65813D01*
X46068Y65270D01*
X45805Y64637D01*
X45716Y63958D01*
X45805Y63279D01*
X46068Y62647D01*
X46484Y62104D01*
X47027Y61687D01*
X47286Y61580D01*
X47187Y61080D01*
X43688D01*
X43610Y61269D01*
X43193Y61813D01*
X42650Y62229D01*
X42017Y62491D01*
X41339Y62581D01*
X40660Y62491D01*
X40027Y62229D01*
X39484Y61813D01*
X39068Y61269D01*
X38805Y60637D01*
X38716Y59958D01*
X38805Y59280D01*
X39068Y58647D01*
X39484Y58104D01*
X40027Y57687D01*
X40660Y57425D01*
X41339Y57336D01*
X42017Y57425D01*
X42650Y57687D01*
X43193Y58104D01*
X43610Y58647D01*
X43688Y58837D01*
X47187D01*
X47286Y58337D01*
X47027Y58229D01*
X46484Y57813D01*
X46068Y57270D01*
X45805Y56637D01*
X45716Y55958D01*
X45805Y55279D01*
X46068Y54647D01*
X46484Y54104D01*
X47027Y53687D01*
X47286Y53580D01*
X47187Y53080D01*
X43688D01*
X43610Y53269D01*
X43193Y53813D01*
X42650Y54229D01*
X42017Y54491D01*
X41339Y54581D01*
X40660Y54491D01*
X40027Y54229D01*
X39484Y53813D01*
X39068Y53269D01*
X38805Y52637D01*
X38716Y51958D01*
X38805Y51279D01*
X39068Y50647D01*
X39484Y50104D01*
X40027Y49687D01*
X40660Y49425D01*
X41339Y49336D01*
X42017Y49425D01*
X42650Y49687D01*
X43193Y50104D01*
X43610Y50647D01*
X43688Y50837D01*
X47187D01*
X47286Y50337D01*
X47027Y50229D01*
X46484Y49813D01*
X46313Y49590D01*
X45339D01*
X44714Y49465D01*
X44185Y49112D01*
X41681Y46608D01*
X40339D01*
X39879Y46417D01*
X38879Y45417D01*
X38689Y44958D01*
Y42958D01*
X38879Y42499D01*
X39879Y41499D01*
X40339Y41309D01*
X42339D01*
X42798Y41499D01*
X43798Y42499D01*
X43988Y42958D01*
Y44301D01*
X45873Y46185D01*
X46444Y46157D01*
X46484Y46104D01*
X47027Y45687D01*
X47660Y45425D01*
X48339Y45336D01*
X49017Y45425D01*
X49650Y45687D01*
X50193Y46104D01*
X50364Y46327D01*
X68411D01*
X75374Y39364D01*
Y36570D01*
X75498Y35945D01*
X75852Y35416D01*
X77820Y33448D01*
X77820Y33448D01*
X84095Y27173D01*
Y26100D01*
X84285Y25641D01*
X84744Y25451D01*
X88484D01*
X88943Y25641D01*
X89134Y26100D01*
Y27047D01*
X94117D01*
X94187Y27001D01*
X94882Y26863D01*
X100000D01*
X100695Y27001D01*
X101284Y27395D01*
X101678Y27984D01*
X101816Y28679D01*
X101678Y29374D01*
X101284Y29963D01*
X100695Y30356D01*
X100000Y30495D01*
X94882D01*
X94187Y30356D01*
X94117Y30310D01*
X87520D01*
X86895Y30186D01*
X86761Y30096D01*
X85786D01*
X80127Y35755D01*
X80127Y35755D01*
X78636Y37245D01*
Y40040D01*
X78512Y40664D01*
X78159Y41193D01*
X70240Y49112D01*
X69711Y49465D01*
X69087Y49590D01*
X50364D01*
X50193Y49813D01*
X49650Y50229D01*
X49391Y50337D01*
X49490Y50837D01*
X70058D01*
X70354Y50393D01*
X70950Y49995D01*
X71652Y49855D01*
X72354Y49995D01*
X72950Y50393D01*
X73246Y50837D01*
X78402D01*
X84095Y45144D01*
Y42635D01*
X84285Y42176D01*
X84744Y41986D01*
X88484D01*
X88943Y42176D01*
X89134Y42635D01*
Y43089D01*
X93183D01*
X93204Y42984D01*
X93598Y42395D01*
X94187Y42001D01*
X94882Y41863D01*
X100000D01*
X100695Y42001D01*
X101284Y42395D01*
X101678Y42984D01*
X101816Y43679D01*
X101678Y44374D01*
X101284Y44963D01*
X100695Y45357D01*
X100000Y45495D01*
X94882D01*
X94187Y45357D01*
X94150Y45332D01*
X89134D01*
Y45785D01*
X88943Y46244D01*
X88484Y46435D01*
X85976D01*
X79659Y52751D01*
X79295Y52994D01*
X78866Y53080D01*
X78866Y53080D01*
X72813D01*
X72354Y53386D01*
X71652Y53526D01*
X70950Y53386D01*
X70491Y53080D01*
X49490D01*
X49391Y53580D01*
X49650Y53687D01*
X50193Y54104D01*
X50502Y54506D01*
X72994D01*
X73112Y54330D01*
X73707Y53932D01*
X74410Y53792D01*
X75112Y53932D01*
X75707Y54330D01*
X75825Y54506D01*
X81157D01*
X87778Y47886D01*
X87778Y47886D01*
X88142Y47643D01*
X88571Y47557D01*
X88571Y47557D01*
X93489D01*
X93598Y47395D01*
X94187Y47001D01*
X94882Y46863D01*
X100000D01*
X100695Y47001D01*
X101284Y47395D01*
X101678Y47984D01*
X101816Y48679D01*
X101678Y49374D01*
X101284Y49963D01*
X100695Y50357D01*
X100000Y50495D01*
X94882D01*
X94187Y50357D01*
X93598Y49963D01*
X93489Y49800D01*
X89035D01*
X82415Y56421D01*
X82051Y56664D01*
X81622Y56749D01*
X81622Y56749D01*
X75825D01*
X75707Y56925D01*
X75112Y57323D01*
X74410Y57463D01*
X73707Y57323D01*
X73112Y56925D01*
X72994Y56749D01*
X50825D01*
X50610Y57270D01*
X50193Y57813D01*
X49650Y58229D01*
X49391Y58337D01*
X49490Y58837D01*
X76144D01*
X76261Y58661D01*
X76857Y58263D01*
X77559Y58123D01*
X78261Y58263D01*
X78857Y58661D01*
X78974Y58837D01*
X84181D01*
X90132Y52886D01*
X90132Y52886D01*
X90496Y52643D01*
X90925Y52557D01*
X90925Y52557D01*
X93489D01*
X93598Y52395D01*
X94187Y52001D01*
X94882Y51863D01*
X100000D01*
X100695Y52001D01*
X101284Y52395D01*
X101678Y52984D01*
X101816Y53679D01*
X101678Y54374D01*
X101284Y54963D01*
X100695Y55357D01*
X100000Y55495D01*
X94882D01*
X94187Y55357D01*
X93598Y54963D01*
X93489Y54800D01*
X91390D01*
X85439Y60751D01*
X85075Y60994D01*
X84646Y61080D01*
X84646Y61080D01*
X78974D01*
X78857Y61256D01*
X78261Y61654D01*
X77559Y61794D01*
X76857Y61654D01*
X76261Y61256D01*
X76144Y61080D01*
X49490D01*
X49391Y61580D01*
X49650Y61687D01*
X50193Y62104D01*
X50610Y62647D01*
X50688Y62837D01*
X78857D01*
X79017Y62598D01*
X79613Y62200D01*
X80315Y62060D01*
X81017Y62200D01*
X81613Y62598D01*
X82011Y63193D01*
X82150Y63895D01*
X82149Y63900D01*
X82161Y63958D01*
X82076Y64388D01*
X82042Y64437D01*
X82011Y64598D01*
X81613Y65193D01*
X81017Y65591D01*
X80315Y65731D01*
X79613Y65591D01*
X79017Y65193D01*
X78942Y65080D01*
X50688D01*
X50610Y65270D01*
X50193Y65813D01*
X49650Y66229D01*
X49017Y66491D01*
X48339Y66581D01*
D02*
G37*
G36*
X47791Y32513D02*
X41886D01*
X41427Y32323D01*
X38474Y29370D01*
X38284Y28911D01*
Y23006D01*
X38474Y22546D01*
X41427Y19593D01*
X41886Y19403D01*
X47791D01*
X48250Y19593D01*
X51203Y22546D01*
X51394Y23006D01*
Y28911D01*
X51203Y29370D01*
X48250Y32323D01*
X47791Y32513D01*
D02*
G37*
G36*
X31339Y40344D02*
X29898Y40202D01*
X28512Y39782D01*
X27235Y39099D01*
X26116Y38181D01*
X25198Y37062D01*
X24515Y35785D01*
X24095Y34399D01*
X23953Y32958D01*
X24095Y31517D01*
X24515Y30132D01*
X25198Y28855D01*
X26116Y27736D01*
X27235Y26817D01*
X28512Y26135D01*
X29898Y25715D01*
X31339Y25573D01*
X32779Y25715D01*
X34165Y26135D01*
X35442Y26817D01*
X36561Y27736D01*
X37479Y28855D01*
X38162Y30132D01*
X38582Y31517D01*
X38724Y32958D01*
X38582Y34399D01*
X38162Y35785D01*
X37479Y37062D01*
X36561Y38181D01*
X35442Y39099D01*
X34165Y39782D01*
X32779Y40202D01*
X31339Y40344D01*
D02*
G37*
G36*
X67339Y34690D02*
X66373Y34563D01*
X65473Y34190D01*
X64700Y33597D01*
X64107Y32824D01*
X63734Y31924D01*
X63607Y30958D01*
X63734Y29992D01*
X64107Y29092D01*
X64700Y28319D01*
X65473Y27726D01*
X66373Y27354D01*
X67339Y27226D01*
X68305Y27354D01*
X69204Y27726D01*
X69977Y28319D01*
X70570Y29092D01*
X70943Y29992D01*
X71070Y30958D01*
X70943Y31924D01*
X70570Y32824D01*
X69977Y33597D01*
X69204Y34190D01*
X68305Y34563D01*
X67339Y34690D01*
D02*
G37*
G36*
X48339Y137447D02*
X47660Y137357D01*
X47027Y137095D01*
X46484Y136679D01*
X46068Y136136D01*
X45805Y135503D01*
X45716Y134824D01*
X45805Y134146D01*
X46068Y133513D01*
X46484Y132970D01*
X47027Y132553D01*
X47660Y132291D01*
X48339Y132202D01*
X49017Y132291D01*
X49650Y132553D01*
X50193Y132970D01*
X50610Y133513D01*
X50872Y134146D01*
X50961Y134824D01*
X50872Y135503D01*
X50610Y136136D01*
X50193Y136679D01*
X49650Y137095D01*
X49017Y137357D01*
X48339Y137447D01*
D02*
G37*
G36*
X41339Y133447D02*
X40660Y133358D01*
X40027Y133096D01*
X39484Y132679D01*
X39068Y132136D01*
X38805Y131503D01*
X38716Y130824D01*
X38805Y130146D01*
X39068Y129513D01*
X39484Y128970D01*
X40027Y128553D01*
X40660Y128291D01*
X41339Y128202D01*
X42017Y128291D01*
X42650Y128553D01*
X43193Y128970D01*
X43610Y129513D01*
X43872Y130146D01*
X43961Y130824D01*
X43872Y131503D01*
X43610Y132136D01*
X43193Y132679D01*
X42650Y133096D01*
X42017Y133358D01*
X41339Y133447D01*
D02*
G37*
G36*
X48339Y129447D02*
X47660Y129358D01*
X47027Y129095D01*
X46484Y128679D01*
X46068Y128136D01*
X45805Y127503D01*
X45716Y126824D01*
X45805Y126146D01*
X46068Y125513D01*
X46484Y124970D01*
X47027Y124553D01*
X47660Y124291D01*
X48339Y124202D01*
X49017Y124291D01*
X49650Y124553D01*
X50193Y124970D01*
X50610Y125513D01*
X50872Y126146D01*
X50961Y126824D01*
X50872Y127503D01*
X50610Y128136D01*
X50193Y128679D01*
X49650Y129095D01*
X49017Y129358D01*
X48339Y129447D01*
D02*
G37*
G36*
X47791Y175379D02*
X41886D01*
X41427Y175189D01*
X38474Y172236D01*
X38284Y171777D01*
Y165872D01*
X38474Y165412D01*
X41427Y162460D01*
X41886Y162269D01*
X47791D01*
X48250Y162460D01*
X51203Y165412D01*
X51394Y165872D01*
Y171777D01*
X51203Y172236D01*
X48250Y175189D01*
X47791Y175379D01*
D02*
G37*
G36*
X68889Y167574D02*
X65789D01*
X65329Y167384D01*
X63779Y165834D01*
X63589Y165374D01*
Y162274D01*
X63779Y161815D01*
X65329Y160265D01*
X65789Y160075D01*
X68889D01*
X69348Y160265D01*
X70898Y161815D01*
X71088Y162274D01*
Y165374D01*
X70898Y165834D01*
X69348Y167384D01*
X68889Y167574D01*
D02*
G37*
G36*
X31339Y169210D02*
X29898Y169068D01*
X28512Y168648D01*
X27235Y167965D01*
X26116Y167047D01*
X25198Y165928D01*
X24515Y164651D01*
X24095Y163265D01*
X23953Y161824D01*
X24095Y160384D01*
X24515Y158998D01*
X25198Y157721D01*
X26116Y156602D01*
X27235Y155684D01*
X28512Y155001D01*
X29898Y154581D01*
X31339Y154439D01*
X32779Y154581D01*
X34165Y155001D01*
X35442Y155684D01*
X36561Y156602D01*
X37479Y157721D01*
X38162Y158998D01*
X38582Y160384D01*
X38724Y161824D01*
X38582Y163265D01*
X38162Y164651D01*
X37479Y165928D01*
X36561Y167047D01*
X35442Y167965D01*
X34165Y168648D01*
X32779Y169068D01*
X31339Y169210D01*
D02*
G37*
G36*
X41339Y141447D02*
X40660Y141358D01*
X40027Y141095D01*
X39484Y140679D01*
X39068Y140136D01*
X38805Y139503D01*
X38716Y138824D01*
X38805Y138146D01*
X39068Y137513D01*
X39484Y136970D01*
X40027Y136553D01*
X40660Y136291D01*
X41339Y136202D01*
X42017Y136291D01*
X42650Y136553D01*
X43193Y136970D01*
X43610Y137513D01*
X43872Y138146D01*
X43961Y138824D01*
X43872Y139503D01*
X43610Y140136D01*
X43193Y140679D01*
X42650Y141095D01*
X42017Y141358D01*
X41339Y141447D01*
D02*
G37*
G36*
X67339Y158556D02*
X66373Y158429D01*
X65473Y158056D01*
X64700Y157463D01*
X64107Y156690D01*
X63734Y155790D01*
X63607Y154824D01*
X63734Y153858D01*
X64107Y152958D01*
X64700Y152185D01*
X65473Y151593D01*
X66373Y151220D01*
X67339Y151093D01*
X68305Y151220D01*
X69204Y151593D01*
X69977Y152185D01*
X70570Y152958D01*
X70943Y153858D01*
X71070Y154824D01*
X70943Y155790D01*
X70570Y156690D01*
X69977Y157463D01*
X69204Y158056D01*
X68305Y158429D01*
X67339Y158556D01*
D02*
G37*
G36*
X48339Y145447D02*
X47660Y145358D01*
X47027Y145096D01*
X46484Y144679D01*
X46068Y144136D01*
X45805Y143503D01*
X45716Y142824D01*
X45805Y142146D01*
X46068Y141513D01*
X46484Y140970D01*
X47027Y140553D01*
X47660Y140291D01*
X48339Y140202D01*
X49017Y140291D01*
X49650Y140553D01*
X50193Y140970D01*
X50610Y141513D01*
X50872Y142146D01*
X50961Y142824D01*
X50872Y143503D01*
X50610Y144136D01*
X50193Y144679D01*
X49650Y145096D01*
X49017Y145358D01*
X48339Y145447D01*
D02*
G37*
G36*
X42339Y125474D02*
X40339D01*
X39879Y125284D01*
X38879Y124284D01*
X38689Y123824D01*
Y121824D01*
X38879Y121365D01*
X39879Y120365D01*
X40339Y120175D01*
X42339D01*
X42798Y120365D01*
X43798Y121365D01*
X43988Y121824D01*
Y123824D01*
X43798Y124284D01*
X42798Y125284D01*
X42663Y125339D01*
X42339Y125474D01*
D02*
G37*
G36*
X47791Y111379D02*
X41886D01*
X41427Y111189D01*
X38474Y108236D01*
X38284Y107777D01*
Y101872D01*
X38474Y101412D01*
X41427Y98460D01*
X41886Y98269D01*
X47791D01*
X48250Y98460D01*
X51203Y101412D01*
X51394Y101872D01*
Y107777D01*
X51203Y108236D01*
X48250Y111189D01*
X47791Y111379D01*
D02*
G37*
G36*
X31339Y119210D02*
X29898Y119068D01*
X28512Y118648D01*
X27235Y117965D01*
X26116Y117047D01*
X25198Y115928D01*
X24515Y114651D01*
X24095Y113265D01*
X23953Y111824D01*
X24095Y110384D01*
X24515Y108998D01*
X25198Y107721D01*
X26116Y106602D01*
X27235Y105684D01*
X28512Y105001D01*
X29898Y104581D01*
X31339Y104439D01*
X32779Y104581D01*
X34165Y105001D01*
X35442Y105684D01*
X36561Y106602D01*
X37479Y107721D01*
X38162Y108998D01*
X38582Y110384D01*
X38724Y111824D01*
X38582Y113265D01*
X38162Y114651D01*
X37479Y115928D01*
X36561Y117047D01*
X35442Y117965D01*
X34165Y118648D01*
X32779Y119068D01*
X31339Y119210D01*
D02*
G37*
G36*
X67339Y113556D02*
X66373Y113429D01*
X65473Y113056D01*
X64700Y112463D01*
X64107Y111690D01*
X63734Y110790D01*
X63607Y109824D01*
X63734Y108859D01*
X64107Y107958D01*
X64700Y107185D01*
X65473Y106593D01*
X66373Y106220D01*
X67339Y106093D01*
X68305Y106220D01*
X69204Y106593D01*
X69977Y107185D01*
X70570Y107958D01*
X70943Y108859D01*
X71070Y109824D01*
X70943Y110790D01*
X70570Y111690D01*
X69977Y112463D01*
X69204Y113056D01*
X68305Y113429D01*
X67339Y113556D01*
D02*
G37*
G36*
X68889Y122574D02*
X65789D01*
X65329Y122384D01*
X63779Y120834D01*
X63589Y120374D01*
Y117274D01*
X63779Y116815D01*
X65329Y115265D01*
X65789Y115075D01*
X68889D01*
X69348Y115265D01*
X70898Y116815D01*
X71088Y117274D01*
Y120374D01*
X70898Y120834D01*
X69348Y122384D01*
X68889Y122574D01*
D02*
G37*
%LPD*%
D10*
X117618Y73344D02*
D03*
X112303D02*
D03*
X167815Y66258D02*
D03*
X173130D02*
D03*
X161319D02*
D03*
X156004D02*
D03*
X155610Y52872D02*
D03*
X160925D02*
D03*
X117618Y16258D02*
D03*
X112303D02*
D03*
X173130Y52872D02*
D03*
X167815D02*
D03*
X166831Y59565D02*
D03*
X161516D02*
D03*
D11*
X121843Y104588D02*
D03*
D12*
X98614Y95533D02*
D03*
Y104588D02*
D03*
Y113643D02*
D03*
D13*
X88976Y107382D02*
D03*
Y102067D02*
D03*
X237795Y76476D02*
D03*
Y81791D02*
D03*
X235039Y152362D02*
D03*
Y157677D02*
D03*
X176772Y152756D02*
D03*
Y158071D02*
D03*
X169685Y5332D02*
D03*
Y10647D02*
D03*
X86614Y33088D02*
D03*
Y27773D02*
D03*
X147638Y27773D02*
D03*
Y33088D02*
D03*
D14*
X207283Y90372D02*
D03*
Y87813D02*
D03*
Y85254D02*
D03*
Y82695D02*
D03*
Y80135D02*
D03*
Y77576D02*
D03*
Y75017D02*
D03*
Y72458D02*
D03*
Y69899D02*
D03*
Y67340D02*
D03*
X230512Y90372D02*
D03*
Y87813D02*
D03*
Y85254D02*
D03*
Y82695D02*
D03*
Y80135D02*
D03*
Y77576D02*
D03*
Y75017D02*
D03*
Y72458D02*
D03*
Y69899D02*
D03*
Y67340D02*
D03*
D15*
X245669Y35138D02*
D03*
Y40453D02*
D03*
Y69587D02*
D03*
Y64272D02*
D03*
X246063Y92224D02*
D03*
Y97539D02*
D03*
Y119587D02*
D03*
Y114272D02*
D03*
X144488Y139075D02*
D03*
Y144390D02*
D03*
X234685Y137108D02*
D03*
Y131793D02*
D03*
X169961Y129427D02*
D03*
Y124112D02*
D03*
X161799Y10765D02*
D03*
Y5450D02*
D03*
X151181Y11041D02*
D03*
Y5726D02*
D03*
X86614Y38895D02*
D03*
Y44210D02*
D03*
X188583Y107891D02*
D03*
Y102576D02*
D03*
X196063Y107891D02*
D03*
Y102576D02*
D03*
D16*
X219685Y147950D02*
D03*
X162461Y147769D02*
D03*
D17*
X227185Y158679D02*
D03*
X222185D02*
D03*
X217185D02*
D03*
X212185D02*
D03*
X227185Y137222D02*
D03*
X222185D02*
D03*
X217185D02*
D03*
X212185D02*
D03*
X169961Y158498D02*
D03*
X164961D02*
D03*
X159961D02*
D03*
X154961D02*
D03*
X169961Y137041D02*
D03*
X164961D02*
D03*
X159961D02*
D03*
X154961D02*
D03*
D18*
X177067Y113386D02*
D03*
X171752D02*
D03*
X171358Y88305D02*
D03*
X176673D02*
D03*
X149902Y114902D02*
D03*
X144587D02*
D03*
X192618Y79134D02*
D03*
X197933D02*
D03*
D19*
X177342Y105210D02*
D03*
X170650D02*
D03*
Y96549D02*
D03*
X177342D02*
D03*
D20*
X175787Y19801D02*
D03*
X159646D02*
D03*
X175787Y28462D02*
D03*
X159646D02*
D03*
D21*
X144095Y11139D02*
D03*
Y5628D02*
D03*
D22*
X97441Y63679D02*
D03*
Y58679D02*
D03*
Y53679D02*
D03*
Y48679D02*
D03*
Y43679D02*
D03*
Y38679D02*
D03*
Y33679D02*
D03*
Y28679D02*
D03*
X134843Y63679D02*
D03*
Y58679D02*
D03*
Y53679D02*
D03*
Y48679D02*
D03*
Y43679D02*
D03*
Y38679D02*
D03*
Y33679D02*
D03*
Y28679D02*
D03*
D23*
X227185Y137222D02*
X227299Y137108D01*
X234685D01*
X174387Y119685D02*
X175591Y120888D01*
X87520Y28679D02*
X97441D01*
X86614Y27773D02*
X87520Y28679D01*
X227165Y107480D02*
X237795Y96850D01*
X213386Y107480D02*
X227165D01*
X237795Y86614D02*
Y96850D01*
Y83366D02*
Y86614D01*
Y83366D02*
X238583Y82579D01*
X236769Y77503D02*
X237795Y76476D01*
X230512Y77535D02*
X230553D01*
X230585Y77503D01*
X236769D01*
X230512Y80135D02*
X236139D01*
X220866Y77559D02*
X221654D01*
X122913Y16750D02*
X134843Y28679D01*
X126378Y73344D02*
X156004D01*
X117717D02*
X126378D01*
X118110Y16750D02*
X122913D01*
X117618Y16258D02*
X118110Y16750D01*
X117717Y73344D02*
Y109124D01*
X117618Y73344D02*
X117717D01*
Y109124D02*
X121843Y113250D01*
X213386Y82677D02*
Y107480D01*
X210844Y80135D02*
X213386Y82677D01*
X207283Y80135D02*
X210844D01*
X196474Y107480D02*
X213386D01*
X196063Y107891D02*
X196474Y107480D01*
X198228Y77756D02*
Y80135D01*
X193816Y73344D02*
X198228Y77756D01*
X173130Y73344D02*
X193816D01*
X173130Y66258D02*
Y73344D01*
X156004D02*
X173130D01*
X156004Y66258D02*
Y73344D01*
X237795Y81791D02*
X238583Y82579D01*
X244488Y40453D02*
X245669Y41634D01*
Y59055D02*
Y64387D01*
Y41634D02*
Y59055D01*
X246063Y106299D02*
Y114272D01*
Y97539D02*
Y105905D01*
X236139Y80135D02*
X237795Y81791D01*
X236693Y33150D02*
X244094Y40551D01*
X173130Y52872D02*
X177165D01*
X151181Y52478D02*
X155217D01*
X155610Y52872D01*
X198228Y80135D02*
X207283D01*
X236693Y6809D02*
Y33150D01*
X151181Y11041D02*
X152461D01*
X158051Y5450D01*
X161799D01*
X151181Y11041D02*
Y24230D01*
X147638Y27773D02*
X151181Y24230D01*
X146732Y28679D02*
X147638Y27773D01*
X134843Y28679D02*
X146732D01*
X41339Y43958D02*
X45339Y47958D01*
X48339D01*
X77005Y36570D02*
Y40040D01*
X69087Y47958D02*
X77005Y40040D01*
X48339Y47958D02*
X69087D01*
X78974Y34601D02*
Y34601D01*
X77005Y36570D02*
X78974Y34601D01*
Y34601D02*
X85802Y27773D01*
X86614D01*
D24*
X242913Y117421D02*
X245276Y119783D01*
X242913Y74803D02*
Y117421D01*
X240568Y72458D02*
X242913Y74803D01*
X203954Y72458D02*
X207283D01*
X174132Y42635D02*
X203954Y72458D01*
X153937Y42635D02*
X174132D01*
X100278Y73344D02*
X112303D01*
X96064Y77558D02*
X100278Y73344D01*
X74739Y77558D02*
X96064D01*
X67339Y84958D02*
X74739Y77558D01*
X122835Y53937D02*
X135568D01*
X135827Y53679D02*
X142894D01*
X135568Y53937D02*
X135827Y53679D01*
X91039Y16258D02*
X112303D01*
X67339Y39958D02*
X91039Y16258D01*
X95302Y75958D02*
X132581Y38679D01*
X67339Y75958D02*
X95302D01*
X132581Y38679D02*
X134843D01*
X217185Y129665D02*
Y137222D01*
Y129665D02*
X217323Y129528D01*
X182006Y98819D02*
X195571Y85254D01*
X179613Y98819D02*
X182006D01*
X177342Y96549D02*
X179613Y98819D01*
X183187Y101181D02*
X196555Y87813D01*
X174679Y101181D02*
X183187D01*
X170650Y105210D02*
X174679Y101181D01*
X170650Y105210D02*
X171752Y106313D01*
Y113386D01*
X222047Y137084D02*
X222185Y137222D01*
X222047Y130315D02*
Y137084D01*
X226198Y85254D02*
X230512D01*
X221260Y82284D02*
X228561D01*
X228954Y82677D01*
X218110Y83465D02*
X222458Y87813D01*
X228954Y82677D02*
X229348Y82284D01*
X218110Y8226D02*
Y83465D01*
X222458Y87813D02*
X230512D01*
X222261Y90372D02*
X230512D01*
X216510Y84620D02*
X222261Y90372D01*
X216510Y16626D02*
Y84620D01*
X206907Y83071D02*
X207283Y82695D01*
X193307Y83071D02*
X206907D01*
X195571Y85254D02*
X207283D01*
X175787Y28462D02*
X175903Y28346D01*
X179528D01*
X203954Y77576D02*
X207283D01*
X185942Y59565D02*
X203954Y77576D01*
X166831Y59565D02*
X185942D01*
X164567Y134285D02*
X164961Y133891D01*
Y115354D02*
Y133891D01*
X159449Y136529D02*
X159961Y137041D01*
X159449Y125197D02*
Y136529D01*
X164961Y134679D02*
Y137041D01*
X164567Y134285D02*
X164961Y134679D01*
X207857Y67913D02*
X212008D01*
X212205Y68110D01*
X207283Y67340D02*
X207857Y67913D01*
X206693Y6809D02*
X216510Y16626D01*
X216693Y6809D02*
X218110Y8226D01*
X207498Y74803D02*
X212598D01*
X207283Y75017D02*
X207498Y74803D01*
X191831Y102576D02*
X196063D01*
X252872Y41848D02*
X259055D01*
X246161Y35138D02*
X252872Y41848D01*
X244488Y35138D02*
X246161D01*
X230512Y72458D02*
X240568D01*
X225556Y75197D02*
X225590D01*
X225376Y75017D02*
X225556Y75197D01*
X225376Y75017D02*
X230512D01*
X229348Y82284D02*
X230135Y83071D01*
X230512Y82695D01*
X169961Y129427D02*
Y137041D01*
X205164Y69899D02*
X207283D01*
X173944Y38679D02*
X205164Y69899D01*
X246457Y75984D02*
Y91732D01*
X240372Y69899D02*
X246457Y75984D01*
X230512Y69899D02*
X240372D01*
X245276Y119783D02*
X252739D01*
X258661Y125706D01*
X252478Y97754D02*
X258661D01*
X246457Y91732D02*
X252478Y97754D01*
X258169Y69702D02*
X258661Y70195D01*
X245276Y69702D02*
X258169D01*
X242913Y67340D02*
X245276Y69702D01*
X230512Y67340D02*
X242913D01*
X96909Y44210D02*
X97441Y43679D01*
X86614Y44210D02*
X96909D01*
X166831Y65273D02*
X167815Y66258D01*
X166831Y59565D02*
Y65273D01*
Y59565D02*
X167815Y58580D01*
Y52872D02*
Y58580D01*
X167717Y52773D02*
X167815Y52872D01*
X167717Y48541D02*
Y52773D01*
X142776Y48679D02*
X142913Y48541D01*
X134843Y48679D02*
X142776D01*
X160925Y48443D02*
Y52872D01*
X157874Y45391D02*
X160925Y48443D01*
X161319Y59368D02*
Y66258D01*
X160925Y58974D02*
X161319Y59368D01*
X160925Y52872D02*
Y58974D01*
X142894Y53679D02*
X153937Y42635D01*
X134843Y38679D02*
X173944D01*
X175394Y28069D02*
X175787Y28462D01*
X169291Y28069D02*
X175394D01*
X169291Y11041D02*
Y28069D01*
X134843Y43679D02*
X142382D01*
X142913Y44210D01*
X188583Y102576D02*
X191831D01*
X191831Y102576D02*
X191831Y102576D01*
X191831Y96474D02*
Y102576D01*
Y96474D02*
X194783Y93521D01*
Y93521D02*
Y93521D01*
Y93521D02*
X197933Y90372D01*
X207283D01*
X196555Y87813D02*
X207283D01*
X176673Y95880D02*
X177342Y96549D01*
X176673Y88305D02*
Y95880D01*
X159252Y28069D02*
X169291D01*
X169567Y10765D02*
X169685Y10647D01*
X169291Y11041D02*
X169567Y10765D01*
X161799D02*
X169567D01*
X144095Y5628D02*
X144193Y5726D01*
X151181D01*
X48339Y63958D02*
X81039D01*
X83465Y38698D02*
X83661Y38895D01*
X86614D01*
X80315Y63895D02*
X80976D01*
X81039Y63958D01*
X88571Y48679D02*
X97441D01*
X49457Y55628D02*
X74410D01*
X49063Y55234D02*
X49457Y55628D01*
X74410D02*
X81622D01*
X88571Y48679D01*
X78866Y51958D02*
X86614Y44210D01*
X48339Y55958D02*
X49063Y55234D01*
X41339Y59958D02*
X84646D01*
X41732Y51958D02*
X78866D01*
X90925Y53679D02*
X97441D01*
X84646Y59958D02*
X90925Y53679D01*
X86614Y38895D02*
X86831Y38679D01*
X97441D01*
D25*
X116535Y177165D02*
D03*
X100787D02*
D03*
D26*
X11811Y185039D02*
D03*
Y11811D02*
D03*
X263779D02*
D03*
Y185039D02*
D03*
D27*
X186693Y6809D02*
D03*
X196693D02*
D03*
X206693D02*
D03*
X216693D02*
D03*
X226693D02*
D03*
D28*
X236693D02*
D03*
D29*
X48339Y126824D02*
D03*
Y134824D02*
D03*
Y142824D02*
D03*
Y150824D02*
D03*
X41339Y146824D02*
D03*
Y130824D02*
D03*
Y138824D02*
D03*
X48339Y47958D02*
D03*
Y55958D02*
D03*
Y63958D02*
D03*
Y71958D02*
D03*
X41339Y67958D02*
D03*
Y51958D02*
D03*
Y59958D02*
D03*
D30*
X44839Y168824D02*
D03*
Y104824D02*
D03*
Y89958D02*
D03*
Y25958D02*
D03*
D31*
X31339Y111824D02*
D03*
Y161824D02*
D03*
Y32958D02*
D03*
Y82958D02*
D03*
D32*
X67339Y109824D02*
D03*
Y154824D02*
D03*
Y30958D02*
D03*
Y75958D02*
D03*
D33*
Y118824D02*
D03*
Y163824D02*
D03*
Y39958D02*
D03*
Y84958D02*
D03*
D34*
X41339Y122824D02*
D03*
Y43958D02*
D03*
D35*
X100984Y137008D02*
D03*
X114764D02*
D03*
D36*
X257874Y33580D02*
D03*
X257480Y61927D02*
D03*
Y89486D02*
D03*
Y117439D02*
D03*
D37*
X257874Y41454D02*
D03*
X257480Y69801D02*
D03*
Y97360D02*
D03*
Y125313D02*
D03*
D38*
X223843Y182006D02*
D03*
X170693D02*
D03*
D39*
X212598D02*
D03*
X159449D02*
D03*
D40*
X88976Y92126D02*
D03*
X175591Y124409D02*
D03*
X149606Y126378D02*
D03*
X244094Y137795D02*
D03*
Y133858D02*
D03*
X149606Y130709D02*
D03*
X144882Y125984D02*
D03*
X149606Y139370D02*
D03*
X248031Y137795D02*
D03*
Y133858D02*
D03*
X236221Y118110D02*
D03*
X196850D02*
D03*
Y137795D02*
D03*
X228346Y31496D02*
D03*
Y47244D02*
D03*
X212598Y31496D02*
D03*
Y47244D02*
D03*
X196850D02*
D03*
Y31496D02*
D03*
X237795Y86614D02*
D03*
X220866Y77559D02*
D03*
X183071Y108268D02*
D03*
Y117323D02*
D03*
X184646Y88583D02*
D03*
X179921Y80315D02*
D03*
X168898Y80709D02*
D03*
X163779Y89370D02*
D03*
Y98819D02*
D03*
Y108661D02*
D03*
X149606Y135039D02*
D03*
X163779Y45669D02*
D03*
X177953Y67323D02*
D03*
X140157Y82284D02*
D03*
Y93307D02*
D03*
X116929Y65354D02*
D03*
X123228Y82284D02*
D03*
Y93307D02*
D03*
X95276Y82677D02*
D03*
X104331D02*
D03*
X122047Y31496D02*
D03*
X133858Y3937D02*
D03*
Y11811D02*
D03*
X122047D02*
D03*
Y3937D02*
D03*
X122835Y53937D02*
D03*
X126772Y20472D02*
D03*
X126378Y73344D02*
D03*
X85433Y92126D02*
D03*
Y95276D02*
D03*
Y98819D02*
D03*
Y118898D02*
D03*
X89370D02*
D03*
X93307D02*
D03*
X90551Y149606D02*
D03*
X86614D02*
D03*
X90551Y153543D02*
D03*
X86614D02*
D03*
Y145669D02*
D03*
X90551D02*
D03*
Y185039D02*
D03*
X86614D02*
D03*
X90551Y188976D02*
D03*
X86614D02*
D03*
Y181102D02*
D03*
X90551D02*
D03*
X137795Y149606D02*
D03*
X133858D02*
D03*
X137795Y153543D02*
D03*
X133858D02*
D03*
Y145669D02*
D03*
X137795D02*
D03*
X244094Y188976D02*
D03*
X248031D02*
D03*
Y185039D02*
D03*
X244094D02*
D03*
Y181102D02*
D03*
X248031D02*
D03*
Y153543D02*
D03*
X244094D02*
D03*
Y149606D02*
D03*
X248031D02*
D03*
Y145669D02*
D03*
X244094D02*
D03*
X190945Y145276D02*
D03*
X187008D02*
D03*
Y149213D02*
D03*
X190945D02*
D03*
Y153150D02*
D03*
X187008D02*
D03*
X187008Y180709D02*
D03*
X190945D02*
D03*
X187008Y184646D02*
D03*
X190945D02*
D03*
Y188583D02*
D03*
X187008D02*
D03*
X137795Y181102D02*
D03*
X133858D02*
D03*
Y188976D02*
D03*
X137795D02*
D03*
X133858Y185039D02*
D03*
X137795D02*
D03*
X88976Y95276D02*
D03*
Y98819D02*
D03*
X217323Y129528D02*
D03*
X230315Y164961D02*
D03*
X237402D02*
D03*
X233858D02*
D03*
X232283Y168110D02*
D03*
X236221D02*
D03*
X179134D02*
D03*
X175197D02*
D03*
X176772Y164961D02*
D03*
X180315D02*
D03*
X173228D02*
D03*
X222047Y130315D02*
D03*
X226198Y85254D02*
D03*
X221260Y82284D02*
D03*
X193307Y83071D02*
D03*
X179528Y28346D02*
D03*
X159449Y125197D02*
D03*
X164961Y115354D02*
D03*
X212205Y68110D02*
D03*
X212598Y74803D02*
D03*
X245669Y59055D02*
D03*
X246063Y105512D02*
D03*
X225590Y75197D02*
D03*
X177165Y52872D02*
D03*
X151181Y52478D02*
D03*
X167717Y48541D02*
D03*
X142913D02*
D03*
X157874Y45391D02*
D03*
X142913Y44210D02*
D03*
X83465Y38698D02*
D03*
X80315Y63895D02*
D03*
X77559Y59958D02*
D03*
X74410Y55628D02*
D03*
X71652Y51691D02*
D03*
D41*
X224016Y150116D02*
D03*
Y145785D02*
D03*
X219685Y150116D02*
D03*
Y145785D02*
D03*
X215354Y150116D02*
D03*
Y145785D02*
D03*
X166791Y149935D02*
D03*
Y145604D02*
D03*
X162461Y149935D02*
D03*
Y145604D02*
D03*
X158130Y149935D02*
D03*
Y145604D02*
D03*
M02*
